<?xml version="1.0" standalone="no"?>
<!DOCTYPE svg PUBLIC "-//W3C//DTD SVG 1.1//EN" "http://www.w3.org/Graphics/SVG/1.1/DTD/svg11.dtd" >
<svg>
<metadata>
Created by FontForge 20120731 at Sat Jun 29 13:53:49 2019
 By www
Copyright (c) 2006 by Rian Hughes / Device. All rights reserved.
</metadata>
<defs>
<font id="ParalucentW00-Medium" horiz-adv-x="547" >
  <font-face 
    font-family="ParalucentW00-Medium"
    font-weight="400"
    font-stretch="normal"
    units-per-em="1000"
    panose-1="2 0 5 3 4 0 0 2 0 4"
    ascent="800"
    descent="-200"
    x-height="512"
    cap-height="640"
    bbox="-85 -268 1710 911"
    underline-thickness="50"
    underline-position="-125"
    unicode-range="U+0020-FB02"
  />
<missing-glyph horiz-adv-x="463" 
d="M60 640h343v-640h-343v640zM80 20l141 300l-141 302v-602zM384 622l-142 -302l142 -300v602zM102 20h259l-130 277zM231 343l130 279h-259z" />
    <glyph glyph-name=".notdef" horiz-adv-x="463" 
d="M60 640h343v-640h-343v640zM80 20l141 300l-141 302v-602zM384 622l-142 -302l142 -300v602zM102 20h259l-130 277zM231 343l130 279h-259z" />
    <glyph glyph-name="glyph1" horiz-adv-x="0" 
 />
    <glyph glyph-name="glyph1" horiz-adv-x="0" 
 />
    <glyph glyph-name="glyph2" horiz-adv-x="0" 
 />
    <glyph glyph-name="space" unicode=" " horiz-adv-x="225" 
 />
    <glyph glyph-name="exclam" unicode="!" horiz-adv-x="192" 
d="M129 170h-62l-17 220v250h96v-250zM175 57q0 -39 -21.5 -51.5t-56.5 -12.5t-56 12.5t-21 51.5t21 52t56 13t56.5 -13t21.5 -52z" />
    <glyph glyph-name="quotedbl" unicode="&#x22;" horiz-adv-x="322" 
d="M270 387h-61l-18 185v68h96v-68zM115 387h-63l-17 185v68h96v-68z" />
    <glyph glyph-name="numbersign" unicode="#" horiz-adv-x="756" 
d="M505 169l-56 -169h-107l57 169h-150l-57 -169h-106l56 169h-116v87h148l41 121h-189v89h219l59 174h105l-59 -174h151l59 174h105l-59 -174h124v-89h-154l-41 -121h195v-87h-225zM320 377l-41 -121h151l41 121h-151z" />
    <glyph glyph-name="dollar" unicode="$" horiz-adv-x="524" 
d="M497 147q0 -59 -49 -100t-133 -52v-126h-96v126q-101 9 -148 58t-46 137h105q0 -53 32.5 -83t107.5 -30q34 0 57 6t37.5 15t20.5 20.5t7 22.5q2 28 -23.5 42t-65 23.5t-86 17t-86.5 23t-67.5 41.5t-28.5 72q0 30 10 57t32.5 47.5t57.5 34t84 17.5v121h96v-123
q47 -6 80 -22t54 -40t30.5 -56t9.5 -69h-105q-2 25 -8.5 45t-21.5 33.5t-39 21t-59 7.5q-34 0 -56.5 -6t-35.5 -15.5t-18.5 -22t-4.5 -25.5q1 -17 16.5 -28t40.5 -18.5t57 -13.5t65.5 -13t65 -17.5t56.5 -27t40 -41t15 -59.5z" />
    <glyph glyph-name="percent" unicode="%" horiz-adv-x="1237" 
d="M1199 223q0 -45 -10.5 -87t-36.5 -73.5t-70 -50.5t-112 -19t-111.5 19t-69 51t-35.5 73.5t-10 86.5t10 86.5t35.5 73.5t69.5 51t112 19q67 0 111.5 -19t70 -51t36 -73.5t10.5 -86.5zM569 0h-107l188 551h-215q33 -23 46 -61t13 -79q0 -46 -10 -88t-35.5 -74t-70 -51
t-113.5 -19q-70 0 -114 19t-69 51.5t-34 74t-9 86.5t10 86.5t37 73.5t76 51t127 19h497zM1104 223q0 29 -5.5 55t-20.5 45.5t-41 30.5t-66 11t-65.5 -11t-40.5 -30.5t-20.5 -45.5t-5.5 -55t5.5 -55t20.5 -45t40.5 -30t64.5 -11q40 0 66 11t41 29.5t21 44.5t6 56zM399 411
q0 28 -5.5 53.5t-20.5 44.5t-41 30.5t-66 11.5t-65.5 -11t-40.5 -30t-20.5 -44.5t-5.5 -54.5q0 -30 5.5 -56t20.5 -44.5t40.5 -29.5t64.5 -11q40 0 66 10.5t41 29.5t21 45t6 56z" />
    <glyph glyph-name="ampersand" unicode="&#x26;" horiz-adv-x="679" 
d="M549 0l-67 79q-38 -44 -87 -65t-104 -21q-120 0 -180 54.5t-60 146.5q0 44 15.5 75.5t40 53t54 34.5t56.5 19l-127 155v109h425v-90h-310l260 -314q9 35 14 82.5t5 107.5h103q0 -88 -12.5 -153t-35.5 -114l143 -159h-133zM281 301q-54 -7 -88 -32t-34 -75q0 -53 33 -80.5
t95 -27.5q32 0 69 10.5t66 43.5z" />
    <glyph glyph-name="quotesingle" unicode="'" horiz-adv-x="166" 
d="M115 387h-63l-17 185v68h96v-68z" />
    <glyph glyph-name="parenleft" unicode="(" horiz-adv-x="340" 
d="M326 -66q-84 0 -138.5 27t-86 77.5t-44 122.5t-12.5 161t12.5 160t44 121t86 77t138.5 27v-80q-60 0 -96.5 -22t-57 -62t-27 -96.5t-6.5 -124.5q0 -69 6.5 -126t26.5 -97t56.5 -62t97.5 -22v-81v0z" />
    <glyph glyph-name="parenright" unicode=")" horiz-adv-x="340" 
d="M295 322q0 -89 -12.5 -161t-44 -122.5t-86 -77.5t-138.5 -27v81q61 0 97.5 22t56.5 62t26.5 97t6.5 126q0 68 -6.5 124.5t-27 96.5t-57 62t-96.5 22v80q84 0 138 -27t86 -77t44.5 -121t12.5 -160z" />
    <glyph glyph-name="asterisk" unicode="*" horiz-adv-x="469" 
d="M312 444l124 -62l-46 -71l-118 70l8 -126h-91l5 126l-117 -70l-45 71l122 62l-122 60l45 72l117 -70l-5 134h91l-8 -134l118 69l46 -71z" />
    <glyph glyph-name="plus" unicode="+" horiz-adv-x="609" 
d="M352 211v-211h-96v211h-230v90h230v211h96v-211h229v-90h-229z" />
    <glyph glyph-name="comma" unicode="," horiz-adv-x="204" 
d="M154 -131h-69l9 126q-34 0 -51 15t-17 49q0 39 21.5 51t56.5 12q39 0 60 -17.5t14 -66.5z" />
    <glyph glyph-name="hyphen" unicode="-" horiz-adv-x="374" 
d="M40 214v88h294v-88h-294z" />
    <glyph glyph-name="period" unicode="." horiz-adv-x="205" 
d="M180 57q0 -38 -21 -51t-55 -13q-35 0 -56.5 13t-21.5 51q0 40 21.5 52.5t56.5 12.5q34 0 55 -12.5t21 -52.5z" />
    <glyph glyph-name="slash" unicode="/" horiz-adv-x="322" 
d="M105 0h-105l219 640h103z" />
    <glyph glyph-name="zero" unicode="0" horiz-adv-x="610" 
d="M571 319q0 -71 -11.5 -131t-41 -103.5t-81.5 -67.5t-133 -24t-132.5 24t-81 67.5t-40.5 103.5t-11 132t11.5 132t41 103.5t81 67.5t131.5 24q81 0 133 -24.5t81.5 -68t41 -103.5t11.5 -132zM461 319q0 54 -6 98t-23 75t-47.5 47.5t-80.5 16.5q-49 0 -79 -16.5t-47 -47.5
t-23 -74.5t-6 -97.5t5.5 -97.5t22.5 -74t47 -47t80 -16.5t80.5 16.5t47.5 47t23 73.5t6 97z" />
    <glyph glyph-name="one" unicode="1" horiz-adv-x="307" 
d="M132 0v550h-122v75l125 15h107v-640h-110z" />
    <glyph glyph-name="two" unicode="2" horiz-adv-x="560" 
d="M41 0v97q0 61 27 100.5t67.5 65t88 43t89 35t69.5 40.5t30 61q4 53 -25.5 84t-101.5 31q-37 0 -62 -10t-40.5 -28t-22 -43.5t-6.5 -56.5h-107q0 49 12 90.5t40 72t72.5 48t110.5 17.5q67 0 113.5 -16t75 -44t40.5 -67t10 -84q-3 -56 -32 -91t-70.5 -59t-89 -41t-88 -35.5
t-67.5 -43.5t-27 -64v-12h373v-91z" />
    <glyph glyph-name="three" unicode="3" horiz-adv-x="555" 
d="M516 201q0 -42 -13.5 -79.5t-42.5 -66t-74 -45.5t-109 -17q-66 0 -112 17.5t-75 48t-42.5 72t-13.5 89.5h103q0 -63 35.5 -100t108.5 -37q34 0 58.5 10t40 26.5t22.5 37.5t7 44q0 25 -7.5 47t-26 37.5t-51 24.5t-82.5 9h-96v80l226 151h-315v90h435v-115l-215 -125
q47 0 90 -10.5t76 -33.5t53 -61.5t20 -93.5z" />
    <glyph glyph-name="four" unicode="4" horiz-adv-x="587" 
d="M465 134v-134h-110v134h-338v100l302 406h146v-418h112v-88h-112zM122 222h233v309z" />
    <glyph glyph-name="five" unicode="5" horiz-adv-x="561" 
d="M534 210q0 -44 -13.5 -83t-42.5 -69t-74 -47.5t-109 -17.5q-66 0 -112 17.5t-75 48t-42.5 72t-13.5 89.5h107q0 -63 33 -100t107 -37q34 0 58 11t39.5 28.5t22.5 40.5t7 47q0 28 -8 50.5t-26.5 38.5t-48.5 24.5t-74 8.5h-198v308h431l-1 -90h-322v-131h121q42 0 83.5 -10
t75 -34t54.5 -64.5t21 -100.5z" />
    <glyph glyph-name="six" unicode="6" horiz-adv-x="592" 
d="M554 205q0 -43 -14 -81.5t-44 -67.5t-77 -46t-113 -17q-79 0 -130.5 21t-82 62.5t-42.5 103t-12 141.5q0 86 15.5 148t47 101.5t80.5 58t117 18.5q118 0 179.5 -47.5t61.5 -157.5h-108q0 60 -30.5 87.5t-102.5 27.5q-51 0 -82 -18t-47.5 -50.5t-21 -77.5t-3.5 -99
q4 17 16.5 33.5t34.5 30t53.5 21.5t74.5 8q44 0 85.5 -10.5t73.5 -34t51.5 -61.5t19.5 -94zM446 205q0 24 -7 45t-24.5 36t-45.5 24t-70 9q-38 0 -65 -9t-44.5 -24.5t-26 -36.5t-8.5 -44q0 -24 9 -46.5t27.5 -39.5t47.5 -27t68 -10q64 0 101.5 33t37.5 90z" />
    <glyph glyph-name="seven" unicode="7" horiz-adv-x="470" 
d="M467 640v-103l-281 -537h-119l297 550h-348v90h451z" />
    <glyph glyph-name="eight" unicode="8" horiz-adv-x="606" 
d="M567 182q0 -37 -11 -71t-40.5 -60.5t-80.5 -42t-130 -15.5q-81 0 -132.5 16t-81.5 41.5t-41 57.5t-11 63q0 49 27.5 90.5t92.5 62.5q-60 20 -83.5 57.5t-23.5 91.5q0 39 12 71.5t41 55t77.5 35t121.5 12.5q72 0 120 -13t76.5 -35.5t40 -52.5t11.5 -63q0 -53 -25.5 -89
t-79.5 -53q63 -19 91.5 -63t28.5 -96zM447 464q0 19 -4 36t-18.5 30t-43 20.5t-77.5 7.5t-77.5 -7.5t-43 -20.5t-18.5 -30t-4 -36q0 -18 4 -35t19 -30t43.5 -21t76.5 -8t76.5 8t43 21t19 30t4.5 35zM459 184q0 20 -7 39.5t-24.5 34.5t-47.5 24.5t-76 9.5q-47 0 -77.5 -9.5
t-48 -24.5t-24.5 -34.5t-7 -39.5q0 -21 7.5 -39t26 -32t49 -22t75.5 -8t75 8t47.5 22t24.5 32t7 39z" />
    <glyph glyph-name="nine" unicode="9" horiz-adv-x="590" 
d="M550 321q0 -89 -16 -151t-48 -101.5t-82 -57.5t-117 -18q-59 0 -105 11.5t-77.5 36.5t-48 64.5t-16.5 95.5h107q0 -62 35 -90.5t105 -28.5q52 0 83.5 19t48 52.5t21.5 79t4 98.5q-5 -17 -17 -33.5t-33 -30t-52 -22t-73 -8.5q-44 0 -85.5 10.5t-73.5 34t-51.5 61.5
t-19.5 94q0 44 14 82t44 66.5t77 45t113 16.5q79 0 130 -21t80.5 -62t41 -102t11.5 -141zM434 437q0 24 -8.5 46.5t-26.5 39t-46 26.5t-67 10q-65 0 -102 -32t-37 -90q0 -24 7 -44.5t24.5 -35.5t46 -23.5t70.5 -8.5q74 0 106.5 33t32.5 79z" />
    <glyph glyph-name="colon" unicode=":" horiz-adv-x="205" 
d="M180 455q0 -38 -21 -51.5t-55 -13.5q-35 0 -56.5 13.5t-21.5 51.5q0 39 21.5 51.5t56.5 12.5q34 0 55 -12.5t21 -51.5zM180 57q0 -38 -21 -51t-55 -13q-35 0 -56.5 13t-21.5 51q0 40 21.5 52.5t56.5 12.5q34 0 55 -12.5t21 -52.5z" />
    <glyph glyph-name="semicolon" unicode=";" horiz-adv-x="204" 
d="M180 455q0 -38 -21 -51.5t-55 -13.5q-35 0 -56.5 13.5t-21.5 51.5t21.5 51t56.5 13q34 0 55 -13t21 -51zM154 -131h-69l9 126q-34 0 -51 15t-17 49q0 39 21.5 51t56.5 12q39 0 60 -17.5t14 -66.5z" />
    <glyph glyph-name="less" unicode="&#x3c;" horiz-adv-x="541" 
d="M157 214l94 -172h-109l-117 213l116 210h110l-91 -164h354v-87h-357z" />
    <glyph glyph-name="equal" unicode="=" horiz-adv-x="635" 
d="M40 321v88h555v-88h-555zM40 110v89h555v-89h-555z" />
    <glyph glyph-name="greater" unicode="&#x3e;" horiz-adv-x="541" 
d="M399 42h-110l95 172h-358v87h355l-92 168h110l117 -214z" />
    <glyph glyph-name="question" unicode="?" horiz-adv-x="534" 
d="M495 439q0 -58 -22.5 -96.5t-55 -61t-70 -32t-67.5 -9.5h-19l-16 -68h-91v150h80q153 3 153 117q0 24 -7 44.5t-22.5 36.5t-39.5 25t-58 9q-74 0 -107 -34.5t-33 -97.5h-106q0 48 13 89.5t42 71.5t75 47t112 17q64 0 109 -16t74 -44.5t42.5 -66.5t13.5 -81zM277 58
q0 -39 -21 -52t-55 -13q-35 0 -57 13t-22 52t22 51t57 12q34 0 55 -12t21 -51z" />
    <glyph glyph-name="at" unicode="@" horiz-adv-x="911" 
d="M865 351q0 -54 -9 -100t-33 -79.5t-66.5 -52.5t-109.5 -19h-53l-17 74q-20 -35 -60.5 -57t-97.5 -22q-35 0 -65.5 8t-53 24.5t-36 42t-13.5 60.5q0 31 10 52.5t31.5 36t54.5 23.5t78 15l130 17q-1 43 -22.5 62.5t-81.5 19.5q-29 0 -46 -4.5t-27 -13.5t-13 -21t-3 -27h-97
q1 26 8 53t27.5 48.5t56 35.5t93.5 14q65 0 104.5 -14.5t60.5 -40.5t27.5 -61.5t6.5 -78.5v-166q67 0 92 41t25 130q0 62 -13 116t-47.5 93.5t-95 62.5t-155.5 23q-94 0 -154.5 -26.5t-95 -71t-48 -103.5t-13.5 -125q0 -72 15 -132t55 -103t110 -67t180 -24h178v-85h-178
q-144 0 -234 32.5t-140 88.5t-67.5 131t-17.5 160q0 79 17.5 153t63.5 131t125.5 91.5t203.5 34.5q126 0 205.5 -32.5t125 -86t62.5 -122t17 -139.5zM440 287q-28 -4 -45.5 -9.5t-27.5 -12t-14 -15t-4 -19.5q0 -26 21 -41t67 -15q64 0 91 34.5t27 94.5z" />
    <glyph glyph-name="A" unicode="A" horiz-adv-x="631" 
d="M517 0l-43 125h-314l-46 -125h-115l246 640h149l240 -640h-117zM317 569l-130 -364h259z" />
    <glyph glyph-name="B" unicode="B" horiz-adv-x="607" 
d="M575 186q0 -36 -12.5 -70t-41.5 -59.5t-78.5 -41t-122.5 -15.5h-254v640h250q64 0 109.5 -12t74 -33.5t42 -51t13.5 -63.5q0 -23 -4.5 -45.5t-14.5 -42t-26.5 -33.5t-39.5 -19q26 -7 45.5 -23t33 -37t20 -45.5t6.5 -48.5zM462 187q0 32 -11.5 51t-31 28.5t-44 12.5
t-49.5 3h-150v-192h148q44 0 71 7.5t42 20.5t20 30.5t5 38.5zM447 457q0 20 -5 37t-19 29t-38.5 19t-64.5 7h-144v-182h150q39 0 62.5 8t36.5 21t17.5 29t4.5 32z" />
    <glyph glyph-name="C" unicode="C" horiz-adv-x="667" 
d="M629 246q0 -53 -15.5 -99t-50 -80.5t-89.5 -54t-134 -19.5q-90 0 -147 26.5t-90 71.5t-45.5 104t-12.5 125t12.5 125t45.5 104t90.5 71.5t146.5 26.5q79 0 134 -20.5t89.5 -55t50 -80t15.5 -95.5h-113q-2 34 -12.5 63t-31.5 50.5t-53.5 34t-78.5 12.5q-57 0 -92.5 -18.5
t-55.5 -50.5t-27.5 -75t-7.5 -92t7.5 -92t27.5 -74.5t55.5 -50t92.5 -18.5q47 0 79.5 12t53 33t31 50.5t12.5 65.5h113v0z" />
    <glyph glyph-name="D" unicode="D" horiz-adv-x="646" 
d="M602 324q0 -76 -20 -136t-58.5 -102t-94.5 -64t-129 -22h-234v640h244q145 0 218.5 -80.5t73.5 -235.5zM495 325q0 65 -13 108.5t-39 69.5t-65.5 36.5t-91.5 10.5h-111v-460h105q53 0 93 12.5t67 40t41 72.5t14 110z" />
    <glyph glyph-name="E" unicode="E" 
d="M66 0v640h445v-90h-336v-179h305v-89h-305v-192h336v-90h-445z" />
    <glyph glyph-name="F" unicode="F" horiz-adv-x="521" 
d="M175 550v-179h302v-89h-302v-282h-109v640h435v-90h-326z" />
    <glyph glyph-name="G" unicode="G" horiz-adv-x="687" 
d="M566 0l-27 99q-29 -48 -77 -77t-128 -29q-84 0 -139.5 26.5t-89 71.5t-47 104t-13.5 125t12.5 125t45.5 104t90.5 71.5t146.5 26.5q78 0 132.5 -18.5t88.5 -49t49.5 -71t15.5 -83.5h-112q-3 27 -12.5 51t-30 41.5t-52.5 28t-79 10.5q-57 0 -92.5 -18.5t-55.5 -50.5
t-27.5 -75t-7.5 -92t8 -92t28 -74.5t55.5 -50t91.5 -18.5q92 0 136 49.5t44 132.5h-188v90h297v-357h-63z" />
    <glyph glyph-name="H" unicode="H" horiz-adv-x="666" 
d="M490 0v282h-314v-282h-110v640h110v-269h314v269h111v-640h-111z" />
    <glyph glyph-name="I" unicode="I" horiz-adv-x="240" 
d="M66 0v640h110v-640h-110z" />
    <glyph glyph-name="J" unicode="J" horiz-adv-x="339" 
d="M275 189q0 -50 -8 -86.5t-29 -60.5t-57 -35.5t-92 -11.5q-38 0 -89 6v88q17 -3 31.5 -4t28.5 -1q32 0 52.5 7t32 20t15.5 31.5t4 41.5v456h110z" />
    <glyph glyph-name="K" unicode="K" horiz-adv-x="567" 
d="M450 0l-274 299v-299h-110v640h110v-278l258 278h148l-310 -305l327 -335h-149z" />
    <glyph glyph-name="L" unicode="L" horiz-adv-x="436" 
d="M69 0v640h110v-550h243v-90h-353z" />
    <glyph glyph-name="M" unicode="M" horiz-adv-x="890" 
d="M715 0v507l-215 -507h-110l-215 507v-507h-109v640h163l186 -436q2 -8 7.5 -21.5t10.5 -27.5q6 -16 12 -34l3 10.5t8 24t10.5 27.5t8.5 21l186 436h164v-640h-110z" />
    <glyph glyph-name="N" unicode="N" horiz-adv-x="716" 
d="M514 0l-335 500v-500h-110v640h141l330 -496v496h110v-640h-136z" />
    <glyph glyph-name="O" unicode="O" horiz-adv-x="701" 
d="M655 319q0 -65 -13 -124t-47 -104t-93 -71.5t-152 -26.5q-92 0 -151.5 26.5t-93.5 71.5t-47 104.5t-13 125.5t13 125t47.5 103.5t93.5 71t151 26.5q93 0 152 -26.5t93 -71.5t47 -104.5t13 -125.5zM544 319q0 50 -7.5 93t-29 75t-59.5 50.5t-98 18.5t-97.5 -18.5
t-58.5 -50t-29 -74.5t-8 -92q0 -50 8 -93t29 -75t58.5 -50.5t97.5 -18.5t98 18.5t59.5 50.5t29 74.5t7.5 91.5z" />
    <glyph glyph-name="P" unicode="P" horiz-adv-x="605" 
d="M564 426q0 -33 -6 -69.5t-31.5 -68t-77.5 -52t-144 -20.5h-129v-216h-110v640h231q92 0 145 -21t80 -52.5t34.5 -69.5t7.5 -71zM451 426q0 20 -4.5 42t-20 40t-45 30t-80.5 12h-125v-246h128q50 0 79 11.5t44 29.5t19.5 39.5t4.5 41.5z" />
    <glyph glyph-name="Q" unicode="Q" horiz-adv-x="702" 
d="M372 0q-101 0 -164.5 24.5t-99.5 67t-49.5 101t-13.5 127.5q0 66 13 125t47.5 104t93.5 71.5t151 26.5t150.5 -25.5t92 -69t46 -101.5t12.5 -122q0 -37 -6 -75.5t-19 -72t-32.5 -60t-46.5 -39.5l112 -21v-61h-287zM544 319q0 49 -7.5 92.5t-29 75.5t-59.5 50.5t-98 18.5
t-97.5 -18.5t-58.5 -50.5t-29 -75t-8 -92t8 -91t29 -72.5t58.5 -48t97.5 -17.5t98 17.5t59.5 48t29 72t7.5 90.5z" />
    <glyph glyph-name="R" unicode="R" horiz-adv-x="605" 
d="M434 0l-258 251v-251h-110v640h228q90 0 143 -20.5t80.5 -51.5t35 -66.5t7.5 -66.5q0 -59 -21.5 -97t-57 -60t-80 -30t-90.5 -8l271 -240h-148zM449 435q0 19 -5 39t-21 37t-45.5 28t-78.5 11h-123v-228h125q49 0 78 10.5t44.5 27t20.5 36.5t5 39z" />
    <glyph glyph-name="S" unicode="S" horiz-adv-x="642" 
d="M594 187q0 -34 -12 -68.5t-42 -62.5t-80 -45.5t-125 -17.5q-79 0 -133.5 16.5t-88.5 47.5t-49.5 74.5t-16.5 97.5h110q1 -30 10.5 -56t29.5 -44.5t53 -29.5t82 -11q46 0 75.5 7.5t47 20.5t24.5 30t7 36q0 28 -18 45.5t-47.5 28.5t-67 18t-76.5 14.5t-77 18.5t-67.5 29
t-48 45.5t-19.5 69.5q0 43 14 79t45 62t79.5 40.5t117.5 14.5t119 -16t82 -45t47.5 -71t15.5 -93h-109q-4 66 -40.5 99.5t-118.5 33.5q-75 0 -109 -24t-34 -69q0 -26 18 -42t47.5 -26t67.5 -17t77 -15.5t77 -20t67.5 -31t47.5 -49.5t18 -74z" />
    <glyph glyph-name="T" unicode="T" horiz-adv-x="496" 
d="M302 550v-550h-107v550h-184v90h475v-90h-184z" />
    <glyph glyph-name="U" unicode="U" horiz-adv-x="654" 
d="M600 287q0 -78 -15 -134t-48 -91.5t-85 -52t-125 -16.5t-124.5 16.5t-84.5 52t-48 91.5t-15 134v353h111v-348q0 -50 6.5 -87.5t24.5 -63t49.5 -38.5t80.5 -13t80.5 13t49.5 38.5t25 63t7 87.5v348h111v-353z" />
    <glyph glyph-name="V" unicode="V" horiz-adv-x="627" 
d="M377 0h-135l-247 640h117l199 -559l201 559h118z" />
    <glyph glyph-name="W" unicode="W" horiz-adv-x="975" 
d="M776 0h-132l-157 519l-155 -519h-132l-195 640h116l146 -523l158 523h130l157 -523l147 523h111z" />
    <glyph glyph-name="X" unicode="X" horiz-adv-x="587" 
d="M464 0l-170 261l-169 -261h-120l226 336l-209 304h130l142 -221l141 221h130l-209 -304l226 -336h-118z" />
    <glyph glyph-name="Y" unicode="Y" horiz-adv-x="607" 
d="M356 194v-194h-115v194l-242 446h116l185 -361l194 361h115z" />
    <glyph glyph-name="Z" unicode="Z" horiz-adv-x="561" 
d="M37 0v108l363 442h-363v90h475v-102l-373 -448h386v-90h-488z" />
    <glyph glyph-name="bracketleft" unicode="[" horiz-adv-x="305" 
d="M66 -66v772h226v-81h-131v-611h131v-80h-226z" />
    <glyph glyph-name="backslash" unicode="\" horiz-adv-x="319" 
d="M215 0l-216 640h103l219 -640h-106z" />
    <glyph glyph-name="bracketright" unicode="]" horiz-adv-x="305" 
d="M12 -66v80h132v611h-132v81h228v-772h-228z" />
    <glyph glyph-name="asciicircum" unicode="^" horiz-adv-x="550" 
d="M274 301l-227 -41v87l227 42l228 -43v-79v-7z" />
    <glyph glyph-name="underscore" unicode="_" horiz-adv-x="750" 
d="M-24 -268v89h800v-89h-800z" />
    <glyph glyph-name="grave" unicode="`" horiz-adv-x="551" 
d="M61 619v87l430 -67v-89z" />
    <glyph glyph-name="a" unicode="a" horiz-adv-x="549" 
d="M452 0l-22 77q-9 -15 -26.5 -30t-43 -27t-58.5 -19.5t-73 -7.5q-41 0 -77 9.5t-63 28.5t-42.5 48.5t-15.5 70.5q0 71 51.5 105.5t161.5 45.5l161 16q-1 28 -7.5 49.5t-21.5 36.5t-40 23t-64 8q-36 0 -59 -7t-37 -20t-19.5 -32t-5.5 -43l-104 -1q0 40 9.5 74t35 59.5
t68.5 40t111 14.5q78 0 125.5 -16t72.5 -46t33 -72t8 -94v-291h-58zM405 236l-145 -16q-67 -8 -93 -23.5t-26 -45.5q0 -35 29 -54.5t86 -19.5q71 0 110 38t39 105v16z" />
    <glyph glyph-name="b" unicode="b" horiz-adv-x="581" 
d="M547 256q0 -53 -10.5 -100.5t-35.5 -83.5t-67 -57.5t-105 -21.5q-46 0 -79.5 7.5t-57 19.5t-38.5 26.5t-22 27.5l-22 -74h-58v707h105v-257q8 13 22 25t35 22t50 16t67 6q63 0 105 -21.5t66.5 -57.5t34.5 -84t10 -100zM440 256q0 39 -6 70.5t-21.5 54.5t-43.5 35.5
t-72 12.5q-45 0 -73 -13t-43 -35.5t-20 -54.5t-5 -69q0 -40 6 -72.5t21.5 -56t43.5 -36t73 -12.5q43 0 70.5 12.5t43 36t21 56t5.5 71.5z" />
    <glyph glyph-name="c" unicode="c" 
d="M515 201q0 -47 -13.5 -85.5t-41.5 -65.5t-71 -42t-102 -15q-76 0 -125 22t-78 58.5t-40.5 84t-11.5 98.5t11.5 98.5t40.5 84t78 58.5t123 22q117 0 173.5 -57.5t56.5 -153.5h-109q-5 60 -32.5 92t-91.5 32q-41 0 -68.5 -13.5t-43.5 -37t-22.5 -55.5t-6.5 -69
q0 -36 6.5 -67.5t22.5 -55t44 -36.5t70 -13q64 0 90.5 30t31.5 86h109v0z" />
    <glyph glyph-name="d" unicode="d" horiz-adv-x="581" 
d="M471 0l-24 73q-7 -13 -21.5 -27t-38 -26t-57.5 -19.5t-79 -7.5q-63 0 -105.5 21.5t-67.5 57.5t-35.5 83.5t-10.5 100.5q0 52 10 100t35 84t67 57.5t106 21.5q38 0 67 -6t50 -16t35 -22.5t22 -25.5v258h105v-707h-58zM425 256q0 37 -5 68.5t-20.5 55t-43.5 36.5t-74 13
q-44 0 -71.5 -12.5t-43 -35.5t-21 -54.5t-5.5 -70.5t5.5 -71t21 -55t42.5 -36t71 -13q45 0 73 12.5t43.5 35.5t21.5 55.5t6 71.5z" />
    <glyph glyph-name="e" unicode="e" horiz-adv-x="555" 
d="M521 157q-3 -33 -17 -62.5t-41 -52t-69.5 -36t-102.5 -13.5q-77 0 -127 22t-79 58.5t-40 84.5t-11 99t11.5 98.5t40 84t78 58t126.5 21.5q71 0 117.5 -25t73 -67t35 -97.5t3.5 -115.5h-374q5 -66 39 -102.5t103 -36.5q32 0 53.5 7t35.5 18.5t21.5 26.5t11.5 30h112z
M409 301q0 26 -6.5 50.5t-21.5 43t-40 30t-61 11.5q-38 0 -62.5 -11t-40 -29.5t-22.5 -43.5t-9 -53h263v1v1z" />
    <glyph glyph-name="f" unicode="f" horiz-adv-x="325" 
d="M175 425v-425h-101v425h-73v64l73 22v49q0 82 45.5 117t147.5 35h22.5t24.5 -1v-87q-10 0 -18 0.5t-16 0.5q-63 0 -84 -17t-21 -49v-47h139v-87h-139z" />
    <glyph glyph-name="g" unicode="g" horiz-adv-x="534" 
d="M527 -58q0 -29 -11.5 -57t-40 -50t-77 -36t-123.5 -14q-77 0 -126.5 12t-79 35t-41 56.5t-11.5 76.5h112q2 -22 7.5 -39.5t21 -30t44 -19t75.5 -6.5q44 0 71.5 6t42.5 15.5t20 21.5t5 23q0 15 -10 25t-28 17t-42.5 11.5t-53.5 9.5q-44 7 -89.5 13.5t-83 18t-61 31.5
t-23.5 54q0 33 24 52t63 29q-44 22 -60.5 58t-16.5 71q0 39 10 73t38 59t77 39.5t126 14.5h225v-51l-72 -21q24 -12 40.5 -41t16.5 -74q0 -40 -9.5 -73t-35 -57t-71 -37t-116.5 -13q-13 0 -28 0.5t-29 2.5l-32 4q-30 -4 -36.5 -12t-6.5 -16q0 -18 35 -25t120 -18
q41 -5 83.5 -12.5t77.5 -22t57 -39.5t22 -65zM385 329q0 21 -4.5 38t-18 30t-37 20t-61.5 7q-36 0 -59.5 -7t-37 -19.5t-18.5 -30t-5 -38.5q0 -23 5 -42t18 -32.5t36.5 -21.5t61.5 -8q36 0 59.5 7.5t37 21t18.5 33t5 42.5z" />
    <glyph glyph-name="h" unicode="h" horiz-adv-x="565" 
d="M415 0v287q0 36 -4 62.5t-17.5 44.5t-38 26.5t-65.5 8.5t-66.5 -8.5t-39.5 -26t-19.5 -44.5t-5.5 -63l-2 -287h-105v707h105v-259q7 14 20 27t32.5 22.5t46.5 15.5t64 6q63 0 102 -17t61 -48.5t30 -76.5t8 -100v-277h-106z" />
    <glyph glyph-name="i" unicode="i" horiz-adv-x="206" 
d="M180 635q0 -38 -20.5 -51t-55.5 -13q-36 0 -57.5 13t-21.5 51q0 39 21.5 52t57.5 13q35 0 55.5 -13t20.5 -52zM50 0v512h106v-512h-106z" />
    <glyph glyph-name="j" unicode="j" horiz-adv-x="202" 
d="M182 635q0 -38 -21 -51.5t-56 -13.5t-56.5 13.5t-21.5 51.5q0 39 21.5 51.5t56.5 12.5t56 -12.5t21 -51.5zM157 -46q0 -78 -33.5 -117.5t-113.5 -39.5q-14 0 -30 1.5t-34 3.5v89q12 -2 22.5 -3t18.5 -1q39 0 51.5 17t12.5 48v560h106v-558z" />
    <glyph glyph-name="k" unicode="k" horiz-adv-x="521" 
d="M375 0l-216 230v-230h-107v707h107v-396l193 201h149l-261 -242l281 -270h-146z" />
    <glyph glyph-name="l" unicode="l" horiz-adv-x="211" 
d="M52 0v707h107v-707h-107z" />
    <glyph glyph-name="m" unicode="m" horiz-adv-x="804" 
d="M652 0v307q0 27 -3.5 49.5t-13.5 38.5t-28.5 25t-49.5 9q-30 0 -49 -9t-29.5 -25t-14.5 -38.5t-4 -49.5v-307h-108v307q0 27 -3.5 49.5t-13.5 38.5t-28.5 25t-49.5 9q-30 0 -49 -9t-30 -25t-15 -38.5t-4 -49.5v-307h-107v512h58l24 -66q6 12 18 25t31 23.5t45.5 17.5
t62.5 7q57 0 90.5 -20.5t50.5 -58.5q6 13 17.5 27.5t31 25.5t47 18.5t63.5 7.5q52 0 85 -17t52 -47t25.5 -69.5t6.5 -84.5v-301h-108z" />
    <glyph glyph-name="n" unicode="n" horiz-adv-x="566" 
d="M416 0v285q0 34 -4 61t-17.5 45.5t-38 28.5t-65.5 10t-66.5 -9.5t-40 -28.5t-20 -46t-5.5 -61v-285h-107v512h58l24 -72q6 13 20 27t36.5 25.5t54.5 19t76 7.5q63 0 102.5 -17.5t61 -49.5t29.5 -77t8 -99v-276h-106z" />
    <glyph glyph-name="o" unicode="o" horiz-adv-x="572" 
d="M540 256q0 -51 -11.5 -98.5t-41 -84t-78.5 -58.5t-124 -22t-124 22t-77.5 58.5t-40 84t-11.5 98.5t11.5 98t40 84t78 59t124.5 22t124 -22t78 -59t40.5 -84t11.5 -98zM431 256q0 36 -5.5 68t-21.5 56t-44.5 38t-73.5 14t-73 -14t-44 -38t-22 -56t-6 -68t6 -68t22 -56
t44 -38t72 -14q45 0 73.5 13.5t44.5 37.5t22 56t6 69z" />
    <glyph glyph-name="p" unicode="p" horiz-adv-x="580" 
d="M547 255q0 -53 -10 -100.5t-34.5 -83.5t-66.5 -57t-105 -21q-38 0 -67 6t-50 16t-35 22.5t-22 25.5v-263h-105v712h58l22 -73q7 13 22 27t38.5 26t57 19.5t79.5 7.5q63 0 105 -21.5t67 -58t35.5 -84.5t10.5 -100zM440 255q0 39 -5.5 71.5t-21 55.5t-43 36t-70.5 13
q-45 0 -73 -12.5t-43.5 -35.5t-21.5 -55.5t-6 -72.5q0 -38 5 -69.5t20 -54.5t43 -36t73 -13q44 0 72 12.5t43.5 35.5t21.5 54.5t6 70.5z" />
    <glyph glyph-name="q" unicode="q" horiz-adv-x="577" 
d="M421 -200v263q-8 -13 -21.5 -25.5t-34.5 -22.5t-49.5 -16t-66.5 -6q-64 0 -106 21t-67 57t-35 83.5t-10 100.5q0 52 10.5 100t36 84.5t68 58t105.5 21.5q45 0 78.5 -7.5t57 -19.5t38 -26t21.5 -27l23 73h58v-712h-106zM422 255q0 39 -5.5 71.5t-21 56t-43 36t-72.5 12.5
q-44 0 -71 -13t-43 -36t-21.5 -55.5t-5.5 -71.5t5.5 -70.5t21.5 -54.5t43.5 -35.5t71.5 -12.5q45 0 73 13t43 36t20 54.5t5 69.5z" />
    <glyph glyph-name="r" unicode="r" horiz-adv-x="321" 
d="M316 424q-8 0 -15 1t-14 1q-40 0 -65 -10.5t-39 -29.5t-19 -45t-5 -57v-284h-107v512h57l25 -71q6 13 18.5 26.5t32.5 25t48 19t66 7.5h17v-95v0z" />
    <glyph glyph-name="s" unicode="s" horiz-adv-x="524" 
d="M497 148q0 -28 -12.5 -56t-39.5 -50t-69.5 -35.5t-103.5 -13.5q-130 0 -188.5 50t-58.5 148h105q0 -53 32.5 -83t107.5 -30q34 0 57 6t37.5 15t20.5 20.5t7 22.5q1 28 -25.5 42.5t-66 23.5t-86 17t-86.5 23t-66.5 41.5t-26.5 72.5q0 34 12 62.5t39 49.5t69.5 33t103.5 12
q62 0 105 -14t69.5 -39t38.5 -60.5t12 -77.5h-100q-2 25 -8.5 45t-21.5 34t-39 21.5t-59 7.5q-32 0 -54 -5.5t-35.5 -14.5t-19.5 -21t-6 -24q0 -25 26.5 -37.5t66 -21.5t85.5 -17.5t85.5 -25t66 -45t26.5 -76.5z" />
    <glyph glyph-name="t" unicode="t" horiz-adv-x="337" 
d="M189 426v-279q0 -18 5 -31t19 -21.5t39.5 -11.5t67.5 -1v-86q-63 -4 -108.5 2t-75 24t-43 49t-13.5 76v279h-73v64l73 22v128h106v-128h134v-86h-131z" />
    <glyph glyph-name="u" unicode="u" horiz-adv-x="566" 
d="M456 0l-22 74q-7 -14 -21 -28.5t-37 -26t-55 -19t-75 -7.5q-63 0 -102.5 17t-61.5 48t-30 75t-8 98v281h105v-289q0 -35 4.5 -61t18 -43.5t38.5 -26.5t66 -9q40 0 66 9.5t40 28t19.5 45.5t5.5 62v284h108v-512h-59z" />
    <glyph glyph-name="v" unicode="v" horiz-adv-x="536" 
d="M324 0h-122l-207 512h117l152 -422l156 422h121z" />
    <glyph glyph-name="w" unicode="w" horiz-adv-x="806" 
d="M642 0h-123l-122 401l-120 -401h-117l-150 512h116l98 -412l121 412h105l127 -415l104 415h115z" />
    <glyph glyph-name="x" unicode="x" horiz-adv-x="540" 
d="M412 0l-142 206l-143 -206h-130l215 265l-201 247h123l135 -186l137 186h120l-200 -247l215 -265h-129z" />
    <glyph glyph-name="y" unicode="y" horiz-adv-x="572" 
d="M520 -4q0 -37 -9 -73.5t-34.5 -65t-72.5 -46.5t-123 -18q-71 0 -117 13.5t-72.5 36.5t-37 55t-10.5 70h106q1 -20 6 -37t19 -29.5t39.5 -19.5t67.5 -7t68 9.5t40.5 25t19 36.5t4.5 45v67q-17 -27 -54.5 -46t-108.5 -19q-63 0 -102 17t-61 48t-30 75t-8 99v280h105v-289
q0 -34 4.5 -60t18 -44t38 -27t65.5 -9t67 9.5t40.5 28.5t20 45.5t5.5 61.5v284h106v-516z" />
    <glyph glyph-name="z" unicode="z" horiz-adv-x="495" 
d="M34 0v91l301 334h-300v87h416v-92l-306 -333h316v-87h-427z" />
    <glyph glyph-name="braceleft" unicode="{" horiz-adv-x="376" 
d="M136 -69v353h-107v80h107v342h228v-81h-132v-613h132v-81h-228z" />
    <glyph glyph-name="bar" unicode="|" horiz-adv-x="211" 
d="M57 -66v773h97v-773h-97z" />
    <glyph glyph-name="braceright" unicode="}" horiz-adv-x="376" 
d="M240 284v-353h-228v81h132v613h-132v81h228v-342h107v-80h-107z" />
    <glyph glyph-name="asciitilde" unicode="~" horiz-adv-x="570" 
d="M550 379q0 -29 -6.5 -53t-23 -41t-44 -26.5t-69.5 -9.5q-27 0 -56 11.5t-56.5 26t-51.5 26t-42 11.5q-35 0 -47.5 -18t-12.5 -47h-100q-1 3 -1 7v11q0 25 7 50t24 44.5t45 32t69 12.5q28 0 55 -11.5t53 -26t50 -26t46 -11.5q34 0 47 18t13 47h100v-10q0 -5 0.5 -9t0.5 -8
z" />
    <glyph glyph-name="uni00A0" unicode="&#xa0;" horiz-adv-x="225" 
 />
    <glyph glyph-name="exclamdown" unicode="&#xa1;" horiz-adv-x="192" 
d="M175 583q0 -39 -21.5 -52t-56.5 -13t-56 13t-21 52q0 38 21 51t56 13t56.5 -13t21.5 -51zM49 0v262l15 208h65l16 -208v-262h-96z" />
    <glyph glyph-name="cent" unicode="&#xa2;" 
d="M515 200q0 -85 -43 -139t-135 -65v-127h-96v126q-62 7 -102 31t-64 59t-33.5 79t-9.5 91t10 91.5t34 80t64 59t101 29.5v122h96v-122q91 -14 134.5 -68.5t43.5 -139.5h-109q-5 60 -32.5 91.5t-91.5 31.5q-41 0 -68.5 -13.5t-43.5 -36.5t-22.5 -55t-6.5 -69
q0 -36 6.5 -67.5t22.5 -55t44 -36.5t70 -13q64 0 90.5 30t31.5 86h109z" />
    <glyph glyph-name="sterling" unicode="&#xa3;" horiz-adv-x="579" 
d="M27 0v90q27 0 44.5 10.5t27.5 30t14 46t4 58.5v42h-87v89h87v75q0 43 10 81t34.5 65.5t65.5 43.5t103 16q64 0 105 -14.5t64.5 -42t32 -66.5t8.5 -88h-104q0 65 -23 91.5t-83 26.5q-57 0 -80.5 -27t-23.5 -86v-75h273v-89h-273v-42q0 -40 -7.5 -67.5t-16.5 -44.5
q-11 -20 -23 -33h361v-90h-513z" />
    <glyph glyph-name="yen" unicode="&#xa5;" horiz-adv-x="607" 
d="M402 284h174v-88h-220v-196h-115v196h-212v88h167l-197 356h116l186 -350l193 350h115z" />
    <glyph glyph-name="brokenbar" unicode="&#xa6;" horiz-adv-x="211" 
d="M57 381v326h97v-326h-97zM57 -66v333h97v-333h-97z" />
    <glyph glyph-name="section" unicode="&#xa7;" horiz-adv-x="511" 
d="M495 271q0 -34 -18 -63.5t-56 -49.5q25 -15 39.5 -38t14.5 -55q0 -34 -12.5 -63t-39.5 -50t-69.5 -33t-102.5 -12q-62 0 -105 14t-69.5 39t-38.5 60t-12 77h100q1 -25 8 -44.5t22 -33t39 -21t59 -7.5q64 0 89.5 19.5t25.5 45.5q0 25 -26.5 38t-66 22.5t-86 18.5t-86 26
t-66 45.5t-26.5 76.5q0 33 17.5 62.5t55.5 50.5q-23 15 -38 37.5t-15 56.5t12.5 62.5t39.5 49.5t69.5 33t102.5 12q62 0 105 -14t69.5 -39t38.5 -60t12 -77h-100q-3 49 -30 77.5t-97 28.5q-33 0 -55 -5.5t-35.5 -14.5t-19 -20.5t-5.5 -24.5q0 -25 26.5 -38t66 -22
t85.5 -18.5t85.5 -26.5t66 -45.5t26.5 -76.5zM390 271q0 23 -19.5 36.5t-50 22.5t-69 15.5t-75.5 15.5q-33 -14 -46 -37.5t-13 -40.5q0 -23 19.5 -36.5t50 -22.5t68.5 -15.5t75 -15.5q34 14 47 37.5t13 40.5z" />
    <glyph glyph-name="dieresis" unicode="&#xa8;" horiz-adv-x="522" 
d="M432 622q0 -35 -18 -46.5t-50 -11.5q-34 0 -53 11.5t-19 46.5q0 36 19 47t53 11q32 0 50 -11t18 -47zM231 622q0 -35 -18.5 -46.5t-50.5 -11.5q-34 0 -52.5 11.5t-18.5 46.5q0 36 18.5 47t52.5 11q32 0 50.5 -11t18.5 -47z" />
    <glyph glyph-name="copyright" unicode="&#xa9;" horiz-adv-x="911" 
d="M865 320q0 -84 -18.5 -159t-65 -131t-125.5 -88.5t-201 -32.5t-201 32.5t-125.5 88.5t-65 131t-18.5 160q0 84 19 158.5t65.5 130.5t126 88.5t199.5 32.5q122 0 201 -32.5t125.5 -89t65 -131t18.5 -158.5zM766 320q0 70 -14 129.5t-49.5 103t-95.5 68.5t-152 25
q-91 0 -151 -25t-95.5 -68.5t-50 -103.5t-14.5 -129q0 -70 14.5 -129.5t49.5 -103t95 -68.5t152 -25t152 25t95.5 68.5t49.5 103t14 129.5zM647 279q0 -88 -46.5 -136t-140.5 -48q-60 0 -100 18t-64 48t-34.5 70t-10.5 85t10 86t34 71.5t63.5 48.5t98.5 18q94 0 142 -49
t48 -137h-92q-5 54 -28 78t-71 24q-60 0 -86 -36t-26 -101q0 -66 26 -102.5t86 -36.5q48 0 71.5 23.5t27.5 75.5h92z" />
    <glyph glyph-name="ordfeminine" unicode="&#xaa;" horiz-adv-x="551" 
d="M452 127l-22 78q-9 -15 -26.5 -30t-42.5 -26.5t-57.5 -19t-72.5 -7.5q-41 0 -77.5 9t-63.5 28.5t-43 48.5t-16 70q0 36 12 61.5t38 43t66.5 28.5t96.5 17l161 19q-1 28 -7.5 49.5t-21.5 36t-40 22t-64 7.5q-36 0 -59 -7t-37 -20.5t-19.5 -32t-5.5 -42.5h-104
q0 39 9.5 73.5t35 59.5t68.5 39.5t111 14.5q78 0 125.5 -16.5t72.5 -46t33 -71.5t8 -93v-293h-58zM405 363l-145 -16q-67 -8 -93 -22.5t-26 -44.5q0 -75 115 -75q71 0 110 37.5t39 105.5v15z" />
    <glyph glyph-name="guillemotleft" unicode="&#xab;" horiz-adv-x="474" 
d="M341 42l-104 213l104 214h106l-103 -214l103 -213h-106zM131 42l-105 213l105 214h106l-103 -214l103 -213h-106z" />
    <glyph glyph-name="uni00AD" unicode="&#xad;" horiz-adv-x="374" 
d="M40 214v88h294v-88h-294z" />
    <glyph glyph-name="registered" unicode="&#xae;" horiz-adv-x="911" 
d="M865 320q0 -84 -18.5 -159t-65 -131t-125.5 -88.5t-201 -32.5t-201 32.5t-125.5 88.5t-65 131t-18.5 160q0 84 18.5 158.5t65 130.5t126 88.5t200.5 32.5q122 0 201 -32.5t125.5 -89t65 -131t18.5 -158.5zM766 320q0 70 -14 129.5t-49.5 103t-95.5 68.5t-152 25
q-91 0 -151 -25t-95.5 -68.5t-50 -103.5t-14.5 -129q0 -70 14.5 -129.5t49.5 -103t95 -68.5t152 -25t152 25t95.5 68.5t49.5 103t14 129.5zM521 107l-144 153v-153h-91v422h165q64 0 102 -13.5t57.5 -33.5t25.5 -44.5t6 -45.5q0 -15 -4 -36t-18 -39.5t-42.5 -31.5t-76.5 -13
h-37l185 -165h-128zM550 392q0 10 -3 21.5t-12.5 21t-28.5 15.5t-51 6h-78v-126h79q33 0 52 6t28 15t11.5 20t2.5 21z" />
    <glyph glyph-name="macron" unicode="&#xaf;" horiz-adv-x="522" 
d="M42 577v88h439v-88h-439z" />
    <glyph glyph-name="degree" unicode="&#xb0;" horiz-adv-x="517" 
d="M486 417q0 -45 -8.5 -87t-33.5 -73.5t-69.5 -50.5t-117.5 -19q-72 0 -116 19t-68.5 51t-32.5 73.5t-8 86.5t8.5 86.5t33 73.5t69 51t116.5 19t116.5 -19t69 -51t33 -73.5t8.5 -86.5zM391 417q0 29 -5 54.5t-19.5 44.5t-40 30t-67.5 11q-41 0 -66.5 -11t-40 -30t-20 -44.5
t-5.5 -54.5q0 -30 5.5 -55.5t20 -44.5t39.5 -30t65 -11q41 0 67 11t41 29.5t20.5 44.5t5.5 56z" />
    <glyph glyph-name="acute" unicode="&#xb4;" horiz-adv-x="551" 
d="M491 621l-431 -70v89l431 70v-89z" />
    <glyph glyph-name="mu" unicode="&#xb5;" horiz-adv-x="565" 
d="M521 0h-59l-22 74q-22 -42 -58 -61.5t-84 -19.5q-56 0 -89 19.5t-51 52.5v-265h-106v712h106v-279q0 -36 6 -63.5t20.5 -47t39.5 -29.5t63 -10q39 0 63.5 10t39 29.5t20 47.5t5.5 63v279h106v-512z" />
    <glyph glyph-name="mu" unicode="&#x3bc;" horiz-adv-x="565" 
d="M521 0h-59l-22 74q-22 -42 -58 -61.5t-84 -19.5q-56 0 -89 19.5t-51 52.5v-265h-106v712h106v-279q0 -36 6 -63.5t20.5 -47t39.5 -29.5t63 -10q39 0 63.5 10t39 29.5t20 47.5t5.5 63v279h106v-512z" />
    <glyph glyph-name="paragraph" unicode="&#xb6;" horiz-adv-x="390" 
d="M324 0h-110l1 399h-59q-32 0 -55 9.5t-38.5 26t-23 38.5t-7.5 46q0 25 8 47t23.5 38.5t38.5 26t53 9.5h169v-640z" />
    <glyph glyph-name="periodcentered" unicode="&#xb7;" horiz-adv-x="205" 
d="M177 321q0 -38 -20 -50t-55 -12t-55.5 12t-20.5 50q0 40 20.5 52t55.5 12t55 -12t20 -52z" />
    <glyph glyph-name="cedilla" unicode="&#xb8;" horiz-adv-x="560" 
d="M359 0q0 -47 -10.5 -77t-30 -47.5t-46 -24t-57.5 -6.5h-164v86h150q36 0 48.5 19.5t12.5 49.5h97v0z" />
    <glyph glyph-name="ordmasculine" unicode="&#xba;" horiz-adv-x="571" 
d="M540 386q0 -52 -11.5 -99.5t-41 -84t-78.5 -58t-124 -21.5t-124 22t-77.5 59t-40 84t-11.5 98t11.5 98t40 83t78 58t124.5 22t124 -22t78 -58t40.5 -83t11.5 -98zM431 386q0 36 -5.5 67.5t-21.5 55t-44.5 37.5t-73.5 14t-73 -13.5t-44 -37.5t-22 -55.5t-6 -67.5
q0 -37 6 -69t22 -55.5t44 -37t72 -13.5q45 0 73.5 13.5t44.5 37t22 55.5t6 69z" />
    <glyph glyph-name="guillemotright" unicode="&#xbb;" horiz-adv-x="474" 
d="M344 42h-107l103 213l-103 214h107l103 -214zM134 42h-108l104 213l-104 214h108l103 -214z" />
    <glyph glyph-name="questiondown" unicode="&#xbf;" horiz-adv-x="562" 
d="M65 201q0 58 22.5 96.5t55 61t70 32t67.5 9.5h19l16 68h91v-150h-80q-153 -3 -153 -117q0 -24 7 -44.5t22.5 -36.5t39.5 -25t58 -9q74 0 107 34.5t33 97.5h106q0 -48 -13 -89.5t-42 -71.5t-75 -47t-112 -17q-64 0 -109 16t-74 44.5t-42.5 66t-13.5 81.5zM283 582
q0 39 21 52t55 13q35 0 57 -13t22 -52t-22 -51t-57 -12q-34 0 -55 12t-21 51z" />
    <glyph glyph-name="Agrave" unicode="&#xc0;" horiz-adv-x="631" 
d="M517 0l-43 125h-314l-46 -125h-115l246 640h149l240 -640h-117zM317 569l-130 -364h259zM102 746v87l430 -67v-89z" />
    <glyph glyph-name="Aacute" unicode="&#xc1;" horiz-adv-x="631" 
d="M517 0l-43 125h-314l-46 -125h-115l246 640h149l240 -640h-117zM317 569l-130 -364h259zM531 748l-431 -70v89l431 70v-89z" />
    <glyph glyph-name="Acircumflex" unicode="&#xc2;" horiz-adv-x="631" 
d="M517 0l-43 125h-314l-46 -125h-115l246 640h149l240 -640h-117zM317 569l-130 -364h259zM533 764v-88l-216 83l-216 -83v88l216 84z" />
    <glyph glyph-name="Atilde" unicode="&#xc3;" horiz-adv-x="631" 
d="M517 0l-43 125h-314l-46 -125h-115l246 640h149l240 -640h-117zM317 569l-130 -364h259zM558 811q0 -28 -5 -51t-19.5 -40t-39.5 -26.5t-65 -9.5q-34 0 -63 11t-54.5 24.5t-48 25t-43.5 11.5q-34 0 -45.5 -16.5t-13.5 -47.5h-80q-1 3 -1 7v12q0 24 5.5 47.5t20 42t40 30
t65.5 11.5q33 0 60 -11t51 -24t47 -24t49 -11q20 0 31.5 4.5t17.5 12.5t7.5 19.5t1.5 25.5h80q0 -4 1 -8q0 -4 0.5 -7.5t0.5 -7.5z" />
    <glyph glyph-name="Adieresis" unicode="&#xc4;" horiz-adv-x="631" 
d="M517 0l-43 125h-314l-46 -125h-115l246 640h149l240 -640h-117zM317 569l-130 -364h259zM492 749q0 -35 -18 -46.5t-50 -11.5q-34 0 -53 11.5t-19 46.5q0 36 19 47t53 11q32 0 50 -11t18 -47zM291 749q0 -35 -18.5 -46.5t-50.5 -11.5q-34 0 -52.5 11.5t-18.5 46.5
q0 36 18.5 47t52.5 11q32 0 50.5 -11t18.5 -47z" />
    <glyph glyph-name="Aring" unicode="&#xc5;" horiz-adv-x="631" 
d="M517 0l-43 125h-314l-46 -125h-115l246 640h149l240 -640h-117zM317 569l-130 -364h259zM467 796q0 -62 -33 -89.5t-116 -27.5q-43 0 -71.5 6.5t-46 21t-25 36.5t-7.5 53q0 30 7.5 52t25 36t46 20.5t71.5 6.5q82 0 115.5 -27t33.5 -88zM386 796q0 28 -18 35t-50 7
q-33 0 -51 -7t-18 -35q0 -29 18 -36.5t51 -7.5q31 0 49.5 7.5t18.5 36.5z" />
    <glyph glyph-name="AE" unicode="&#xc6;" horiz-adv-x="975" 
d="M492 0v125h-296l-87 -125h-117l438 640h507v-91h-335v-178h305v-89h-305v-191h335v-91h-445zM492 552l-242 -347h242v347z" />
    <glyph glyph-name="Ccedilla" unicode="&#xc7;" horiz-adv-x="667" 
d="M629 246q0 -49 -13 -92t-41.5 -76.5t-74 -55t-111.5 -27.5q-1 -44 -12.5 -72.5t-30.5 -44.5t-45 -22t-56 -6h-131v86h117q33 0 45.5 16.5t14.5 43.5q-75 7 -122.5 35.5t-75 72.5t-38 99.5t-10.5 116.5q0 66 12.5 125t45.5 104t90.5 71.5t146.5 26.5q79 0 134 -20.5
t89.5 -55t50 -80t15.5 -95.5h-113q-2 34 -12.5 63t-31.5 50.5t-53.5 34t-78.5 12.5q-57 0 -92.5 -18.5t-55.5 -50.5t-27.5 -75t-7.5 -92t7.5 -92t27.5 -75t55.5 -50.5t92.5 -18.5q47 0 79.5 12t53 33.5t31 51t12.5 65.5h113v0z" />
    <glyph glyph-name="Egrave" unicode="&#xc8;" 
d="M66 0v640h445v-90h-336v-179h305v-89h-305v-192h336v-90h-445zM73 747v87l430 -67v-89z" />
    <glyph glyph-name="Eacute" unicode="&#xc9;" 
d="M66 0v640h445v-90h-336v-179h305v-89h-305v-192h336v-90h-445zM507 749l-431 -70v89l431 70v-89z" />
    <glyph glyph-name="Ecircumflex" unicode="&#xca;" 
d="M66 0v640h445v-90h-336v-179h305v-89h-305v-192h336v-90h-445zM503 765v-88l-216 83l-216 -83v88l216 84z" />
    <glyph glyph-name="Edieresis" unicode="&#xcb;" 
d="M66 0v640h445v-90h-336v-179h305v-89h-305v-192h336v-90h-445zM456 750q0 -35 -18 -46.5t-50 -11.5q-34 0 -53 11.5t-19 46.5q0 36 19 47t53 11q32 0 50 -11t18 -47zM255 750q0 -35 -18.5 -46.5t-50.5 -11.5q-34 0 -52.5 11.5t-18.5 46.5q0 36 18.5 47t52.5 11
q32 0 50.5 -11t18.5 -47z" />
    <glyph glyph-name="Igrave" unicode="&#xcc;" horiz-adv-x="241" 
d="M34 736v89l175 -53v-88zM66 0v640h110v-640h-110z" />
    <glyph glyph-name="Iacute" unicode="&#xcd;" horiz-adv-x="241" 
d="M34 684v88l175 53v-89zM66 0v640h110v-640h-110z" />
    <glyph glyph-name="Icircumflex" unicode="&#xce;" horiz-adv-x="240" 
d="M230 777v-97l-110 69l-111 -69v97l111 68zM66 0v640h110v-640h-110z" />
    <glyph glyph-name="Idieresis" unicode="&#xcf;" horiz-adv-x="240" 
d="M66 0v640h110v-640h-110zM291 752q0 -35 -18 -46.5t-50 -11.5q-34 0 -53 11.5t-19 46.5q0 36 19 47t53 11q32 0 50 -11t18 -47zM90 752q0 -35 -18.5 -46.5t-50.5 -11.5q-34 0 -52.5 11.5t-18.5 46.5q0 36 18.5 47t52.5 11q32 0 50.5 -11t18.5 -47z" />
    <glyph glyph-name="Eth" unicode="&#xd0;" horiz-adv-x="667" 
d="M624 324q0 -76 -19 -136t-56.5 -102t-93.5 -64t-129 -22h-234v281h-67v88h67v271h245q145 0 216 -80.5t71 -235.5zM516 325q0 65 -12 108.5t-37.5 69.5t-64 36.5t-90.5 10.5h-110v-181h128v-88h-128v-191h104q54 0 93.5 12.5t65.5 40t38.5 72.5t12.5 110z" />
    <glyph glyph-name="Ntilde" unicode="&#xd1;" horiz-adv-x="716" 
d="M514 0l-335 500v-500h-110v640h141l330 -496v496h110v-640h-136zM603 826q0 -28 -5 -51t-19.5 -40t-39.5 -26.5t-65 -9.5q-34 0 -63 11t-54.5 24.5t-48 25t-43.5 11.5q-34 0 -45.5 -16.5t-13.5 -47.5h-80q-1 3 -1 7v12q0 24 5.5 47.5t20 42t40 30t65.5 11.5q33 0 60 -11
t51 -24t47 -24t49 -11q20 0 31.5 4.5t17.5 12.5t7.5 19.5t1.5 25.5h80q0 -4 1 -8q0 -4 0.5 -7.5t0.5 -7.5z" />
    <glyph glyph-name="Ograve" unicode="&#xd2;" horiz-adv-x="700" 
d="M655 319q0 -65 -13 -124t-47 -104t-93 -71.5t-152 -26.5q-92 0 -151.5 26.5t-93.5 71.5t-47 104.5t-13 125.5t13 125t47.5 103.5t93.5 71t151 26.5q93 0 152 -26.5t93 -71.5t47 -104.5t13 -125.5zM544 319q0 50 -7.5 93t-29 75t-59.5 50.5t-98 18.5t-97.5 -18.5
t-58.5 -50t-29 -74.5t-8 -92q0 -50 8 -93t29 -75t58.5 -50.5t97.5 -18.5t98 18.5t59.5 50.5t29 74.5t7.5 91.5zM136 751v87l430 -67v-89z" />
    <glyph glyph-name="Oacute" unicode="&#xd3;" horiz-adv-x="700" 
d="M655 319q0 -65 -13 -124t-47 -104t-93 -71.5t-152 -26.5q-92 0 -151.5 26.5t-93.5 71.5t-47 104.5t-13 125.5t13 125t47.5 103.5t93.5 71t151 26.5q93 0 152 -26.5t93 -71.5t47 -104.5t13 -125.5zM544 319q0 50 -7.5 93t-29 75t-59.5 50.5t-98 18.5t-97.5 -18.5
t-58.5 -50t-29 -74.5t-8 -92q0 -50 8 -93t29 -75t58.5 -50.5t97.5 -18.5t98 18.5t59.5 50.5t29 74.5t7.5 91.5zM563 752l-431 -70v89l431 70v-89z" />
    <glyph glyph-name="Ocircumflex" unicode="&#xd4;" horiz-adv-x="700" 
d="M655 319q0 -65 -13 -124t-47 -104t-93 -71.5t-152 -26.5q-92 0 -151.5 26.5t-93.5 71.5t-47 104.5t-13 125.5t13 125t47.5 103.5t93.5 71t151 26.5q93 0 152 -26.5t93 -71.5t47 -104.5t13 -125.5zM544 319q0 50 -7.5 93t-29 75t-59.5 50.5t-98 18.5t-97.5 -18.5
t-58.5 -50t-29 -74.5t-8 -92q0 -50 8 -93t29 -75t58.5 -50.5t97.5 -18.5t98 18.5t59.5 50.5t29 74.5t7.5 91.5zM571 771v-88l-216 83l-216 -83v88l216 84z" />
    <glyph glyph-name="Otilde" unicode="&#xd5;" horiz-adv-x="700" 
d="M655 319q0 -65 -13 -124t-47 -104t-93 -71.5t-152 -26.5q-92 0 -151.5 26.5t-93.5 71.5t-47 104.5t-13 125.5t13 125t47.5 103.5t93.5 71t151 26.5q93 0 152 -26.5t93 -71.5t47 -104.5t13 -125.5zM544 319q0 50 -7.5 93t-29 75t-59.5 50.5t-98 18.5t-97.5 -18.5
t-58.5 -50t-29 -74.5t-8 -92q0 -50 8 -93t29 -75t58.5 -50.5t97.5 -18.5t98 18.5t59.5 50.5t29 74.5t7.5 91.5zM595 820q0 -28 -5 -51t-19.5 -40t-39.5 -26.5t-65 -9.5q-34 0 -63 11t-54.5 24.5t-48 25t-43.5 11.5q-34 0 -45.5 -16.5t-13.5 -47.5h-80q-1 3 -1 7v12
q0 24 5.5 47.5t20 42t40 30t65.5 11.5q33 0 60 -11t51 -24t47 -24t49 -11q20 0 31.5 4.5t17.5 12.5t7.5 19.5t1.5 25.5h80q0 -4 1 -8q0 -4 0.5 -7.5t0.5 -7.5z" />
    <glyph glyph-name="Odieresis" unicode="&#xd6;" horiz-adv-x="700" 
d="M655 319q0 -65 -13 -124t-47 -104t-93 -71.5t-152 -26.5q-92 0 -151.5 26.5t-93.5 71.5t-47 104.5t-13 125.5t13 125t47.5 103.5t93.5 71t151 26.5q93 0 152 -26.5t93 -71.5t47 -104.5t13 -125.5zM544 319q0 50 -7.5 93t-29 75t-59.5 50.5t-98 18.5t-97.5 -18.5
t-58.5 -50t-29 -74.5t-8 -92q0 -50 8 -93t29 -75t58.5 -50.5t97.5 -18.5t98 18.5t59.5 50.5t29 74.5t7.5 91.5zM523 754q0 -35 -18 -46.5t-50 -11.5q-34 0 -53 11.5t-19 46.5q0 36 19 47t53 11q32 0 50 -11t18 -47zM322 754q0 -35 -18.5 -46.5t-50.5 -11.5q-34 0 -52.5 11.5
t-18.5 46.5q0 36 18.5 47t52.5 11q32 0 50.5 -11t18.5 -47z" />
    <glyph glyph-name="multiply" unicode="&#xd7;" horiz-adv-x="540" 
d="M412 0l-142 206l-143 -206h-130l215 265l-201 247h123l135 -186l137 186h120l-200 -247l215 -265h-129z" />
    <glyph glyph-name="Oslash" unicode="&#xd8;" horiz-adv-x="701" 
d="M514 615q41 -20 68.5 -51t43.5 -69.5t22.5 -83t6.5 -92.5q0 -65 -13 -124t-47 -104t-93 -71.5t-152 -26.5q-20 0 -38 1.5t-35 3.5l-26 -68h-102l37 95q-41 20 -68.5 51t-43.5 69.5t-22.5 83t-6.5 92.5q0 66 13 125t47.5 103.5t93.5 71t151 26.5q39 0 74 -6l26 69h101z
M544 319q0 64 -13.5 116.5t-53.5 83.5l-166 -433q9 -1 18.5 -1.5t20.5 -0.5q60 0 98 18.5t59.5 50.5t29 74.5t7.5 91.5zM157 321q0 -64 13.5 -116t52.5 -84l167 432q-20 3 -40 3q-60 0 -97.5 -18.5t-58.5 -50t-29 -74.5t-8 -92z" />
    <glyph glyph-name="Ugrave" unicode="&#xd9;" horiz-adv-x="654" 
d="M600 287q0 -78 -15 -134t-48 -91.5t-85 -52t-125 -16.5t-124.5 16.5t-84.5 52t-48 91.5t-15 134v353h111v-348q0 -50 6.5 -87.5t24.5 -63t49.5 -38.5t80.5 -13t80.5 13t49.5 38.5t25 63t7 87.5v348h111v-353zM112 760v87l430 -67v-89z" />
    <glyph glyph-name="Uacute" unicode="&#xda;" horiz-adv-x="654" 
d="M600 287q0 -78 -15 -134t-48 -91.5t-85 -52t-125 -16.5t-124.5 16.5t-84.5 52t-48 91.5t-15 134v353h111v-348q0 -50 6.5 -87.5t24.5 -63t49.5 -38.5t80.5 -13t80.5 13t49.5 38.5t25 63t7 87.5v348h111v-353zM537 756l-431 -70v89l431 70v-89z" />
    <glyph glyph-name="Ucircumflex" unicode="&#xdb;" horiz-adv-x="654" 
d="M600 287q0 -78 -15 -134t-48 -91.5t-85 -52t-125 -16.5t-124.5 16.5t-84.5 52t-48 91.5t-15 134v353h111v-348q0 -50 6.5 -87.5t24.5 -63t49.5 -38.5t80.5 -13t80.5 13t49.5 38.5t25 63t7 87.5v348h111v-353zM542 771v-88l-216 83l-216 -83v88l216 84z" />
    <glyph glyph-name="Udieresis" unicode="&#xdc;" horiz-adv-x="654" 
d="M600 287q0 -78 -15 -134t-48 -91.5t-85 -52t-125 -16.5t-124.5 16.5t-84.5 52t-48 91.5t-15 134v353h111v-348q0 -50 6.5 -87.5t24.5 -63t49.5 -38.5t80.5 -13t80.5 13t49.5 38.5t25 63t7 87.5v348h111v-353zM499 754q0 -35 -18 -46.5t-50 -11.5q-34 0 -53 11.5t-19 46.5
q0 36 19 47t53 11q32 0 50 -11t18 -47zM298 754q0 -35 -18.5 -46.5t-50.5 -11.5q-34 0 -52.5 11.5t-18.5 46.5q0 36 18.5 47t52.5 11q32 0 50.5 -11t18.5 -47z" />
    <glyph glyph-name="Yacute" unicode="&#xdd;" horiz-adv-x="607" 
d="M356 194v-194h-115v194l-242 446h116l185 -361l194 361h115zM518 755l-431 -70v89l431 70v-89z" />
    <glyph glyph-name="Thorn" unicode="&#xde;" horiz-adv-x="605" 
d="M564 327q0 -33 -6 -68.5t-31.5 -65t-77.5 -49t-144 -19.5h-129v-125h-110v640h110v-104h121q92 0 145 -20t80 -51t34.5 -68t7.5 -70zM451 327q0 20 -4.5 41t-20 38.5t-45 28.5t-80.5 11h-125v-234h128q50 0 79 10.5t44 27t19.5 37t4.5 40.5z" />
    <glyph glyph-name="germandbls" unicode="&#xdf;" horiz-adv-x="736" 
d="M721 149q0 -29 -12.5 -57t-39.5 -50t-70 -35.5t-103 -13.5q-131 0 -189 52t-58 151h105q0 -54 32.5 -83t107.5 -29q68 0 94.5 17.5t27.5 40.5q1 28 -25 43t-65.5 24.5t-86.5 18t-87 24t-66.5 42t-26.5 72.5q0 71 50 110.5t140 38.5v20q0 22 -5.5 37.5t-20 25t-40.5 14
t-68 4.5q-35 0 -59 -4t-38.5 -14.5t-21 -29t-6.5 -48.5v-520h-108v429h-71v61l71 22q1 60 13 99t38 62t68.5 32.5t104.5 9.5q135 0 191.5 -40.5t56.5 -124.5v-119q-10 0 -23.5 0.5t-29.5 0.5q-22 0 -46 -2t-44 -8t-33 -18t-13 -32q0 -24 26.5 -36.5t66 -21.5t85.5 -17.5
t85.5 -25.5t66 -45.5t26.5 -76.5z" />
    <glyph glyph-name="agrave" unicode="&#xe0;" horiz-adv-x="549" 
d="M452 0l-22 77q-9 -15 -26.5 -30t-43 -27t-58.5 -19.5t-73 -7.5q-41 0 -77 9.5t-63 28.5t-42.5 48.5t-15.5 70.5q0 71 51.5 105.5t161.5 45.5l161 16q-1 28 -7.5 49.5t-21.5 36.5t-40 23t-64 8q-36 0 -59 -7t-37 -20t-19.5 -32t-5.5 -43l-104 -1q0 40 9.5 74t35 59.5
t68.5 40t111 14.5q78 0 125.5 -16t72.5 -46t33 -72t8 -94v-291h-58zM405 236l-145 -16q-67 -8 -93 -23.5t-26 -45.5q0 -35 29 -54.5t86 -19.5q71 0 110 38t39 105v16zM60 619v87l430 -67v-89z" />
    <glyph glyph-name="aacute" unicode="&#xe1;" horiz-adv-x="549" 
d="M452 0l-22 77q-9 -15 -26.5 -30t-43 -27t-58.5 -19.5t-73 -7.5q-41 0 -77 9.5t-63 28.5t-42.5 48.5t-15.5 70.5q0 71 51.5 105.5t161.5 45.5l161 16q-1 28 -7.5 49.5t-21.5 36.5t-40 23t-64 8q-36 0 -59 -7t-37 -20t-19.5 -32t-5.5 -43l-104 -1q0 40 9.5 74t35 59.5
t68.5 40t111 14.5q78 0 125.5 -16t72.5 -46t33 -72t8 -94v-291h-58zM405 236l-145 -16q-67 -8 -93 -23.5t-26 -45.5q0 -35 29 -54.5t86 -19.5q71 0 110 38t39 105v16zM490 621l-431 -70v89l431 70v-89z" />
    <glyph glyph-name="acircumflex" unicode="&#xe2;" horiz-adv-x="549" 
d="M452 0l-22 77q-9 -15 -26.5 -30t-43 -27t-58.5 -19.5t-73 -7.5q-41 0 -77 9.5t-63 28.5t-42.5 48.5t-15.5 70.5q0 71 51.5 105.5t161.5 45.5l161 16q-1 28 -7.5 49.5t-21.5 36.5t-40 23t-64 8q-36 0 -59 -7t-37 -20t-19.5 -32t-5.5 -43l-104 -1q0 40 9.5 74t35 59.5
t68.5 40t111 14.5q78 0 125.5 -16t72.5 -46t33 -72t8 -94v-291h-58zM405 236l-145 -16q-67 -8 -93 -23.5t-26 -45.5q0 -35 29 -54.5t86 -19.5q71 0 110 38t39 105v16zM491 637v-88l-216 83l-216 -83v88l216 84z" />
    <glyph glyph-name="atilde" unicode="&#xe3;" horiz-adv-x="549" 
d="M452 0l-22 77q-9 -15 -26.5 -30t-43 -27t-58.5 -19.5t-73 -7.5q-41 0 -77 9.5t-63 28.5t-42.5 48.5t-15.5 70.5q0 71 51.5 105.5t161.5 45.5l161 16q-1 28 -7.5 49.5t-21.5 36.5t-40 23t-64 8q-36 0 -59 -7t-37 -20t-19.5 -32t-5.5 -43l-104 -1q0 40 9.5 74t35 59.5
t68.5 40t111 14.5q78 0 125.5 -16t72.5 -46t33 -72t8 -94v-291h-58zM405 236l-145 -16q-67 -8 -93 -23.5t-26 -45.5q0 -35 29 -54.5t86 -19.5q71 0 110 38t39 105v16zM514 689q0 -28 -5 -51t-19.5 -40t-39.5 -26.5t-65 -9.5q-34 0 -63 11t-54.5 24.5t-48 25t-43.5 11.5
q-34 0 -45.5 -16.5t-13.5 -47.5h-80q-1 3 -1 7v12q0 24 5.5 47.5t20 42t40 30t65.5 11.5q33 0 60 -11t51 -24t47 -24t49 -11q20 0 31.5 4.5t17.5 12.5t7.5 19.5t1.5 25.5h80q0 -4 1 -8q0 -4 0.5 -7.5t0.5 -7.5z" />
    <glyph glyph-name="adieresis" unicode="&#xe4;" horiz-adv-x="549" 
d="M452 0l-22 77q-9 -15 -26.5 -30t-43 -27t-58.5 -19.5t-73 -7.5q-41 0 -77 9.5t-63 28.5t-42.5 48.5t-15.5 70.5q0 71 51.5 105.5t161.5 45.5l161 16q-1 28 -7.5 49.5t-21.5 36.5t-40 23t-64 8q-36 0 -59 -7t-37 -20t-19.5 -32t-5.5 -43l-104 -1q0 40 9.5 74t35 59.5
t68.5 40t111 14.5q78 0 125.5 -16t72.5 -46t33 -72t8 -94v-291h-58zM405 236l-145 -16q-67 -8 -93 -23.5t-26 -45.5q0 -35 29 -54.5t86 -19.5q71 0 110 38t39 105v16zM446 622q0 -35 -18 -46.5t-50 -11.5q-34 0 -53 11.5t-19 46.5q0 36 19 47t53 11q32 0 50 -11t18 -47z
M245 622q0 -35 -18.5 -46.5t-50.5 -11.5q-34 0 -52.5 11.5t-18.5 46.5q0 36 18.5 47t52.5 11q32 0 50.5 -11t18.5 -47z" />
    <glyph glyph-name="aring" unicode="&#xe5;" horiz-adv-x="549" 
d="M452 0l-22 77q-9 -15 -26.5 -30t-43 -27t-58.5 -19.5t-73 -7.5q-41 0 -77 9.5t-63 28.5t-42.5 48.5t-15.5 70.5q0 71 51.5 105.5t161.5 45.5l161 16q-1 28 -7.5 49.5t-21.5 36.5t-40 23t-64 8q-36 0 -59 -7t-37 -20t-19.5 -32t-5.5 -43l-104 -1q0 40 9.5 74t35 59.5
t68.5 40t111 14.5q78 0 125.5 -16t72.5 -46t33 -72t8 -94v-291h-58zM405 236l-145 -16q-67 -8 -93 -23.5t-26 -45.5q0 -35 29 -54.5t86 -19.5q71 0 110 38t39 105v16zM424 669q0 -62 -33 -89.5t-116 -27.5q-43 0 -71.5 6.5t-46 21t-25 36.5t-7.5 53q0 30 7.5 52t25 36
t46 20.5t71.5 6.5q82 0 115.5 -27t33.5 -88zM343 669q0 28 -18 35t-50 7q-33 0 -51 -7t-18 -35q0 -29 18 -36.5t51 -7.5q31 0 49.5 7.5t18.5 36.5z" />
    <glyph glyph-name="ae" unicode="&#xe6;" horiz-adv-x="921" 
d="M887 160q-3 -33 -16.5 -63t-40.5 -53t-69.5 -36.5t-103.5 -13.5q-86 0 -136 28t-75 72q-17 -28 -37 -47t-45.5 -31t-58 -17t-74.5 -5q-41 0 -77.5 9t-63.5 28.5t-43 48.5t-16 70q0 35 12 60.5t38 43.5t66.5 29.5t96.5 17.5l161 14q-1 28 -7.5 50t-21.5 37.5t-40 23.5
t-64 8q-36 0 -59 -7t-37 -20t-19.5 -32t-5.5 -43h-104q0 40 9.5 74t35 59t68.5 39.5t111 14.5q75 0 121.5 -19.5t72.5 -51.5q27 32 73 51.5t118 19.5q64 0 108 -20t71.5 -55t39.5 -82t12 -100q0 -11 -0.5 -23t-1.5 -23h-374q5 -66 39 -101t104 -35q32 0 53.5 6.5t35 18
t21 26t11.5 29.5h112zM405 236l-145 -16q-67 -8 -93 -23.5t-26 -45.5q0 -35 29 -55t86 -20q71 0 110 38.5t39 105.5v16zM775 304q0 26 -6 50t-21 42.5t-40 29.5t-62 11q-38 0 -62.5 -10.5t-40 -29t-22.5 -43.5t-9 -53h263v3z" />
    <glyph glyph-name="ccedilla" unicode="&#xe7;" 
d="M515 200q0 -84 -42.5 -138t-133.5 -66q-1 -45 -12 -73t-30 -44.5t-45 -22.5t-57 -6h-115v86h102q33 0 45.5 16.5t14.5 42.5q-62 6 -102.5 30t-64.5 59.5t-33.5 79.5t-9.5 91q0 51 11.5 98.5t40.5 84.5t78 59t123 22q117 0 173.5 -58t56.5 -154h-109q-5 60 -32.5 92.5
t-91.5 32.5q-41 0 -68.5 -13.5t-43.5 -37.5t-22.5 -56t-6.5 -69q0 -36 6.5 -67.5t22.5 -55t44 -36.5t70 -13q64 0 90.5 30t31.5 86h109v0z" />
    <glyph glyph-name="egrave" unicode="&#xe8;" horiz-adv-x="555" 
d="M521 157q-3 -33 -17 -62.5t-41 -52t-69.5 -36t-102.5 -13.5q-77 0 -127 22t-79 58.5t-40 84.5t-11 99t11.5 98.5t40 84t78 58t126.5 21.5q71 0 117.5 -25t73 -67t35 -97.5t3.5 -115.5h-374q5 -66 39 -102.5t103 -36.5q32 0 53.5 7t35.5 18.5t21.5 26.5t11.5 30h112z
M409 301q0 26 -6.5 50.5t-21.5 43t-40 30t-61 11.5q-38 0 -62.5 -11t-40 -29.5t-22.5 -43.5t-9 -53h263v1v1zM70 619v87l430 -67v-89z" />
    <glyph glyph-name="eacute" unicode="&#xe9;" horiz-adv-x="555" 
d="M521 157q-3 -33 -17 -62.5t-41 -52t-69.5 -36t-102.5 -13.5q-77 0 -127 22t-79 58.5t-40 84.5t-11 99t11.5 98.5t40 84t78 58t126.5 21.5q71 0 117.5 -25t73 -67t35 -97.5t3.5 -115.5h-374q5 -66 39 -102.5t103 -36.5q32 0 53.5 7t35.5 18.5t21.5 26.5t11.5 30h112z
M409 301q0 26 -6.5 50.5t-21.5 43t-40 30t-61 11.5q-38 0 -62.5 -11t-40 -29.5t-22.5 -43.5t-9 -53h263v1v1zM499 621l-431 -70v89l431 70v-89z" />
    <glyph glyph-name="ecircumflex" unicode="&#xea;" horiz-adv-x="555" 
d="M521 157q-3 -33 -17 -62.5t-41 -52t-69.5 -36t-102.5 -13.5q-77 0 -127 22t-79 58.5t-40 84.5t-11 99t11.5 98.5t40 84t78 58t126.5 21.5q71 0 117.5 -25t73 -67t35 -97.5t3.5 -115.5h-374q5 -66 39 -102.5t103 -36.5q32 0 53.5 7t35.5 18.5t21.5 26.5t11.5 30h112z
M409 301q0 26 -6.5 50.5t-21.5 43t-40 30t-61 11.5q-38 0 -62.5 -11t-40 -29.5t-22.5 -43.5t-9 -53h263v1v1zM499 637v-88l-216 83l-216 -83v88l216 84z" />
    <glyph glyph-name="edieresis" unicode="&#xeb;" horiz-adv-x="555" 
d="M521 157q-3 -33 -17 -62.5t-41 -52t-69.5 -36t-102.5 -13.5q-77 0 -127 22t-79 58.5t-40 84.5t-11 99t11.5 98.5t40 84t78 58t126.5 21.5q71 0 117.5 -25t73 -67t35 -97.5t3.5 -115.5h-374q5 -66 39 -102.5t103 -36.5q32 0 53.5 7t35.5 18.5t21.5 26.5t11.5 30h112z
M409 301q0 26 -6.5 50.5t-21.5 43t-40 30t-61 11.5q-38 0 -62.5 -11t-40 -29.5t-22.5 -43.5t-9 -53h263v1v1zM457 622q0 -35 -18 -46.5t-50 -11.5q-34 0 -53 11.5t-19 46.5q0 36 19 47t53 11q32 0 50 -11t18 -47zM256 622q0 -35 -18.5 -46.5t-50.5 -11.5q-34 0 -52.5 11.5
t-18.5 46.5q0 36 18.5 47t52.5 11q32 0 50.5 -11t18.5 -47z" />
    <glyph glyph-name="igrave" unicode="&#xec;" horiz-adv-x="206" 
d="M19 606v89l175 -49v-89zM51 0v512h106v-512h-106z" />
    <glyph glyph-name="iacute" unicode="&#xed;" horiz-adv-x="206" 
d="M19 557v89l175 49v-89zM51 0v512h106v-512h-106z" />
    <glyph glyph-name="icircumflex" unicode="&#xee;" horiz-adv-x="206" 
d="M212 652v-97l-110 69l-111 -69v97l111 68zM51 0v512h106v-512h-106z" />
    <glyph glyph-name="idieresis" unicode="&#xef;" horiz-adv-x="206" 
d="M51 0v512h106v-512h-106zM276 622q0 -35 -18 -46.5t-50 -11.5q-34 0 -53 11.5t-19 46.5q0 36 19 47t53 11q32 0 50 -11t18 -47zM75 622q0 -35 -18.5 -46.5t-50.5 -11.5q-34 0 -52.5 11.5t-18.5 46.5q0 36 18.5 47t52.5 11q32 0 50.5 -11t18.5 -47z" />
    <glyph glyph-name="eth" unicode="&#xf0;" horiz-adv-x="564" 
d="M396 707l12 -16t11 -16l106 30v-68l-69 -20q40 -73 58 -155t18 -186q0 -54 -11 -105t-39.5 -90.5t-78.5 -63.5t-127 -24q-75 0 -123.5 23t-76.5 60t-39 84.5t-11 95.5t10.5 95t37 84.5t71.5 60.5t113 23q58 0 95.5 -21t57.5 -53q-9 41 -23 76.5t-32 67.5l-111 -31v68
l74 21q-11 15 -23.5 30t-25.5 30h126zM424 256q0 39 -7 71t-23.5 55t-44 36t-69.5 13t-70 -12.5t-45 -36t-24 -55.5t-7 -71t7 -71.5t24 -56t44.5 -36t68.5 -12.5q42 0 70 12.5t45 35.5t24 55.5t7 72.5z" />
    <glyph glyph-name="ntilde" unicode="&#xf1;" horiz-adv-x="566" 
d="M416 0v285q0 34 -4 61t-17.5 45.5t-38 28.5t-65.5 10t-66.5 -9.5t-40 -28.5t-20 -46t-5.5 -61v-285h-107v512h58l24 -72q6 13 20 27t36.5 25.5t54.5 19t76 7.5q63 0 102.5 -17.5t61 -49.5t29.5 -77t8 -99v-276h-106zM523 684q0 -28 -5 -51t-19.5 -40t-39.5 -26.5
t-65 -9.5q-34 0 -63 11t-54.5 24.5t-48 25t-43.5 11.5q-34 0 -45.5 -16.5t-13.5 -47.5h-80q-1 3 -1 7v12q0 24 5.5 47.5t20 42t40 30t65.5 11.5q33 0 60 -11t51 -24t47 -24t49 -11q20 0 31.5 4.5t17.5 12.5t7.5 19.5t1.5 25.5h80q0 -4 1 -8q0 -4 0.5 -7.5t0.5 -7.5z" />
    <glyph glyph-name="ograve" unicode="&#xf2;" horiz-adv-x="572" 
d="M540 256q0 -51 -11.5 -98.5t-41 -84t-78.5 -58.5t-124 -22t-124 22t-77.5 58.5t-40 84t-11.5 98.5t11.5 98t40 84t78 59t124.5 22t124 -22t78 -59t40.5 -84t11.5 -98zM431 256q0 36 -5.5 68t-21.5 56t-44.5 38t-73.5 14t-73 -14t-44 -38t-22 -56t-6 -68t6 -68t22 -56
t44 -38t72 -14q45 0 73.5 13.5t44.5 37.5t22 56t6 69zM71 619v87l430 -67v-89z" />
    <glyph glyph-name="oacute" unicode="&#xf3;" horiz-adv-x="572" 
d="M540 256q0 -51 -11.5 -98.5t-41 -84t-78.5 -58.5t-124 -22t-124 22t-77.5 58.5t-40 84t-11.5 98.5t11.5 98t40 84t78 59t124.5 22t124 -22t78 -59t40.5 -84t11.5 -98zM431 256q0 36 -5.5 68t-21.5 56t-44.5 38t-73.5 14t-73 -14t-44 -38t-22 -56t-6 -68t6 -68t22 -56
t44 -38t72 -14q45 0 73.5 13.5t44.5 37.5t22 56t6 69zM501 621l-431 -70v89l431 70v-89z" />
    <glyph glyph-name="ocircumflex" unicode="&#xf4;" horiz-adv-x="572" 
d="M540 256q0 -51 -11.5 -98.5t-41 -84t-78.5 -58.5t-124 -22t-124 22t-77.5 58.5t-40 84t-11.5 98.5t11.5 98t40 84t78 59t124.5 22t124 -22t78 -59t40.5 -84t11.5 -98zM431 256q0 36 -5.5 68t-21.5 56t-44.5 38t-73.5 14t-73 -14t-44 -38t-22 -56t-6 -68t6 -68t22 -56
t44 -38t72 -14q45 0 73.5 13.5t44.5 37.5t22 56t6 69zM502 637v-88l-216 83l-216 -83v88l216 84z" />
    <glyph glyph-name="otilde" unicode="&#xf5;" horiz-adv-x="572" 
d="M540 256q0 -51 -11.5 -98.5t-41 -84t-78.5 -58.5t-124 -22t-124 22t-77.5 58.5t-40 84t-11.5 98.5t11.5 98t40 84t78 59t124.5 22t124 -22t78 -59t40.5 -84t11.5 -98zM431 256q0 36 -5.5 68t-21.5 56t-44.5 38t-73.5 14t-73 -14t-44 -38t-22 -56t-6 -68t6 -68t22 -56
t44 -38t72 -14q45 0 73.5 13.5t44.5 37.5t22 56t6 69zM525 684q0 -28 -5 -51t-19.5 -40t-39.5 -26.5t-65 -9.5q-34 0 -63 11t-54.5 24.5t-48 25t-43.5 11.5q-34 0 -45.5 -16.5t-13.5 -47.5h-80q-1 3 -1 7v12q0 24 5.5 47.5t20 42t40 30t65.5 11.5q33 0 60 -11t51 -24t47 -24
t49 -11q20 0 31.5 4.5t17.5 12.5t7.5 19.5t1.5 25.5h80q0 -4 1 -8q0 -4 0.5 -7.5t0.5 -7.5z" />
    <glyph glyph-name="odieresis" unicode="&#xf6;" horiz-adv-x="572" 
d="M540 256q0 -51 -11.5 -98.5t-41 -84t-78.5 -58.5t-124 -22t-124 22t-77.5 58.5t-40 84t-11.5 98.5t11.5 98t40 84t78 59t124.5 22t124 -22t78 -59t40.5 -84t11.5 -98zM431 256q0 36 -5.5 68t-21.5 56t-44.5 38t-73.5 14t-73 -14t-44 -38t-22 -56t-6 -68t6 -68t22 -56
t44 -38t72 -14q45 0 73.5 13.5t44.5 37.5t22 56t6 69zM456 622q0 -35 -18 -46.5t-50 -11.5q-34 0 -53 11.5t-19 46.5q0 36 19 47t53 11q32 0 50 -11t18 -47zM255 622q0 -35 -18.5 -46.5t-50.5 -11.5q-34 0 -52.5 11.5t-18.5 46.5q0 36 18.5 47t52.5 11q32 0 50.5 -11
t18.5 -47z" />
    <glyph glyph-name="divide" unicode="&#xf7;" horiz-adv-x="635" 
d="M385 460q0 -35 -18.5 -46.5t-50.5 -11.5q-33 0 -52 11.5t-19 46.5t19 47t52 12q32 0 50.5 -12t18.5 -47zM40 211v90h555v-90h-555zM385 52q0 -35 -18.5 -47t-50.5 -12q-33 0 -52 12t-19 47q0 36 19 47t52 11q32 0 50.5 -11t18.5 -47z" />
    <glyph glyph-name="oslash" unicode="&#xf8;" horiz-adv-x="572" 
d="M430 488q31 -17 52 -42.5t34 -55.5t18.5 -64.5t5.5 -69.5q0 -51 -11.5 -98.5t-41 -84t-78.5 -58.5t-124 -22h-11.5t-11.5 1l-20 -60h-105l27 79q-39 15 -64.5 40.5t-40.5 57.5t-21 69t-6 76q0 51 11.5 98t40 84t78 59t124.5 22q26 0 49 -3l21 61h104zM141 256
q0 -49 11 -89t43 -63l111 327q-5 1 -10 1h-10q-45 0 -73 -14t-44 -38t-22 -56t-6 -68zM431 256q0 40 -7 75t-28 60l-105 -311q43 1 70 15t42.5 37.5t21.5 55.5t6 68z" />
    <glyph glyph-name="ugrave" unicode="&#xf9;" horiz-adv-x="566" 
d="M456 0l-22 74q-7 -14 -21 -28.5t-37 -26t-55 -19t-75 -7.5q-63 0 -102.5 17t-61.5 48t-30 75t-8 98v281h105v-289q0 -35 4.5 -61t18 -43.5t38.5 -26.5t66 -9q40 0 66 9.5t40 28t19.5 45.5t5.5 62v284h108v-512h-59zM67 619v87l430 -67v-89z" />
    <glyph glyph-name="uacute" unicode="&#xfa;" horiz-adv-x="566" 
d="M456 0l-22 74q-7 -14 -21 -28.5t-37 -26t-55 -19t-75 -7.5q-63 0 -102.5 17t-61.5 48t-30 75t-8 98v281h105v-289q0 -35 4.5 -61t18 -43.5t38.5 -26.5t66 -9q40 0 66 9.5t40 28t19.5 45.5t5.5 62v284h108v-512h-59zM498 621l-431 -70v89l431 70v-89z" />
    <glyph glyph-name="ucircumflex" unicode="&#xfb;" horiz-adv-x="566" 
d="M456 0l-22 74q-7 -14 -21 -28.5t-37 -26t-55 -19t-75 -7.5q-63 0 -102.5 17t-61.5 48t-30 75t-8 98v281h105v-289q0 -35 4.5 -61t18 -43.5t38.5 -26.5t66 -9q40 0 66 9.5t40 28t19.5 45.5t5.5 62v284h108v-512h-59zM498 637v-88l-216 83l-216 -83v88l216 84z" />
    <glyph glyph-name="udieresis" unicode="&#xfc;" horiz-adv-x="566" 
d="M456 0l-22 74q-7 -14 -21 -28.5t-37 -26t-55 -19t-75 -7.5q-63 0 -102.5 17t-61.5 48t-30 75t-8 98v281h105v-289q0 -35 4.5 -61t18 -43.5t38.5 -26.5t66 -9q40 0 66 9.5t40 28t19.5 45.5t5.5 62v284h108v-512h-59zM453 622q0 -35 -18 -46.5t-50 -11.5q-34 0 -53 11.5
t-19 46.5q0 36 19 47t53 11q32 0 50 -11t18 -47zM252 622q0 -35 -18.5 -46.5t-50.5 -11.5q-34 0 -52.5 11.5t-18.5 46.5q0 36 18.5 47t52.5 11q32 0 50.5 -11t18.5 -47z" />
    <glyph glyph-name="yacute" unicode="&#xfd;" horiz-adv-x="572" 
d="M520 -4q0 -37 -9 -73.5t-34.5 -65t-72.5 -46.5t-123 -18q-71 0 -117 13.5t-72.5 36.5t-37 55t-10.5 70h106q1 -20 6 -37t19 -29.5t39.5 -19.5t67.5 -7t68 9.5t40.5 25t19 36.5t4.5 45v67q-17 -27 -54.5 -46t-108.5 -19q-63 0 -102 17t-61 48t-30 75t-8 99v280h105v-289
q0 -34 4.5 -60t18 -44t38 -27t65.5 -9t67 9.5t40.5 28.5t20 45.5t5.5 61.5v284h106v-516zM501 621l-431 -70v89l431 70v-89z" />
    <glyph glyph-name="thorn" unicode="&#xfe;" horiz-adv-x="580" 
d="M547 255q0 -53 -10 -100.5t-34.5 -83.5t-66.5 -57t-105 -21q-76 0 -116.5 21t-57.5 47v-261h-105v889h105v-240q8 13 22 25.5t35 22.5t50 16t67 6q63 0 105 -21.5t66.5 -57.5t34.5 -84t10 -101zM440 255q0 39 -5.5 71t-21.5 55.5t-43.5 36t-70.5 12.5q-45 0 -73 -13
t-43.5 -36.5t-21 -55.5t-5.5 -70t5 -69.5t20 -54.5t43 -36t73 -13q44 0 72 12.5t43.5 35.5t21.5 54.5t6 70.5z" />
    <glyph glyph-name="ydieresis" unicode="&#xff;" horiz-adv-x="572" 
d="M520 -4q0 -37 -9 -73.5t-34.5 -65t-72.5 -46.5t-123 -18q-71 0 -117 13.5t-72.5 36.5t-37 55t-10.5 70h106q1 -20 6 -37t19 -29.5t39.5 -19.5t67.5 -7t68 9.5t40.5 25t19 36.5t4.5 45v67q-17 -27 -54.5 -46t-108.5 -19q-63 0 -102 17t-61 48t-30 75t-8 99v280h105v-289
q0 -34 4.5 -60t18 -44t38 -27t65.5 -9t67 9.5t40.5 28.5t20 45.5t5.5 61.5v284h106v-516zM456 622q0 -35 -18 -46.5t-50 -11.5q-34 0 -53 11.5t-19 46.5q0 36 19 47t53 11q32 0 50 -11t18 -47zM255 622q0 -35 -18.5 -46.5t-50.5 -11.5q-34 0 -52.5 11.5t-18.5 46.5
q0 36 18.5 47t52.5 11q32 0 50.5 -11t18.5 -47z" />
    <glyph glyph-name="Amacron" unicode="&#x100;" horiz-adv-x="631" 
d="M517 0l-43 125h-314l-46 -125h-115l246 640h149l240 -640h-117zM317 569l-130 -364h259zM98 704v88h439v-88h-439z" />
    <glyph glyph-name="amacron" unicode="&#x101;" horiz-adv-x="549" 
d="M452 0l-22 77q-9 -15 -26.5 -30t-43 -27t-58.5 -19.5t-73 -7.5q-41 0 -77 9.5t-63 28.5t-42.5 48.5t-15.5 70.5q0 71 51.5 105.5t161.5 45.5l161 16q-1 28 -7.5 49.5t-21.5 36.5t-40 23t-64 8q-36 0 -59 -7t-37 -20t-19.5 -32t-5.5 -43l-104 -1q0 40 9.5 74t35 59.5
t68.5 40t111 14.5q78 0 125.5 -16t72.5 -46t33 -72t8 -94v-291h-58zM405 236l-145 -16q-67 -8 -93 -23.5t-26 -45.5q0 -35 29 -54.5t86 -19.5q71 0 110 38t39 105v16zM56 577v88h439v-88h-439z" />
    <glyph glyph-name="Abreve" unicode="&#x102;" horiz-adv-x="631" 
d="M517 0l-43 125h-314l-46 -125h-115l246 640h149l240 -640h-117zM317 569l-130 -364h259zM512 847q0 -47 -10.5 -76.5t-30 -46.5t-46 -23.5t-57.5 -6.5h-111q-32 0 -57 8t-42.5 26t-26.5 47t-9 72h93q0 -35 14 -52.5t46 -17.5h82q36 0 48.5 20t12.5 50h94z" />
    <glyph glyph-name="abreve" unicode="&#x103;" horiz-adv-x="549" 
d="M452 0l-22 77q-9 -15 -26.5 -30t-43 -27t-58.5 -19.5t-73 -7.5q-41 0 -77 9.5t-63 28.5t-42.5 48.5t-15.5 70.5q0 71 51.5 105.5t161.5 45.5l161 16q-1 28 -7.5 49.5t-21.5 36.5t-40 23t-64 8q-36 0 -59 -7t-37 -20t-19.5 -32t-5.5 -43l-104 -1q0 40 9.5 74t35 59.5
t68.5 40t111 14.5q78 0 125.5 -16t72.5 -46t33 -72t8 -94v-291h-58zM405 236l-145 -16q-67 -8 -93 -23.5t-26 -45.5q0 -35 29 -54.5t86 -19.5q71 0 110 38t39 105v16zM470 720q0 -47 -10.5 -76.5t-30 -46.5t-46 -23.5t-57.5 -6.5h-111q-32 0 -57 8t-42.5 26t-26.5 47t-9 72
h93q0 -35 14 -52.5t46 -17.5h82q36 0 48.5 20t12.5 50h94z" />
    <glyph glyph-name="Aogonek" unicode="&#x104;" horiz-adv-x="631" 
d="M595 -183q-94 0 -94 74q0 19 7.5 38t20.5 36l-55 160h-314l-46 -125h-115l246 640h149l240 -640q-21 -17 -33 -36t-12 -33q0 -15 9.5 -22.5t35.5 -7.5v-84h-39zM317 569l-130 -364h259z" />
    <glyph glyph-name="aogonek" unicode="&#x105;" horiz-adv-x="549" 
d="M471 -183q-94 0 -94 74q0 29 19 60t43 52l11 10l-20 64q-9 -15 -26.5 -29.5t-42.5 -26.5t-57.5 -19t-72.5 -7q-41 0 -77.5 9t-63.5 28t-43 48t-16 70q0 35 12 60.5t38 43.5t66.5 29.5t96.5 17.5l161 19q-1 28 -7.5 49.5t-21.5 36t-40 22t-64 7.5q-36 0 -59 -7t-37 -20.5
t-19.5 -32.5t-5.5 -43h-104q0 40 9.5 74t35 59.5t68.5 40t111 14.5q78 0 125.5 -16.5t72.5 -46.5t33 -72t8 -94v-291q-21 -17 -33 -38.5t-12 -35.5q0 -15 9.5 -22.5t35.5 -7.5v-79h-39zM405 236l-145 -16q-67 -8 -93 -23.5t-26 -45.5q0 -35 29 -54.5t86 -19.5q71 0 110 38
t39 105v16z" />
    <glyph glyph-name="Cacute" unicode="&#x106;" horiz-adv-x="667" 
d="M629 246q0 -53 -15.5 -99t-50 -80.5t-89.5 -54t-134 -19.5q-90 0 -147 26.5t-90 71.5t-45.5 104t-12.5 125t12.5 125t45.5 104t90.5 71.5t146.5 26.5q79 0 134 -20.5t89.5 -55t50 -80t15.5 -95.5h-113q-2 34 -12.5 63t-31.5 50.5t-53.5 34t-78.5 12.5q-57 0 -92.5 -18.5
t-55.5 -50.5t-27.5 -75t-7.5 -92t7.5 -92t27.5 -74.5t55.5 -50t92.5 -18.5q47 0 79.5 12t53 33t31 50.5t12.5 65.5h113zM548 747l-431 -70v89l431 70v-89z" />
    <glyph glyph-name="cacute" unicode="&#x107;" 
d="M515 201q0 -47 -13.5 -85.5t-41.5 -65.5t-71 -42t-102 -15q-76 0 -125 22t-78 58.5t-40.5 84t-11.5 98.5t11.5 98.5t40.5 84t78 58.5t123 22q117 0 173.5 -57.5t56.5 -153.5h-109q-5 60 -32.5 92t-91.5 32q-41 0 -68.5 -13.5t-43.5 -37t-22.5 -55.5t-6.5 -69
q0 -36 6.5 -67.5t22.5 -55t44 -36.5t70 -13q64 0 90.5 30t31.5 86h109zM490 621l-431 -70v89l431 70v-89z" />
    <glyph glyph-name="Ccircumflex" unicode="&#x108;" horiz-adv-x="667" 
d="M629 246q0 -53 -15.5 -99t-50 -80.5t-89.5 -54t-134 -19.5q-90 0 -147 26.5t-90 71.5t-45.5 104t-12.5 125t12.5 125t45.5 104t90.5 71.5t146.5 26.5q79 0 134 -20.5t89.5 -55t50 -80t15.5 -95.5h-113q-2 34 -12.5 63t-31.5 50.5t-53.5 34t-78.5 12.5q-57 0 -92.5 -18.5
t-55.5 -50.5t-27.5 -75t-7.5 -92t7.5 -92t27.5 -74.5t55.5 -50t92.5 -18.5q47 0 79.5 12t53 33t31 50.5t12.5 65.5h113zM556 763v-88l-216 83l-216 -83v88l216 84z" />
    <glyph glyph-name="ccircumflex" unicode="&#x109;" 
d="M515 201q0 -47 -13.5 -85.5t-41.5 -65.5t-71 -42t-102 -15q-76 0 -125 22t-78 58.5t-40.5 84t-11.5 98.5t11.5 98.5t40.5 84t78 58.5t123 22q117 0 173.5 -57.5t56.5 -153.5h-109q-5 60 -32.5 92t-91.5 32q-41 0 -68.5 -13.5t-43.5 -37t-22.5 -55.5t-6.5 -69
q0 -36 6.5 -67.5t22.5 -55t44 -36.5t70 -13q64 0 90.5 30t31.5 86h109zM499 637v-88l-216 83l-216 -83v88l216 84z" />
    <glyph glyph-name="Cdotaccent" unicode="&#x10a;" horiz-adv-x="667" 
d="M629 246q0 -53 -15.5 -99t-50 -80.5t-89.5 -54t-134 -19.5q-90 0 -147 26.5t-90 71.5t-45.5 104t-12.5 125t12.5 125t45.5 104t90.5 71.5t146.5 26.5q79 0 134 -20.5t89.5 -55t50 -80t15.5 -95.5h-113q-2 34 -12.5 63t-31.5 50.5t-53.5 34t-78.5 12.5q-57 0 -92.5 -18.5
t-55.5 -50.5t-27.5 -75t-7.5 -92t7.5 -92t27.5 -74.5t55.5 -50t92.5 -18.5q47 0 79.5 12t53 33t31 50.5t12.5 65.5h113zM425 748q0 -19 -3 -31t-12 -19t-25.5 -10t-43.5 -3q-28 0 -44.5 3t-25.5 10t-12 19t-3 31q0 21 3 34t12 20.5t25.5 10t44.5 2.5q27 0 43.5 -2.5
t25.5 -10t12 -20.5t3 -34z" />
    <glyph glyph-name="cdotaccent" unicode="&#x10b;" 
d="M515 201q0 -47 -13.5 -85.5t-41.5 -65.5t-71 -42t-102 -15q-76 0 -125 22t-78 58.5t-40.5 84t-11.5 98.5t11.5 98.5t40.5 84t78 58.5t123 22q117 0 173.5 -57.5t56.5 -153.5h-109q-5 60 -32.5 92t-91.5 32q-41 0 -68.5 -13.5t-43.5 -37t-22.5 -55.5t-6.5 -69
q0 -36 6.5 -67.5t22.5 -55t44 -36.5t70 -13q64 0 90.5 30t31.5 86h109zM361 622q0 -19 -3 -31t-12 -19t-25.5 -10t-43.5 -3q-28 0 -44.5 3t-25.5 10t-12 19t-3 31q0 21 3 34t12 20.5t25.5 10t44.5 2.5q27 0 43.5 -2.5t25.5 -10t12 -20.5t3 -34z" />
    <glyph glyph-name="Ccaron" unicode="&#x10c;" horiz-adv-x="667" 
d="M629 246q0 -53 -15.5 -99t-50 -80.5t-89.5 -54t-134 -19.5q-90 0 -147 26.5t-90 71.5t-45.5 104t-12.5 125t12.5 125t45.5 104t90.5 71.5t146.5 26.5q79 0 134 -20.5t89.5 -55t50 -80t15.5 -95.5h-113q-2 34 -12.5 63t-31.5 50.5t-53.5 34t-78.5 12.5q-57 0 -92.5 -18.5
t-55.5 -50.5t-27.5 -75t-7.5 -92t7.5 -92t27.5 -74.5t55.5 -50t92.5 -18.5q47 0 79.5 12t53 33t31 50.5t12.5 65.5h113zM340 675l-216 83v89l216 -84l216 84v-89z" />
    <glyph glyph-name="ccaron" unicode="&#x10d;" 
d="M515 201q0 -47 -13.5 -85.5t-41.5 -65.5t-71 -42t-102 -15q-76 0 -125 22t-78 58.5t-40.5 84t-11.5 98.5t11.5 98.5t40.5 84t78 58.5t123 22q117 0 173.5 -57.5t56.5 -153.5h-109q-5 60 -32.5 92t-91.5 32q-41 0 -68.5 -13.5t-43.5 -37t-22.5 -55.5t-6.5 -69
q0 -36 6.5 -67.5t22.5 -55t44 -36.5t70 -13q64 0 90.5 30t31.5 86h109zM281 549l-216 83v89l216 -84l216 84v-89z" />
    <glyph glyph-name="Dcaron" unicode="&#x10e;" horiz-adv-x="646" 
d="M602 324q0 -76 -20 -136t-58.5 -102t-94.5 -64t-129 -22h-234v640h244q145 0 218.5 -80.5t73.5 -235.5zM495 325q0 65 -13 108.5t-39 69.5t-65.5 36.5t-91.5 10.5h-111v-460h105q53 0 93 12.5t67 40t41 72.5t14 110zM295 675l-216 83v89l216 -84l216 84v-89z" />
    <glyph glyph-name="dcaron" unicode="&#x10f;" horiz-adv-x="728" 
d="M471 0l-24 73q-7 -13 -21.5 -27t-38 -26t-57.5 -19.5t-79 -7.5q-63 0 -105.5 21.5t-67.5 57.5t-35.5 83.5t-10.5 100.5q0 52 10 100t35 84t67 57.5t106 21.5q38 0 67 -6t50 -16t35 -22.5t22 -25.5v258h105v-707h-58zM425 256q0 37 -5 68.5t-20.5 55t-43.5 36.5t-74 13
q-44 0 -71.5 -12.5t-43 -35.5t-21 -54.5t-5.5 -70.5t5.5 -71t21 -55t42.5 -36t71 -13q45 0 73 12.5t43.5 35.5t21.5 55.5t6 71.5zM693 394h-69l9 126q-34 0 -51 15t-17 49q0 39 21.5 51t56.5 12q39 0 59.5 -17.5t13.5 -66.5z" />
    <glyph glyph-name="Dcroat" unicode="&#x110;" horiz-adv-x="667" 
d="M624 324q0 -76 -19 -136t-56.5 -102t-93.5 -64t-129 -22h-234v281h-67v88h67v271h245q145 0 216 -80.5t71 -235.5zM516 325q0 65 -12 108.5t-37.5 69.5t-64 36.5t-90.5 10.5h-110v-181h128v-88h-128v-191h104q54 0 93.5 12.5t65.5 40t38.5 72.5t12.5 110z" />
    <glyph glyph-name="dcroat" unicode="&#x111;" horiz-adv-x="581" 
d="M424 707h105v-47h38v-81h-38v-579h-58l-24 73q-7 -13 -21.5 -27t-38 -26t-57.5 -19.5t-79 -7.5q-63 0 -105.5 21.5t-67.5 57.5t-35.5 83.5t-10.5 100.5q0 52 10 100t35 84t67 57.5t106 21.5q38 0 67 -6t50 -16t35 -22.5t22 -25.5v130h-134v81h134v47zM425 256
q0 37 -5 68.5t-20.5 55t-43.5 36.5t-74 13q-44 0 -71.5 -12.5t-43 -35.5t-21 -54.5t-5.5 -70.5t5.5 -71t21 -55t42.5 -36t71 -13q45 0 73 12.5t43.5 35.5t21.5 55.5t6 71.5z" />
    <glyph glyph-name="Emacron" unicode="&#x112;" 
d="M66 0v640h445v-90h-336v-179h305v-89h-305v-192h336v-90h-445zM66 705v88h439v-88h-439z" />
    <glyph glyph-name="emacron" unicode="&#x113;" horiz-adv-x="555" 
d="M521 157q-3 -33 -17 -62.5t-41 -52t-69.5 -36t-102.5 -13.5q-77 0 -127 22t-79 58.5t-40 84.5t-11 99t11.5 98.5t40 84t78 58t126.5 21.5q71 0 117.5 -25t73 -67t35 -97.5t3.5 -115.5h-374q5 -66 39 -102.5t103 -36.5q32 0 53.5 7t35.5 18.5t21.5 26.5t11.5 30h112z
M409 301q0 26 -6.5 50.5t-21.5 43t-40 30t-61 11.5q-38 0 -62.5 -11t-40 -29.5t-22.5 -43.5t-9 -53h263v1v1zM65 577v88h439v-88h-439z" />
    <glyph glyph-name="Ebreve" unicode="&#x114;" 
d="M66 0v640h445v-90h-336v-179h305v-89h-305v-192h336v-90h-445zM482 848q0 -47 -10.5 -76.5t-30 -46.5t-46 -23.5t-57.5 -6.5h-111q-32 0 -57 8t-42.5 26t-26.5 47t-9 72h93q0 -35 14 -52.5t46 -17.5h82q36 0 48.5 20t12.5 50h94z" />
    <glyph glyph-name="ebreve" unicode="&#x115;" horiz-adv-x="555" 
d="M521 157q-3 -33 -17 -62.5t-41 -52t-69.5 -36t-102.5 -13.5q-77 0 -127 22t-79 58.5t-40 84.5t-11 99t11.5 98.5t40 84t78 58t126.5 21.5q71 0 117.5 -25t73 -67t35 -97.5t3.5 -115.5h-374q5 -66 39 -102.5t103 -36.5q32 0 53.5 7t35.5 18.5t21.5 26.5t11.5 30h112z
M409 301q0 26 -6.5 50.5t-21.5 43t-40 30t-61 11.5q-38 0 -62.5 -11t-40 -29.5t-22.5 -43.5t-9 -53h263v1v1zM477 720q0 -47 -10.5 -76.5t-30 -46.5t-46 -23.5t-57.5 -6.5h-111q-32 0 -57 8t-42.5 26t-26.5 47t-9 72h93q0 -35 14 -52.5t46 -17.5h82q36 0 48.5 20t12.5 50h94
z" />
    <glyph glyph-name="Edotaccent" unicode="&#x116;" 
d="M66 0v640h445v-90h-336v-179h305v-89h-305v-192h336v-90h-445zM386 748q0 -19 -3 -31t-12 -19t-25.5 -10t-43.5 -3q-28 0 -44.5 3t-25.5 10t-12 19t-3 31q0 21 3 34t12 20.5t25.5 10t44.5 2.5q27 0 43.5 -2.5t25.5 -10t12 -20.5t3 -34z" />
    <glyph glyph-name="edotaccent" unicode="&#x117;" horiz-adv-x="555" 
d="M521 157q-3 -33 -17 -62.5t-41 -52t-69.5 -36t-102.5 -13.5q-77 0 -127 22t-79 58.5t-40 84.5t-11 99t11.5 98.5t40 84t78 58t126.5 21.5q71 0 117.5 -25t73 -67t35 -97.5t3.5 -115.5h-374q5 -66 39 -102.5t103 -36.5q32 0 53.5 7t35.5 18.5t21.5 26.5t11.5 30h112z
M409 301q0 26 -6.5 50.5t-21.5 43t-40 30t-61 11.5q-38 0 -62.5 -11t-40 -29.5t-22.5 -43.5t-9 -53h263v1v1zM373 622q0 -19 -3 -31t-12 -19t-25.5 -10t-43.5 -3q-28 0 -44.5 3t-25.5 10t-12 19t-3 31q0 21 3 34t12 20.5t25.5 10t44.5 2.5q27 0 43.5 -2.5t25.5 -10t12 -20.5
t3 -34z" />
    <glyph glyph-name="Eogonek" unicode="&#x118;" 
d="M472 -183q-93 0 -93 74q0 29 16.5 58.5t39.5 50.5h-369v640h445v-90h-336v-179h305v-89h-305v-192h336v-90q-20 -17 -32.5 -39.5t-12.5 -36.5q0 -15 9.5 -22.5t35.5 -7.5v-77h-39z" />
    <glyph glyph-name="eogonek" unicode="&#x119;" horiz-adv-x="555" 
d="M434 -130q-94 0 -94 74q0 15 3.5 27.5t12.5 26.5q-15 -2 -31 -3.5t-34 -1.5q-77 0 -127 22t-79 58.5t-40 84.5t-11 99t11.5 98.5t40 84t78 58t126.5 21.5q71 0 117.5 -25t73 -67t35 -97.5t3.5 -115.5h-374q5 -66 39 -101.5t103 -35.5q32 0 53.5 6.5t35.5 18t21.5 26
t11.5 29.5h112q-7 -67 -64 -118q-15 -13 -22.5 -28.5t-7.5 -26.5q0 -15 10 -22.5t35 -7.5v-84h-38zM409 299q0 26 -6 51t-21 44t-40 30.5t-62 11.5q-38 0 -62.5 -11t-40 -29.5t-22.5 -43.5t-9 -53h263z" />
    <glyph glyph-name="Ecaron" unicode="&#x11a;" 
d="M66 0v640h445v-90h-336v-179h305v-89h-305v-192h336v-90h-445zM289 677l-216 83v89l216 -84l216 84v-89z" />
    <glyph glyph-name="ecaron" unicode="&#x11b;" horiz-adv-x="555" 
d="M521 157q-3 -33 -17 -62.5t-41 -52t-69.5 -36t-102.5 -13.5q-77 0 -127 22t-79 58.5t-40 84.5t-11 99t11.5 98.5t40 84t78 58t126.5 21.5q71 0 117.5 -25t73 -67t35 -97.5t3.5 -115.5h-374q5 -66 39 -102.5t103 -36.5q32 0 53.5 7t35.5 18.5t21.5 26.5t11.5 30h112z
M409 301q0 26 -6.5 50.5t-21.5 43t-40 30t-61 11.5q-38 0 -62.5 -11t-40 -29.5t-22.5 -43.5t-9 -53h263v1v1zM291 549l-216 83v89l216 -84l216 84v-89z" />
    <glyph glyph-name="Gcircumflex" unicode="&#x11c;" horiz-adv-x="687" 
d="M566 0l-27 99q-29 -48 -77 -77t-128 -29q-84 0 -139.5 26.5t-89 71.5t-47 104t-13.5 125t12.5 125t45.5 104t90.5 71.5t146.5 26.5q78 0 132.5 -18.5t88.5 -49t49.5 -71t15.5 -83.5h-112q-3 27 -12.5 51t-30 41.5t-52.5 28t-79 10.5q-57 0 -92.5 -18.5t-55.5 -50.5
t-27.5 -75t-7.5 -92t8 -92t28 -74.5t55.5 -50t91.5 -18.5q92 0 136 49.5t44 132.5h-188v90h297v-357h-63zM561 763v-88l-216 83l-216 -83v88l216 84z" />
    <glyph glyph-name="gcircumflex" unicode="&#x11d;" horiz-adv-x="534" 
d="M527 -58q0 -29 -11.5 -57t-40 -50t-77 -36t-123.5 -14q-77 0 -126.5 12t-79 35t-41 56.5t-11.5 76.5h112q2 -22 7.5 -39.5t21 -30t44 -19t75.5 -6.5q44 0 71.5 6t42.5 15.5t20 21.5t5 23q0 15 -10 25t-28 17t-42.5 11.5t-53.5 9.5q-44 7 -89.5 13.5t-83 18t-61 31.5
t-23.5 54q0 33 24 52t63 29q-44 22 -60.5 58t-16.5 71q0 39 10 73t38 59t77 39.5t126 14.5h225v-51l-72 -21q24 -12 40.5 -41t16.5 -74q0 -40 -9.5 -73t-35 -57t-71 -37t-116.5 -13q-13 0 -28 0.5t-29 2.5l-32 4q-30 -4 -36.5 -12t-6.5 -16q0 -18 35 -25t120 -18
q41 -5 83.5 -12.5t77.5 -22t57 -39.5t22 -65zM385 329q0 21 -4.5 38t-18 30t-37 20t-61.5 7q-36 0 -59.5 -7t-37 -19.5t-18.5 -30t-5 -38.5q0 -23 5 -42t18 -32.5t36.5 -21.5t61.5 -8q36 0 59.5 7.5t37 21t18.5 33t5 42.5zM484 637v-88l-216 83l-216 -83v88l216 84z" />
    <glyph glyph-name="Gbreve" unicode="&#x11e;" horiz-adv-x="687" 
d="M566 0l-27 99q-29 -48 -77 -77t-128 -29q-84 0 -139.5 26.5t-89 71.5t-47 104t-13.5 125t12.5 125t45.5 104t90.5 71.5t146.5 26.5q78 0 132.5 -18.5t88.5 -49t49.5 -71t15.5 -83.5h-112q-3 27 -12.5 51t-30 41.5t-52.5 28t-79 10.5q-57 0 -92.5 -18.5t-55.5 -50.5
t-27.5 -75t-7.5 -92t8 -92t28 -74.5t55.5 -50t91.5 -18.5q92 0 136 49.5t44 132.5h-188v90h297v-357h-63zM538 846q0 -47 -10.5 -76.5t-30 -46.5t-46 -23.5t-57.5 -6.5h-111q-32 0 -57 8t-42.5 26t-26.5 47t-9 72h93q0 -35 14 -52.5t46 -17.5h82q36 0 48.5 20t12.5 50h94z
" />
    <glyph glyph-name="gbreve" unicode="&#x11f;" horiz-adv-x="534" 
d="M527 -58q0 -29 -11.5 -57t-40 -50t-77 -36t-123.5 -14q-77 0 -126.5 12t-79 35t-41 56.5t-11.5 76.5h112q2 -22 7.5 -39.5t21 -30t44 -19t75.5 -6.5q44 0 71.5 6t42.5 15.5t20 21.5t5 23q0 15 -10 25t-28 17t-42.5 11.5t-53.5 9.5q-44 7 -89.5 13.5t-83 18t-61 31.5
t-23.5 54q0 33 24 52t63 29q-44 22 -60.5 58t-16.5 71q0 39 10 73t38 59t77 39.5t126 14.5h225v-51l-72 -21q24 -12 40.5 -41t16.5 -74q0 -40 -9.5 -73t-35 -57t-71 -37t-116.5 -13q-13 0 -28 0.5t-29 2.5l-32 4q-30 -4 -36.5 -12t-6.5 -16q0 -18 35 -25t120 -18
q41 -5 83.5 -12.5t77.5 -22t57 -39.5t22 -65zM385 329q0 21 -4.5 38t-18 30t-37 20t-61.5 7q-36 0 -59.5 -7t-37 -19.5t-18.5 -30t-5 -38.5q0 -23 5 -42t18 -32.5t36.5 -21.5t61.5 -8q36 0 59.5 7.5t37 21t18.5 33t5 42.5zM462 720q0 -47 -10.5 -76.5t-30 -46.5t-46 -23.5
t-57.5 -6.5h-111q-32 0 -57 8t-42.5 26t-26.5 47t-9 72h93q0 -35 14 -52.5t46 -17.5h82q36 0 48.5 20t12.5 50h94z" />
    <glyph glyph-name="Gdotaccent" unicode="&#x120;" horiz-adv-x="687" 
d="M566 0l-27 99q-29 -48 -77 -77t-128 -29q-84 0 -139.5 26.5t-89 71.5t-47 104t-13.5 125t12.5 125t45.5 104t90.5 71.5t146.5 26.5q78 0 132.5 -18.5t88.5 -49t49.5 -71t15.5 -83.5h-112q-3 27 -12.5 51t-30 41.5t-52.5 28t-79 10.5q-57 0 -92.5 -18.5t-55.5 -50.5
t-27.5 -75t-7.5 -92t8 -92t28 -74.5t55.5 -50t91.5 -18.5q92 0 136 49.5t44 132.5h-188v90h297v-357h-63zM427 748q0 -19 -3 -31t-12 -19t-25.5 -10t-43.5 -3q-28 0 -44.5 3t-25.5 10t-12 19t-3 31q0 21 3 34t12 20.5t25.5 10t44.5 2.5q27 0 43.5 -2.5t25.5 -10t12 -20.5
t3 -34z" />
    <glyph glyph-name="gdotaccent" unicode="&#x121;" horiz-adv-x="534" 
d="M527 -58q0 -29 -11.5 -57t-40 -50t-77 -36t-123.5 -14q-77 0 -126.5 12t-79 35t-41 56.5t-11.5 76.5h112q2 -22 7.5 -39.5t21 -30t44 -19t75.5 -6.5q44 0 71.5 6t42.5 15.5t20 21.5t5 23q0 15 -10 25t-28 17t-42.5 11.5t-53.5 9.5q-44 7 -89.5 13.5t-83 18t-61 31.5
t-23.5 54q0 33 24 52t63 29q-44 22 -60.5 58t-16.5 71q0 39 10 73t38 59t77 39.5t126 14.5h225v-51l-72 -21q24 -12 40.5 -41t16.5 -74q0 -40 -9.5 -73t-35 -57t-71 -37t-116.5 -13q-13 0 -28 0.5t-29 2.5l-32 4q-30 -4 -36.5 -12t-6.5 -16q0 -18 35 -25t120 -18
q41 -5 83.5 -12.5t77.5 -22t57 -39.5t22 -65zM385 329q0 21 -4.5 38t-18 30t-37 20t-61.5 7q-36 0 -59.5 -7t-37 -19.5t-18.5 -30t-5 -38.5q0 -23 5 -42t18 -32.5t36.5 -21.5t61.5 -8q36 0 59.5 7.5t37 21t18.5 33t5 42.5zM351 622q0 -19 -3 -31t-12 -19t-25.5 -10t-43.5 -3
q-28 0 -44.5 3t-25.5 10t-12 19t-3 31q0 21 3 34t12 20.5t25.5 10t44.5 2.5q27 0 43.5 -2.5t25.5 -10t12 -20.5t3 -34z" />
    <glyph glyph-name="uni0122" unicode="&#x122;" horiz-adv-x="687" 
d="M566 0l-27 99q-29 -48 -77 -77t-128 -29q-84 0 -139.5 26.5t-89 71.5t-47 104t-13.5 125t12.5 125t45.5 104t90.5 71.5t146.5 26.5q78 0 132.5 -18.5t88.5 -49t49.5 -71t15.5 -83.5h-112q-3 27 -12.5 51t-30 41.5t-52.5 28t-79 10.5q-57 0 -92.5 -18.5t-55.5 -50.5
t-27.5 -75t-7.5 -92t8 -92t28 -74.5t55.5 -50t91.5 -18.5q92 0 136 49.5t44 132.5h-188v90h297v-357h-63zM385 -253h-70l15 97q-26 0 -45.5 14.5t-19.5 44.5q0 37 21 50.5t53 13.5q38 0 59 -19t14 -57z" />
    <glyph glyph-name="uni0123" unicode="&#x123;" horiz-adv-x="534" 
d="M527 -58q0 -29 -11.5 -57t-40 -50t-77 -36t-123.5 -14q-77 0 -126.5 12t-79 35t-41 56.5t-11.5 76.5h112q2 -22 7.5 -39.5t21 -30t44 -19t75.5 -6.5q44 0 71.5 6t42.5 15.5t20 21.5t5 23q0 15 -10 25t-28 17t-42.5 11.5t-53.5 9.5q-44 7 -89.5 13.5t-83 18t-61 31.5
t-23.5 54q0 33 24 52t63 29q-44 22 -60.5 58t-16.5 71q0 39 10 73t38 59t77 39.5t126 14.5h225v-51l-72 -21q24 -12 40.5 -41t16.5 -74q0 -40 -9.5 -73t-35 -57t-71 -37t-116.5 -13q-13 0 -28 0.5t-29 2.5l-32 4q-30 -4 -36.5 -12t-6.5 -16q0 -18 35 -25t120 -18
q41 -5 83.5 -12.5t77.5 -22t57 -39.5t22 -65zM385 329q0 21 -4.5 38t-18 30t-37 20t-61.5 7q-36 0 -59.5 -7t-37 -19.5t-18.5 -30t-5 -38.5q0 -23 5 -42t18 -32.5t36.5 -21.5t61.5 -8q36 0 59.5 7.5t37 21t18.5 33t5 42.5zM226 767h70l-15 -97q26 0 45.5 -14.5t19.5 -44.5
q0 -37 -21 -50.5t-53 -13.5q-38 0 -59 19t-14 57z" />
    <glyph glyph-name="Hcircumflex" unicode="&#x124;" horiz-adv-x="666" 
d="M490 0v282h-314v-282h-110v640h110v-269h314v269h111v-640h-111zM551 763v-88l-216 83l-216 -83v88l216 84z" />
    <glyph glyph-name="hcircumflex" unicode="&#x125;" horiz-adv-x="565" 
d="M216 829v-98l-110 69l-111 -69v98l111 67zM415 0v287q0 36 -4 62.5t-17.5 44.5t-38 26.5t-65.5 8.5t-66.5 -8.5t-39.5 -26t-19.5 -44.5t-5.5 -63l-2 -287h-105v707h105v-259q7 14 20 27t32.5 22.5t46.5 15.5t64 6q63 0 102 -17t61 -48.5t30 -76.5t8 -100v-277h-106z" />
    <glyph glyph-name="Hbar" unicode="&#x126;" horiz-adv-x="666" 
d="M490 0v282h-314v-282h-110v459h-37v87h37v94h110v-94h314v94h110v-94h37v-87h-37v-459h-110zM490 371v88h-314v-88h314z" />
    <glyph glyph-name="hbar" unicode="&#x127;" horiz-adv-x="565" 
d="M157 575v-127q7 14 20 27t32.5 22.5t46.5 15.5t64 6q63 0 102 -17t61 -48.5t30 -76.5t8 -100v-277h-106v287q0 36 -4 62.5t-17.5 44.5t-38 26.5t-65.5 8.5t-66.5 -8.5t-39.5 -26t-19.5 -44.5t-5.5 -63v-287h-107v707h105v-65h354v-67h-354z" />
    <glyph glyph-name="Itilde" unicode="&#x128;" horiz-adv-x="240" 
d="M305 824v-7q0 -3 0.5 -6t0.5 -5q0 -24 -6 -46.5t-19.5 -40t-34 -28t-50.5 -10.5q-35 0 -54.5 8.5t-33 19t-24.5 19.5t-30 9q-37 0 -42 -42v-10h-78q-1 2 -1 6q-1 2 -1 5.5v5.5q0 24 6 46.5t19.5 40t34.5 28t50 10.5q35 0 55 -9t33 -19.5t24.5 -19t30.5 -8.5q17 0 28 11
t13 32v10h79zM66 0v640h110v-640h-110z" />
    <glyph glyph-name="itilde" unicode="&#x129;" horiz-adv-x="206" 
d="M287 691q0 -3 1 -6q0 -3 0.5 -6t0.5 -5q0 -24 -6 -46.5t-19.5 -40t-34.5 -28t-50 -10.5q-35 0 -55 8.5t-33 19t-24.5 19.5t-30.5 9q-17 0 -28 -11t-13 -32v-10h-79q-1 3 -1 7v11q0 24 6 46.5t19.5 40t34 28t50.5 10.5q35 0 54.5 -9t33 -19.5t24.5 -19t30 -8.5q37 0 42 42
v10h78zM51 0v512h106v-512h-106z" />
    <glyph glyph-name="Imacron" unicode="&#x12a;" horiz-adv-x="240" 
d="M1 706v87h236v-87h-236zM66 0v640h110v-640h-110z" />
    <glyph glyph-name="imacron" unicode="&#x12b;" horiz-adv-x="206" 
d="M51 0v512h106v-512h-106zM-20 577v88h235v-88h-235z" />
    <glyph glyph-name="Ibreve" unicode="&#x12c;" horiz-adv-x="240" 
d="M280 835q0 -47 -10.5 -77t-30 -47.5t-46 -24t-57.5 -6.5h-36q-32 0 -57 8t-42.5 26.5t-26.5 48t-9 72.5h95q0 -35 14 -52t46 -17l2 1q36 0 49 19t13 49h96zM66 0v640h110v-640h-110z" />
    <glyph glyph-name="ibreve" unicode="&#x12d;" horiz-adv-x="206" 
d="M262 702q0 -47 -10.5 -77t-29.5 -47.5t-45.5 -24t-57.5 -6.5h-37q-64 0 -99.5 35t-35.5 120h95q0 -35 14 -51.5t46 -16.5h3q35 0 48 19t13 49h96zM51 0v512h106v-512h-106z" />
    <glyph glyph-name="Iogonek" unicode="&#x12e;" horiz-adv-x="240" 
d="M134 -183q-94 0 -94 74q0 18 7 36t19 34v679h110v-640q-20 -17 -32.5 -36t-12.5 -33q0 -15 9.5 -22.5t35.5 -7.5v-84h-42z" />
    <glyph glyph-name="iogonek" unicode="&#x12f;" horiz-adv-x="206" 
d="M117 -183q-93 0 -93 74q0 18 7 36t19 34v551h106v-512q-20 -17 -32.5 -36t-12.5 -33q0 -15 9.5 -22.5t35.5 -7.5v-84h-39zM180 635q0 -38 -20.5 -51t-55.5 -13q-36 0 -57.5 13t-21.5 51q0 39 21.5 52t57.5 13q35 0 55.5 -13t20.5 -52z" />
    <glyph glyph-name="Idotaccent" unicode="&#x130;" horiz-adv-x="240" 
d="M66 0v640h110v-640h-110zM205 748q0 -19 -3 -31t-12 -19t-25.5 -10t-43.5 -3q-28 0 -44.5 3t-25.5 10t-12 19t-3 31q0 21 3 34t12 20.5t25.5 10t44.5 2.5q27 0 43.5 -2.5t25.5 -10t12 -20.5t3 -34z" />
    <glyph glyph-name="dotlessi" unicode="&#x131;" horiz-adv-x="206" 
d="M51 0v512h106v-512h-106z" />
    <glyph glyph-name="Jcircumflex" unicode="&#x134;" horiz-adv-x="339" 
d="M341 761v-94l-122 72l-124 -72v94l124 71zM275 189q0 -50 -8 -86.5t-29 -60.5t-57 -35.5t-92 -11.5q-38 0 -89 6v88q17 -3 31.5 -4t28.5 -1q32 0 52.5 7t32 20t15.5 31.5t4 41.5v456h110z" />
    <glyph glyph-name="jcircumflex" unicode="&#x135;" horiz-adv-x="202" 
d="M159 -46q0 -78 -34.5 -117.5t-114.5 -39.5q-14 0 -30 1.5t-34 3.5v89q12 -2 22.5 -3t18.5 -1q39 0 52 17t13 48v560h105zM221 631v-88l-116 83l-116 -83v88l116 84z" />
    <glyph glyph-name="uni0136" unicode="&#x136;" horiz-adv-x="567" 
d="M450 0l-274 299v-299h-110v640h110v-278l258 278h148l-310 -305l327 -335h-149zM342 -253h-70l15 97q-26 0 -45.5 14.5t-19.5 44.5q0 37 21 50.5t53 13.5q38 0 59 -19t14 -57z" />
    <glyph glyph-name="uni0137" unicode="&#x137;" horiz-adv-x="521" 
d="M375 0l-216 230v-230h-107v707h107v-396l193 201h149l-261 -242l281 -270h-146zM307 -253h-70l15 97q-26 0 -45.5 14.5t-19.5 44.5q0 37 21 50.5t53 13.5q38 0 59 -19t14 -57z" />
    <glyph glyph-name="kgreenlandic" unicode="&#x138;" horiz-adv-x="521" 
d="M375 0l-216 230v-230h-107v512h107v-201l195 201h148l-262 -242l281 -270h-146z" />
    <glyph glyph-name="Lacute" unicode="&#x139;" horiz-adv-x="436" 
d="M212 736l-178 -62v86l178 65v-89zM69 0v640h110v-550h243v-90h-353z" />
    <glyph glyph-name="lacute" unicode="&#x13a;" horiz-adv-x="211" 
d="M227 804l-243 -70v88l243 70v-88zM52 0v707h107v-707h-107z" />
    <glyph glyph-name="uni013B" unicode="&#x13b;" horiz-adv-x="436" 
d="M69 0v640h110v-550h243v-90h-353zM285 -253h-70l15 97q-26 0 -45.5 14.5t-19.5 44.5q0 37 21 50.5t53 13.5q38 0 59 -19t14 -57z" />
    <glyph glyph-name="uni013C" unicode="&#x13c;" horiz-adv-x="211" 
d="M52 0v707h107v-707h-107zM152 -253h-70l15 97q-26 0 -45.5 14.5t-19.5 44.5q0 37 21 50.5t53 13.5q38 0 59 -19t14 -57z" />
    <glyph glyph-name="Lcaron" unicode="&#x13d;" horiz-adv-x="436" 
d="M69 0v640h110v-550h243v-90h-353zM343 394h-69l9 126q-34 0 -51 15t-17 49q0 39 21.5 51t56.5 12q39 0 59.5 -17.5t13.5 -66.5z" />
    <glyph glyph-name="lcaron" unicode="&#x13e;" horiz-adv-x="358" 
d="M52 0v707h107v-707h-107zM323 394h-69l9 126q-34 0 -51 15t-17 49q0 39 21.5 51t56.5 12q39 0 59.5 -17.5t13.5 -66.5z" />
    <glyph glyph-name="Ldot" unicode="&#x13f;" horiz-adv-x="436" 
d="M69 0v640h110v-550h243v-90h-353zM388 321q0 -38 -20 -50t-55 -12t-55.5 12t-20.5 50q0 40 20.5 52t55.5 12t55 -12t20 -52z" />
    <glyph glyph-name="ldot" unicode="&#x140;" horiz-adv-x="362" 
d="M52 0v707h107v-707h-107zM348 321q0 -38 -20 -50t-55 -12t-55.5 12t-20.5 50q0 40 20.5 52t55.5 12t55 -12t20 -52z" />
    <glyph glyph-name="Lslash" unicode="&#x141;" horiz-adv-x="435" 
d="M69 292v348h110v-300l160 70v-88l-160 -69v-163h243v-90h-353v204l-68 -31v88z" />
    <glyph glyph-name="lslash" unicode="&#x142;" horiz-adv-x="267" 
d="M81 0v187l-71 -27v82l71 26v439h106v-393l70 27v-82l-70 -27v-232h-106z" />
    <glyph glyph-name="Nacute" unicode="&#x143;" horiz-adv-x="716" 
d="M514 0l-335 500v-500h-110v640h141l330 -496v496h110v-640h-136zM573 747l-431 -70v89l431 70v-89z" />
    <glyph glyph-name="nacute" unicode="&#x144;" horiz-adv-x="566" 
d="M416 0v285q0 34 -4 61t-17.5 45.5t-38 28.5t-65.5 10t-66.5 -9.5t-40 -28.5t-20 -46t-5.5 -61v-285h-107v512h58l24 -72q6 13 20 27t36.5 25.5t54.5 19t76 7.5q63 0 102.5 -17.5t61 -49.5t29.5 -77t8 -99v-276h-106zM504 621l-431 -70v89l431 70v-89z" />
    <glyph glyph-name="uni0145" unicode="&#x145;" horiz-adv-x="716" 
d="M514 0l-335 500v-500h-110v640h141l330 -496v496h110v-640h-136zM403 -253h-70l15 97q-26 0 -45.5 14.5t-19.5 44.5q0 37 21 50.5t53 13.5q38 0 59 -19t14 -57z" />
    <glyph glyph-name="uni0146" unicode="&#x146;" horiz-adv-x="566" 
d="M416 0v285q0 34 -4 61t-17.5 45.5t-38 28.5t-65.5 10t-66.5 -9.5t-40 -28.5t-20 -46t-5.5 -61v-285h-107v512h58l24 -72q6 13 20 27t36.5 25.5t54.5 19t76 7.5q63 0 102.5 -17.5t61 -49.5t29.5 -77t8 -99v-276h-106zM335 -253h-70l15 97q-26 0 -45.5 14.5t-19.5 44.5
q0 37 21 50.5t53 13.5q38 0 59 -19t14 -57z" />
    <glyph glyph-name="Ncaron" unicode="&#x147;" horiz-adv-x="716" 
d="M514 0l-335 500v-500h-110v640h141l330 -496v496h110v-640h-136zM357 675l-216 83v89l216 -84l216 84v-89z" />
    <glyph glyph-name="ncaron" unicode="&#x148;" horiz-adv-x="566" 
d="M416 0v285q0 34 -4 61t-17.5 45.5t-38 28.5t-65.5 10t-66.5 -9.5t-40 -28.5t-20 -46t-5.5 -61v-285h-107v512h58l24 -72q6 13 20 27t36.5 25.5t54.5 19t76 7.5q63 0 102.5 -17.5t61 -49.5t29.5 -77t8 -99v-276h-106zM290 549l-216 83v89l216 -84l216 84v-89z" />
    <glyph glyph-name="Eng" unicode="&#x14a;" horiz-adv-x="716" 
d="M650 -13q0 -49 -8 -85.5t-29 -60.5t-57 -36t-92 -12q-20 0 -41.5 2t-47.5 4v88q17 -3 31.5 -4t28.5 -1q57 0 79 21.5t25 59.5l-360 538v-501h-110v640h141l330 -496v496h110v-653z" />
    <glyph glyph-name="eng" unicode="&#x14b;" horiz-adv-x="566" 
d="M522 -50q0 -78 -33.5 -117.5t-113.5 -39.5q-14 0 -30 1.5t-34 3.5v89q12 -2 22.5 -3t18.5 -1q38 0 51 17t13 48v337q0 34 -4 61t-17.5 45.5t-38 28.5t-65.5 10t-66.5 -9.5t-40 -28.5t-20 -46t-5.5 -61v-285h-107v512h58l24 -72q6 13 20 27t36.5 25.5t54.5 19t76 7.5
q63 0 102.5 -17.5t61 -49.5t29.5 -77t8 -99v-326z" />
    <glyph glyph-name="Omacron" unicode="&#x14c;" horiz-adv-x="701" 
d="M655 319q0 -65 -13 -124t-47 -104t-93 -71.5t-152 -26.5q-92 0 -151.5 26.5t-93.5 71.5t-47 104.5t-13 125.5t13 125t47.5 103.5t93.5 71t151 26.5q93 0 152 -26.5t93 -71.5t47 -104.5t13 -125.5zM544 319q0 50 -7.5 93t-29 75t-59.5 50.5t-98 18.5t-97.5 -18.5
t-58.5 -50t-29 -74.5t-8 -92q0 -50 8 -93t29 -75t58.5 -50.5t97.5 -18.5t98 18.5t59.5 50.5t29 74.5t7.5 91.5zM129 703v88h439v-88h-439z" />
    <glyph glyph-name="omacron" unicode="&#x14d;" horiz-adv-x="572" 
d="M540 256q0 -51 -11.5 -98.5t-41 -84t-78.5 -58.5t-124 -22t-124 22t-77.5 58.5t-40 84t-11.5 98.5t11.5 98t40 84t78 59t124.5 22t124 -22t78 -59t40.5 -84t11.5 -98zM431 256q0 36 -5.5 68t-21.5 56t-44.5 38t-73.5 14t-73 -14t-44 -38t-22 -56t-6 -68t6 -68t22 -56
t44 -38t72 -14q45 0 73.5 13.5t44.5 37.5t22 56t6 69zM56 577v88h439v-88h-439z" />
    <glyph glyph-name="Obreve" unicode="&#x14e;" horiz-adv-x="701" 
d="M655 319q0 -65 -13 -124t-47 -104t-93 -71.5t-152 -26.5q-92 0 -151.5 26.5t-93.5 71.5t-47 104.5t-13 125.5t13 125t47.5 103.5t93.5 71t151 26.5q93 0 152 -26.5t93 -71.5t47 -104.5t13 -125.5zM544 319q0 50 -7.5 93t-29 75t-59.5 50.5t-98 18.5t-97.5 -18.5
t-58.5 -50t-29 -74.5t-8 -92q0 -50 8 -93t29 -75t58.5 -50.5t97.5 -18.5t98 18.5t59.5 50.5t29 74.5t7.5 91.5zM545 846q0 -47 -10.5 -76.5t-30 -46.5t-46 -23.5t-57.5 -6.5h-111q-32 0 -57 8t-42.5 26t-26.5 47t-9 72h93q0 -35 14 -52.5t46 -17.5h82q36 0 48.5 20t12.5 50
h94z" />
    <glyph glyph-name="obreve" unicode="&#x14f;" horiz-adv-x="572" 
d="M540 256q0 -51 -11.5 -98.5t-41 -84t-78.5 -58.5t-124 -22t-124 22t-77.5 58.5t-40 84t-11.5 98.5t11.5 98t40 84t78 59t124.5 22t124 -22t78 -59t40.5 -84t11.5 -98zM431 256q0 36 -5.5 68t-21.5 56t-44.5 38t-73.5 14t-73 -14t-44 -38t-22 -56t-6 -68t6 -68t22 -56
t44 -38t72 -14q45 0 73.5 13.5t44.5 37.5t22 56t6 69zM481 720q0 -47 -10.5 -76.5t-30 -46.5t-46 -23.5t-57.5 -6.5h-111q-32 0 -57 8t-42.5 26t-26.5 47t-9 72h93q0 -35 14 -52.5t46 -17.5h82q36 0 48.5 20t12.5 50h94z" />
    <glyph glyph-name="Ohungarumlaut" unicode="&#x150;" horiz-adv-x="701" 
d="M655 319q0 -65 -13 -124t-47 -104t-93 -71.5t-152 -26.5q-92 0 -151.5 26.5t-93.5 71.5t-47 104.5t-13 125.5t13 125t47.5 103.5t93.5 71t151 26.5q93 0 152 -26.5t93 -71.5t47 -104.5t13 -125.5zM544 319q0 50 -7.5 93t-29 75t-59.5 50.5t-98 18.5t-97.5 -18.5
t-58.5 -50t-29 -74.5t-8 -92q0 -50 8 -93t29 -75t58.5 -50.5t97.5 -18.5t98 18.5t59.5 50.5t29 74.5t7.5 91.5zM382 682l-2 90l196 51l2 -88zM122 682l-1 90l196 51l1 -88z" />
    <glyph glyph-name="ohungarumlaut" unicode="&#x151;" horiz-adv-x="572" 
d="M540 256q0 -51 -11.5 -98.5t-41 -84t-78.5 -58.5t-124 -22t-124 22t-77.5 58.5t-40 84t-11.5 98.5t11.5 98t40 84t78 59t124.5 22t124 -22t78 -59t40.5 -84t11.5 -98zM431 256q0 36 -5.5 68t-21.5 56t-44.5 38t-73.5 14t-73 -14t-44 -38t-22 -56t-6 -68t6 -68t22 -56
t44 -38t72 -14q45 0 73.5 13.5t44.5 37.5t22 56t6 69zM318 556l-2 90l196 51l2 -88zM58 556l-1 90l196 51l1 -88z" />
    <glyph glyph-name="OE" unicode="&#x152;" horiz-adv-x="1035" 
d="M550 0l1 87q-29 -42 -76.5 -68t-122.5 -26q-93 0 -152.5 26.5t-94 71.5t-47.5 104t-13 125t13.5 125t48 104t94 71.5t151.5 26.5q74 0 122 -27t77 -68l-1 88h445v-90h-335v-178h305v-92h-305v-190h335v-90h-445zM550 319q0 49 -9.5 91.5t-32.5 74t-61 49t-95 17.5
q-55 0 -92.5 -17.5t-60 -48.5t-32.5 -73.5t-10 -91.5t9.5 -91.5t32.5 -73.5t60 -48.5t93 -17.5q57 0 95 17.5t61 48.5t32.5 73t9.5 91z" />
    <glyph glyph-name="oe" unicode="&#x153;" horiz-adv-x="985" 
d="M956 157q-3 -33 -17.5 -62.5t-43 -52t-72 -36t-106.5 -13.5q-47 0 -81.5 8.5t-59.5 23.5t-41 35.5t-25 44.5q-11 -24 -28 -44.5t-42.5 -35.5t-60.5 -23.5t-82 -8.5q-80 0 -131.5 22t-81 59t-41 84t-11.5 98t11.5 98t41 84t81 59t131.5 22q46 0 81 -8.5t60.5 -23.5
t42.5 -35.5t28 -44.5q9 24 25 44.5t41 35.5t59.5 23.5t81.5 8.5q75 0 123.5 -24.5t75.5 -66t35.5 -97t4.5 -117.5h-390q8 -133 149 -133q32 0 55 6t38.5 16.5t24 24.5t12.5 29h112zM845 301q0 28 -8 51.5t-24.5 41t-43 27.5t-62.5 10q-38 0 -64 -10t-43 -28t-25 -42t-10 -52
h279l1 1v1zM455 256q0 36 -6 68t-23 56t-47.5 38.5t-79.5 14.5t-79.5 -14t-48 -38t-24 -56t-6.5 -69t6.5 -69.5t23.5 -56.5t47.5 -37.5t78.5 -13.5q49 0 79.5 13.5t48 37.5t24 56t6.5 70z" />
    <glyph glyph-name="Racute" unicode="&#x154;" horiz-adv-x="605" 
d="M434 0l-258 251v-251h-110v640h228q90 0 143 -20.5t80.5 -51.5t35 -66.5t7.5 -66.5q0 -59 -21.5 -97t-57 -60t-80 -30t-90.5 -8l271 -240h-148zM449 435q0 19 -5 39t-21 37t-45.5 28t-78.5 11h-123v-228h125q49 0 78 10.5t44.5 27t20.5 36.5t5 39zM517 747l-431 -70v89
l431 70v-89z" />
    <glyph glyph-name="racute" unicode="&#x155;" horiz-adv-x="321" 
d="M316 626l-265 -70v89l265 70v-89zM316 424q-8 0 -15 1t-14 1q-40 0 -65 -10.5t-39 -29.5t-19 -45t-5 -57v-284h-107v512h57l25 -71q6 13 18.5 26.5t32.5 25t48 19t66 7.5h17v-95z" />
    <glyph glyph-name="uni0156" unicode="&#x156;" horiz-adv-x="605" 
d="M434 0l-258 251v-251h-110v640h228q90 0 143 -20.5t80.5 -51.5t35 -66.5t7.5 -66.5q0 -59 -21.5 -97t-57 -60t-80 -30t-90.5 -8l271 -240h-148zM449 435q0 19 -5 39t-21 37t-45.5 28t-78.5 11h-123v-228h125q49 0 78 10.5t44.5 27t20.5 36.5t5 39zM345 -253h-70l15 97
q-26 0 -45.5 14.5t-19.5 44.5q0 37 21 50.5t53 13.5q38 0 59 -19t14 -57z" />
    <glyph glyph-name="uni0157" unicode="&#x157;" horiz-adv-x="321" 
d="M316 424q-8 0 -15 1t-14 1q-40 0 -65 -10.5t-39 -29.5t-19 -45t-5 -57v-284h-107v512h57l25 -71q6 13 18.5 26.5t32.5 25t48 19t66 7.5h17v-95zM152 -253h-70l15 97q-26 0 -45.5 14.5t-19.5 44.5q0 37 21 50.5t53 13.5q38 0 59 -19t14 -57z" />
    <glyph glyph-name="Rcaron" unicode="&#x158;" horiz-adv-x="605" 
d="M434 0l-258 251v-251h-110v640h228q90 0 143 -20.5t80.5 -51.5t35 -66.5t7.5 -66.5q0 -59 -21.5 -97t-57 -60t-80 -30t-90.5 -8l271 -240h-148zM449 435q0 19 -5 39t-21 37t-45.5 28t-78.5 11h-123v-228h125q49 0 78 10.5t44.5 27t20.5 36.5t5 39zM302 675l-216 83v89
l216 -84l216 84v-89z" />
    <glyph glyph-name="rcaron" unicode="&#x159;" horiz-adv-x="321" 
d="M174 557l-142 58v99l142 -65l141 65v-99zM316 424q-8 0 -15 1t-14 1q-40 0 -65 -10.5t-39 -29.5t-19 -45t-5 -57v-284h-107v512h57l25 -71q6 13 18.5 26.5t32.5 25t48 19t66 7.5h17v-95z" />
    <glyph glyph-name="Sacute" unicode="&#x15a;" horiz-adv-x="642" 
d="M594 187q0 -34 -12 -68.5t-42 -62.5t-80 -45.5t-125 -17.5q-79 0 -133.5 16.5t-88.5 47.5t-49.5 74.5t-16.5 97.5h110q1 -30 10.5 -56t29.5 -44.5t53 -29.5t82 -11q46 0 75.5 7.5t47 20.5t24.5 30t7 36q0 28 -18 45.5t-47.5 28.5t-67 18t-76.5 14.5t-77 18.5t-67.5 29
t-48 45.5t-19.5 69.5q0 43 14 79t45 62t79.5 40.5t117.5 14.5t119 -16t82 -45t47.5 -71t15.5 -93h-109q-4 66 -40.5 99.5t-118.5 33.5q-75 0 -109 -24t-34 -69q0 -26 18 -42t47.5 -26t67.5 -17t77 -15.5t77 -20t67.5 -31t47.5 -49.5t18 -74zM536 747l-431 -70v89l431 70v-89
z" />
    <glyph glyph-name="sacute" unicode="&#x15b;" horiz-adv-x="524" 
d="M497 148q0 -28 -12.5 -56t-39.5 -50t-69.5 -35.5t-103.5 -13.5q-130 0 -188.5 50t-58.5 148h105q0 -53 32.5 -83t107.5 -30q34 0 57 6t37.5 15t20.5 20.5t7 22.5q1 28 -25.5 42.5t-66 23.5t-86 17t-86.5 23t-66.5 41.5t-26.5 72.5q0 34 12 62.5t39 49.5t69.5 33t103.5 12
q62 0 105 -14t69.5 -39t38.5 -60.5t12 -77.5h-100q-2 25 -8.5 45t-21.5 34t-39 21.5t-59 7.5q-32 0 -54 -5.5t-35.5 -14.5t-19.5 -21t-6 -24q0 -25 26.5 -37.5t66 -21.5t85.5 -17.5t85.5 -25t66 -45t26.5 -76.5zM477 621l-431 -70v89l431 70v-89z" />
    <glyph glyph-name="Scircumflex" unicode="&#x15c;" horiz-adv-x="642" 
d="M594 187q0 -34 -12 -68.5t-42 -62.5t-80 -45.5t-125 -17.5q-79 0 -133.5 16.5t-88.5 47.5t-49.5 74.5t-16.5 97.5h110q1 -30 10.5 -56t29.5 -44.5t53 -29.5t82 -11q46 0 75.5 7.5t47 20.5t24.5 30t7 36q0 28 -18 45.5t-47.5 28.5t-67 18t-76.5 14.5t-77 18.5t-67.5 29
t-48 45.5t-19.5 69.5q0 43 14 79t45 62t79.5 40.5t117.5 14.5t119 -16t82 -45t47.5 -71t15.5 -93h-109q-4 66 -40.5 99.5t-118.5 33.5q-75 0 -109 -24t-34 -69q0 -26 18 -42t47.5 -26t67.5 -17t77 -15.5t77 -20t67.5 -31t47.5 -49.5t18 -74zM538 763v-88l-216 83l-216 -83
v88l216 84z" />
    <glyph glyph-name="scircumflex" unicode="&#x15d;" horiz-adv-x="524" 
d="M497 148q0 -28 -12.5 -56t-39.5 -50t-69.5 -35.5t-103.5 -13.5q-130 0 -188.5 50t-58.5 148h105q0 -53 32.5 -83t107.5 -30q34 0 57 6t37.5 15t20.5 20.5t7 22.5q1 28 -25.5 42.5t-66 23.5t-86 17t-86.5 23t-66.5 41.5t-26.5 72.5q0 34 12 62.5t39 49.5t69.5 33t103.5 12
q62 0 105 -14t69.5 -39t38.5 -60.5t12 -77.5h-100q-2 25 -8.5 45t-21.5 34t-39 21.5t-59 7.5q-32 0 -54 -5.5t-35.5 -14.5t-19.5 -21t-6 -24q0 -25 26.5 -37.5t66 -21.5t85.5 -17.5t85.5 -25t66 -45t26.5 -76.5zM479 637v-88l-216 83l-216 -83v88l216 84z" />
    <glyph glyph-name="Scedilla" unicode="&#x15e;" horiz-adv-x="642" 
d="M594 187q0 -32 -10.5 -64t-35.5 -59t-67.5 -46t-105.5 -23q-2 -44 -13 -72t-30 -44t-45 -22.5t-56 -6.5h-134v86h120q32 0 46 16.5t16 42.5q-63 6 -107 25t-71.5 49t-40 70.5t-13.5 89.5h110q1 -30 10.5 -56t29.5 -45t53 -30t82 -11q44 0 73.5 7.5t47 19.5t25 28.5
t8.5 34.5q2 30 -15 48t-46 29.5t-67 19t-77.5 15t-78 18t-68.5 28.5t-49 46t-20 70q-1 43 13 79t45.5 62t80.5 40.5t117 14.5q69 0 119 -16t82 -45t47.5 -71t15.5 -93h-109q-4 66 -40.5 99.5t-118.5 33.5q-77 0 -111 -25.5t-32 -73.5q1 -32 33 -48.5t78.5 -26.5t100.5 -20
t100.5 -29t77 -53t30.5 -92z" />
    <glyph glyph-name="scedilla" unicode="&#x15f;" horiz-adv-x="524" 
d="M497 149q0 -25 -9.5 -50t-30.5 -46t-54 -36.5t-79 -20.5q-2 -44 -13 -72t-30 -44.5t-45 -23t-56 -6.5h-124v86h110q32 0 45.5 17t15.5 43q-107 8 -154.5 56t-47.5 138h105q0 -53 32.5 -83t107.5 -30q34 0 57.5 6t37.5 15.5t20.5 21.5t6.5 23q0 28 -26 42t-65.5 23
t-85.5 16.5t-85.5 22.5t-66.5 41.5t-28 72.5q0 34 12 63t39 50t69.5 33t103.5 12q62 0 105 -14t69.5 -39t38.5 -60.5t12 -77.5h-100q-2 25 -8.5 45t-21.5 34t-39 21.5t-59 7.5q-33 0 -55 -5.5t-35.5 -14.5t-19 -21t-5.5 -25q0 -25 26.5 -37.5t66 -21t85.5 -17t85.5 -25
t66 -44.5t26.5 -76z" />
    <glyph glyph-name="Scaron" unicode="&#x160;" horiz-adv-x="642" 
d="M594 187q0 -34 -12 -68.5t-42 -62.5t-80 -45.5t-125 -17.5q-79 0 -133.5 16.5t-88.5 47.5t-49.5 74.5t-16.5 97.5h110q1 -30 10.5 -56t29.5 -44.5t53 -29.5t82 -11q46 0 75.5 7.5t47 20.5t24.5 30t7 36q0 28 -18 45.5t-47.5 28.5t-67 18t-76.5 14.5t-77 18.5t-67.5 29
t-48 45.5t-19.5 69.5q0 43 14 79t45 62t79.5 40.5t117.5 14.5t119 -16t82 -45t47.5 -71t15.5 -93h-109q-4 66 -40.5 99.5t-118.5 33.5q-75 0 -109 -24t-34 -69q0 -26 18 -42t47.5 -26t67.5 -17t77 -15.5t77 -20t67.5 -31t47.5 -49.5t18 -74zM326 676l-216 83v89l216 -84
l216 84v-89z" />
    <glyph glyph-name="scaron" unicode="&#x161;" horiz-adv-x="524" 
d="M497 148q0 -28 -12.5 -56t-39.5 -50t-69.5 -35.5t-103.5 -13.5q-130 0 -188.5 50t-58.5 148h105q0 -53 32.5 -83t107.5 -30q34 0 57 6t37.5 15t20.5 20.5t7 22.5q1 28 -25.5 42.5t-66 23.5t-86 17t-86.5 23t-66.5 41.5t-26.5 72.5q0 34 12 62.5t39 49.5t69.5 33t103.5 12
q62 0 105 -14t69.5 -39t38.5 -60.5t12 -77.5h-100q-2 25 -8.5 45t-21.5 34t-39 21.5t-59 7.5q-32 0 -54 -5.5t-35.5 -14.5t-19.5 -21t-6 -24q0 -25 26.5 -37.5t66 -21.5t85.5 -17.5t85.5 -25t66 -45t26.5 -76.5zM262 549l-216 83v89l216 -84l216 84v-89z" />
    <glyph glyph-name="Tcaron" unicode="&#x164;" horiz-adv-x="496" 
d="M302 550v-550h-107v550h-184v90h475v-90h-184zM248 675l-216 83v89l216 -84l216 84v-89z" />
    <glyph glyph-name="tcaron" unicode="&#x165;" horiz-adv-x="337" 
d="M189 426v-279q0 -18 5 -31t19 -21.5t39.5 -11.5t67.5 -1v-86q-63 -4 -108.5 2t-75 24t-43 49t-13.5 76v279h-73v64l73 22v128h106v-128h134v-86h-131zM320 540h-69l9 126q-34 0 -51 15t-17 49q0 39 21.5 51t56.5 12q39 0 59.5 -17.5t13.5 -66.5z" />
    <glyph glyph-name="Tbar" unicode="&#x166;" horiz-adv-x="496" 
d="M302 272v-272h-107v272h-93v83h93v194h-184v91h475v-91h-184v-194h92v-83h-92z" />
    <glyph glyph-name="tbar" unicode="&#x167;" horiz-adv-x="337" 
d="M189 425v-104h123v-86h-123v-88q0 -18 5 -31t19 -21.5t39.5 -11.5t67.5 -1v-86q-63 -4 -108.5 2t-75 24t-43 49t-13.5 76v88h-71v86h71v104h-73v64l73 23v128h106v-128h134v-87h-131z" />
    <glyph glyph-name="Utilde" unicode="&#x168;" horiz-adv-x="654" 
d="M600 287q0 -78 -15 -134t-48 -91.5t-85 -52t-125 -16.5t-124.5 16.5t-84.5 52t-48 91.5t-15 134v353h111v-348q0 -50 6.5 -87.5t24.5 -63t49.5 -38.5t80.5 -13t80.5 13t49.5 38.5t25 63t7 87.5v348h111v-353zM565 823q0 -28 -5 -51t-19.5 -40t-39.5 -26.5t-65 -9.5
q-34 0 -63 11t-54.5 24.5t-48 25t-43.5 11.5q-34 0 -45.5 -16.5t-13.5 -47.5h-80q-1 3 -1 7v12q0 24 5.5 47.5t20 42t40 30t65.5 11.5q33 0 60 -11t51 -24t47 -24t49 -11q20 0 31.5 4.5t17.5 12.5t7.5 19.5t1.5 25.5h80q0 -4 1 -8q0 -4 0.5 -7.5t0.5 -7.5z" />
    <glyph glyph-name="utilde" unicode="&#x169;" horiz-adv-x="566" 
d="M456 0l-22 74q-7 -14 -21 -28.5t-37 -26t-55 -19t-75 -7.5q-63 0 -102.5 17t-61.5 48t-30 75t-8 98v281h105v-289q0 -35 4.5 -61t18 -43.5t38.5 -26.5t66 -9q40 0 66 9.5t40 28t19.5 45.5t5.5 62v284h108v-512h-59zM523 684q0 -28 -5 -51t-19.5 -40t-39.5 -26.5t-65 -9.5
q-34 0 -63 11t-54.5 24.5t-48 25t-43.5 11.5q-34 0 -45.5 -16.5t-13.5 -47.5h-80q-1 3 -1 7v12q0 24 5.5 47.5t20 42t40 30t65.5 11.5q33 0 60 -11t51 -24t47 -24t49 -11q20 0 31.5 4.5t17.5 12.5t7.5 19.5t1.5 25.5h80q0 -4 1 -8q0 -4 0.5 -7.5t0.5 -7.5z" />
    <glyph glyph-name="Umacron" unicode="&#x16a;" horiz-adv-x="654" 
d="M600 287q0 -78 -15 -134t-48 -91.5t-85 -52t-125 -16.5t-124.5 16.5t-84.5 52t-48 91.5t-15 134v353h111v-348q0 -50 6.5 -87.5t24.5 -63t49.5 -38.5t80.5 -13t80.5 13t49.5 38.5t25 63t7 87.5v348h111v-353zM102 703v88h439v-88h-439z" />
    <glyph glyph-name="umacron" unicode="&#x16b;" horiz-adv-x="566" 
d="M456 0l-22 74q-7 -14 -21 -28.5t-37 -26t-55 -19t-75 -7.5q-63 0 -102.5 17t-61.5 48t-30 75t-8 98v281h105v-289q0 -35 4.5 -61t18 -43.5t38.5 -26.5t66 -9q40 0 66 9.5t40 28t19.5 45.5t5.5 62v284h108v-512h-59zM53 577v88h439v-88h-439z" />
    <glyph glyph-name="Ubreve" unicode="&#x16c;" horiz-adv-x="654" 
d="M600 287q0 -78 -15 -134t-48 -91.5t-85 -52t-125 -16.5t-124.5 16.5t-84.5 52t-48 91.5t-15 134v353h111v-348q0 -50 6.5 -87.5t24.5 -63t49.5 -38.5t80.5 -13t80.5 13t49.5 38.5t25 63t7 87.5v348h111v-353zM521 846q0 -47 -10.5 -76.5t-30 -46.5t-46 -23.5t-57.5 -6.5
h-111q-32 0 -57 8t-42.5 26t-26.5 47t-9 72h93q0 -35 14 -52.5t46 -17.5h82q36 0 48.5 20t12.5 50h94z" />
    <glyph glyph-name="ubreve" unicode="&#x16d;" horiz-adv-x="566" 
d="M456 0l-22 74q-7 -14 -21 -28.5t-37 -26t-55 -19t-75 -7.5q-63 0 -102.5 17t-61.5 48t-30 75t-8 98v281h105v-289q0 -35 4.5 -61t18 -43.5t38.5 -26.5t66 -9q40 0 66 9.5t40 28t19.5 45.5t5.5 62v284h108v-512h-59zM478 720q0 -47 -10.5 -76.5t-30 -46.5t-46 -23.5
t-57.5 -6.5h-111q-32 0 -57 8t-42.5 26t-26.5 47t-9 72h93q0 -35 14 -52.5t46 -17.5h82q36 0 48.5 20t12.5 50h94z" />
    <glyph glyph-name="Uring" unicode="&#x16e;" horiz-adv-x="654" 
d="M600 287q0 -78 -15 -134t-48 -91.5t-85 -52t-125 -16.5t-124.5 16.5t-84.5 52t-48 91.5t-15 134v353h111v-348q0 -50 6.5 -87.5t24.5 -63t49.5 -38.5t80.5 -13t80.5 13t49.5 38.5t25 63t7 87.5v348h111v-353zM476 795q0 -62 -33 -89.5t-116 -27.5q-43 0 -71.5 6.5t-46 21
t-25 36.5t-7.5 53q0 30 7.5 52t25 36t46 20.5t71.5 6.5q82 0 115.5 -27t33.5 -88zM395 795q0 28 -18 35t-50 7q-33 0 -51 -7t-18 -35q0 -29 18 -36.5t51 -7.5q31 0 49.5 7.5t18.5 36.5z" />
    <glyph glyph-name="uring" unicode="&#x16f;" horiz-adv-x="566" 
d="M456 0l-22 74q-7 -14 -21 -28.5t-37 -26t-55 -19t-75 -7.5q-63 0 -102.5 17t-61.5 48t-30 75t-8 98v281h105v-289q0 -35 4.5 -61t18 -43.5t38.5 -26.5t66 -9q40 0 66 9.5t40 28t19.5 45.5t5.5 62v284h108v-512h-59zM432 669q0 -62 -33 -89.5t-116 -27.5q-43 0 -71.5 6.5
t-46 21t-25 36.5t-7.5 53q0 30 7.5 52t25 36t46 20.5t71.5 6.5q82 0 115.5 -27t33.5 -88zM351 669q0 28 -18 35t-50 7q-33 0 -51 -7t-18 -35q0 -29 18 -36.5t51 -7.5q31 0 49.5 7.5t18.5 36.5z" />
    <glyph glyph-name="Uhungarumlaut" unicode="&#x170;" horiz-adv-x="654" 
d="M600 287q0 -78 -15 -134t-48 -91.5t-85 -52t-125 -16.5t-124.5 16.5t-84.5 52t-48 91.5t-15 134v353h111v-348q0 -50 6.5 -87.5t24.5 -63t49.5 -38.5t80.5 -13t80.5 13t49.5 38.5t25 63t7 87.5v348h111v-353zM358 687l-2 90l196 51l2 -88zM98 687l-1 90l196 51l1 -88z
" />
    <glyph glyph-name="uhungarumlaut" unicode="&#x171;" horiz-adv-x="566" 
d="M456 0l-22 74q-7 -14 -21 -28.5t-37 -26t-55 -19t-75 -7.5q-63 0 -102.5 17t-61.5 48t-30 75t-8 98v281h105v-289q0 -35 4.5 -61t18 -43.5t38.5 -26.5t66 -9q40 0 66 9.5t40 28t19.5 45.5t5.5 62v284h108v-512h-59zM315 556l-2 90l196 51l2 -88zM55 556l-1 90l196 51
l1 -88z" />
    <glyph glyph-name="Uogonek" unicode="&#x172;" horiz-adv-x="654" 
d="M376 -183q-94 0 -94 74q0 27 14 54t35 47h-4q-73 0 -124.5 16.5t-84.5 52t-48 91.5t-15 134v354h111v-349q0 -50 6.5 -87.5t24.5 -63t49.5 -38.5t80.5 -13t80.5 13t49.5 38.5t25 63t7 87.5v349h111v-354q0 -131 -43.5 -199.5t-142.5 -86.5q-20 -17 -32 -38t-12 -35
q0 -15 9.5 -22.5t35.5 -7.5v-80h-39z" />
    <glyph glyph-name="uogonek" unicode="&#x173;" horiz-adv-x="566" 
d="M476 -183q-94 0 -94 74q0 29 19 58.5t43 50.5l10 9l-20 65q-7 -14 -21 -28.5t-37 -26t-55 -19t-75 -7.5q-63 0 -102.5 17t-61.5 48t-30 75.5t-8 98.5v280h105v-288q0 -35 4.5 -61t18 -44t38.5 -27t66 -9q40 0 66 9.5t40 28.5t19.5 46t5.5 62v283h108v-519
q-21 -17 -33 -36t-12 -33q0 -15 9.5 -22.5t35.5 -7.5v-77h-39z" />
    <glyph glyph-name="Wcircumflex" unicode="&#x174;" horiz-adv-x="975" 
d="M776 0h-132l-157 519l-155 -519h-132l-195 640h116l146 -523l158 523h130l157 -523l147 523h111zM704 763v-88l-216 83l-216 -83v88l216 84z" />
    <glyph glyph-name="wcircumflex" unicode="&#x175;" horiz-adv-x="806" 
d="M642 0h-123l-122 401l-120 -401h-117l-150 512h116l98 -412l121 412h105l127 -415l104 415h115zM613 637v-88l-216 83l-216 -83v88l216 84z" />
    <glyph glyph-name="Ycircumflex" unicode="&#x176;" horiz-adv-x="607" 
d="M356 194v-194h-115v194l-242 446h116l185 -361l194 361h115zM519 771v-88l-216 83l-216 -83v88l216 84z" />
    <glyph glyph-name="ycircumflex" unicode="&#x177;" horiz-adv-x="572" 
d="M520 -4q0 -37 -9 -73.5t-34.5 -65t-72.5 -46.5t-123 -18q-71 0 -117 13.5t-72.5 36.5t-37 55t-10.5 70h106q1 -20 6 -37t19 -29.5t39.5 -19.5t67.5 -7t68 9.5t40.5 25t19 36.5t4.5 45v67q-17 -27 -54.5 -46t-108.5 -19q-63 0 -102 17t-61 48t-30 75t-8 99v280h105v-289
q0 -34 4.5 -60t18 -44t38 -27t65.5 -9t67 9.5t40.5 28.5t20 45.5t5.5 61.5v284h106v-516zM503 637v-88l-216 83l-216 -83v88l216 84z" />
    <glyph glyph-name="Ydieresis" unicode="&#x178;" horiz-adv-x="607" 
d="M356 194v-194h-115v194l-242 446h116l185 -361l194 361h115zM471 753q0 -35 -18 -46.5t-50 -11.5q-34 0 -53 11.5t-19 46.5q0 36 19 47t53 11q32 0 50 -11t18 -47zM270 753q0 -35 -18.5 -46.5t-50.5 -11.5q-34 0 -52.5 11.5t-18.5 46.5q0 36 18.5 47t52.5 11
q32 0 50.5 -11t18.5 -47z" />
    <glyph glyph-name="Zacute" unicode="&#x179;" horiz-adv-x="561" 
d="M37 0v108l363 442h-363v90h475v-102l-373 -448h386v-90h-488zM496 747l-431 -70v89l431 70v-89z" />
    <glyph glyph-name="zacute" unicode="&#x17a;" horiz-adv-x="495" 
d="M34 0v91l301 334h-300v87h416v-92l-306 -333h316v-87h-427zM463 621l-431 -70v89l431 70v-89z" />
    <glyph glyph-name="Zdotaccent" unicode="&#x17b;" horiz-adv-x="561" 
d="M37 0v108l363 442h-363v90h475v-102l-373 -448h386v-90h-488zM365 748q0 -19 -3 -31t-12 -19t-25.5 -10t-43.5 -3q-28 0 -44.5 3t-25.5 10t-12 19t-3 31q0 21 3 34t12 20.5t25.5 10t44.5 2.5q27 0 43.5 -2.5t25.5 -10t12 -20.5t3 -34z" />
    <glyph glyph-name="zdotaccent" unicode="&#x17c;" horiz-adv-x="495" 
d="M34 0v91l301 334h-300v87h416v-92l-306 -333h316v-87h-427zM332 622q0 -19 -3 -31t-12 -19t-25.5 -10t-43.5 -3q-28 0 -44.5 3t-25.5 10t-12 19t-3 31q0 21 3 34t12 20.5t25.5 10t44.5 2.5q27 0 43.5 -2.5t25.5 -10t12 -20.5t3 -34z" />
    <glyph glyph-name="Zcaron" unicode="&#x17d;" horiz-adv-x="561" 
d="M37 0v108l363 442h-363v90h475v-102l-373 -448h386v-90h-488zM280 676l-216 83v89l216 -84l216 84v-89z" />
    <glyph glyph-name="zcaron" unicode="&#x17e;" horiz-adv-x="495" 
d="M34 0v91l301 334h-300v87h416v-92l-306 -333h316v-87h-427zM248 549l-216 83v89l216 -84l216 84v-89z" />
    <glyph glyph-name="florin" unicode="&#x192;" horiz-adv-x="331" 
d="M181 -66q0 -83 -50.5 -115t-165.5 -24v88q36 -3 57.5 -0.5t33.5 9t16 17.5t4 25v491h-71v64l71 23v48q0 45 13.5 76t43 49t75 24t108.5 2v-87q-42 2 -67.5 -2t-39.5 -13t-19 -23t-5 -32v-42h131v-87h-134z" />
    <glyph glyph-name="uni0218" unicode="&#x218;" horiz-adv-x="642" 
d="M594 187q0 -34 -12 -68.5t-42 -62.5t-80 -45.5t-125 -17.5q-79 0 -133.5 16.5t-88.5 47.5t-49.5 74.5t-16.5 97.5h110q1 -30 10.5 -56t29.5 -44.5t53 -29.5t82 -11q46 0 75.5 7.5t47 20.5t24.5 30t7 36q0 28 -18 45.5t-47.5 28.5t-67 18t-76.5 14.5t-77 18.5t-67.5 29
t-48 45.5t-19.5 69.5q0 43 14 79t45 62t79.5 40.5t117.5 14.5t119 -16t82 -45t47.5 -71t15.5 -93h-109q-4 66 -40.5 99.5t-118.5 33.5q-75 0 -109 -24t-34 -69q0 -26 18 -42t47.5 -26t67.5 -17t77 -15.5t77 -20t67.5 -31t47.5 -49.5t18 -74zM364 -253h-70l15 97
q-26 0 -45.5 14.5t-19.5 44.5q0 37 21 50.5t53 13.5q38 0 59 -19t14 -57z" />
    <glyph glyph-name="uni0219" unicode="&#x219;" horiz-adv-x="524" 
d="M497 148q0 -28 -12.5 -56t-39.5 -50t-69.5 -35.5t-103.5 -13.5q-130 0 -188.5 50t-58.5 148h105q0 -53 32.5 -83t107.5 -30q34 0 57 6t37.5 15t20.5 20.5t7 22.5q1 28 -25.5 42.5t-66 23.5t-86 17t-86.5 23t-66.5 41.5t-26.5 72.5q0 34 12 62.5t39 49.5t69.5 33t103.5 12
q62 0 105 -14t69.5 -39t38.5 -60.5t12 -77.5h-100q-2 25 -8.5 45t-21.5 34t-39 21.5t-59 7.5q-32 0 -54 -5.5t-35.5 -14.5t-19.5 -21t-6 -24q0 -25 26.5 -37.5t66 -21.5t85.5 -17.5t85.5 -25t66 -45t26.5 -76.5zM298 -253h-70l15 97q-26 0 -45.5 14.5t-19.5 44.5
q0 37 21 50.5t53 13.5q38 0 59 -19t14 -57z" />
    <glyph glyph-name="uni021A" unicode="&#x21a;" horiz-adv-x="496" 
d="M302 550v-550h-107v550h-184v90h475v-90h-184zM290 -253h-70l15 97q-26 0 -45.5 14.5t-19.5 44.5q0 37 21 50.5t53 13.5q38 0 59 -19t14 -57z" />
    <glyph glyph-name="uni021B" unicode="&#x21b;" horiz-adv-x="337" 
d="M189 426v-279q0 -18 5 -31t19 -21.5t39.5 -11.5t67.5 -1v-86q-63 -4 -108.5 2t-75 24t-43 49t-13.5 76v279h-73v64l73 22v128h106v-128h134v-86h-131zM243 -253h-70l15 97q-26 0 -45.5 14.5t-19.5 44.5q0 37 21 50.5t53 13.5q38 0 59 -19t14 -57z" />
    <glyph glyph-name="circumflex" unicode="&#x2c6;" horiz-adv-x="550" 
d="M492 637v-88l-216 83l-216 -83v88l216 84z" />
    <glyph glyph-name="caron" unicode="&#x2c7;" horiz-adv-x="552" 
d="M276 549l-216 83v89l216 -84l216 84v-89z" />
    <glyph glyph-name="breve" unicode="&#x2d8;" horiz-adv-x="586" 
d="M486 720q0 -47 -10.5 -76.5t-30 -46.5t-46 -23.5t-57.5 -6.5h-111q-32 0 -57 8t-42.5 26t-26.5 47t-9 72h93q0 -35 14 -52.5t46 -17.5h82q36 0 48.5 20t12.5 50h94v0z" />
    <glyph glyph-name="dotaccent" unicode="&#x2d9;" horiz-adv-x="559" 
d="M365 622q0 -19 -3 -31t-12 -19t-25.5 -10t-43.5 -3q-28 0 -44.5 3t-25.5 10t-12 19t-3 31q0 21 3 34t12 20.5t25.5 10t44.5 2.5q27 0 43.5 -2.5t25.5 -10t12 -20.5t3 -34z" />
    <glyph glyph-name="ring" unicode="&#x2da;" horiz-adv-x="559" 
d="M430 669q0 -62 -33 -89.5t-116 -27.5q-43 0 -71.5 6.5t-46 21t-25 36.5t-7.5 53q0 30 7.5 52t25 36t46 20.5t71.5 6.5q82 0 115.5 -27t33.5 -88zM349 669q0 28 -18 35t-50 7q-33 0 -51 -7t-18 -35q0 -29 18 -36.5t51 -7.5q31 0 49.5 7.5t18.5 36.5z" />
    <glyph glyph-name="ogonek" unicode="&#x2db;" horiz-adv-x="286" 
d="M144 -183q-94 0 -94 74q0 29 16 58.5t39 50.5h77q-20 -17 -32.5 -40t-12.5 -37q0 -15 9 -23.5t36 -8.5v-74h-38z" />
    <glyph glyph-name="tilde" unicode="&#x2dc;" horiz-adv-x="586" 
d="M534 684q0 -28 -5 -51t-19.5 -40t-39.5 -26.5t-65 -9.5q-34 0 -63 11t-54.5 24.5t-48 25t-43.5 11.5q-34 0 -45.5 -16.5t-13.5 -47.5h-80q-1 3 -1 7v12q0 24 5.5 47.5t20 42t40 30t65.5 11.5q33 0 60 -11t51 -24t47 -24t49 -11q20 0 31.5 4.5t17.5 12.5t7.5 19.5
t1.5 25.5h80q0 -4 1 -8q0 -4 0.5 -7.5t0.5 -7.5z" />
    <glyph glyph-name="hungarumlaut" unicode="&#x2dd;" horiz-adv-x="550" 
d="M306 556l-2 90l196 51l2 -88zM46 556l-1 90l196 51l1 -88z" />
    <glyph glyph-name="pi" unicode="&#x3c0;" horiz-adv-x="911" 
d="M865 320q0 -84 -18.5 -159t-65 -131t-125.5 -88.5t-201 -32.5t-201 32.5t-125.5 88.5t-65 131t-18.5 160q0 84 19 158.5t65.5 130.5t126 88.5t199.5 32.5q122 0 201 -32.5t125.5 -89t65 -131t18.5 -158.5zM766 320q0 70 -14 129.5t-49.5 103t-95.5 68.5t-152 25
q-91 0 -151 -25t-95.5 -68.5t-50 -103.5t-14.5 -129q0 -70 14.5 -129.5t49.5 -103t95 -68.5t152 -25t152 25t95.5 68.5t49.5 103t14 129.5zM642 382q0 -69 -50 -105.5t-136 -36.5h-79v-133h-91v422h165q64 0 102 -14t57.5 -36t25.5 -47.5t6 -49.5zM550 382q0 11 -3 24
t-12.5 24t-28.5 18.5t-51 7.5h-78v-145h79q33 0 52 7.5t28 18t11.5 23t2.5 22.5z" />
    <glyph glyph-name="uni1E02" unicode="&#x1e02;" horiz-adv-x="607" 
d="M575 186q0 -36 -12.5 -70t-41.5 -59.5t-78.5 -41t-122.5 -15.5h-254v640h250q64 0 109.5 -12t74 -33.5t42 -51t13.5 -63.5q0 -23 -4.5 -45.5t-14.5 -42t-26.5 -33.5t-39.5 -19q26 -7 45.5 -23t33 -37t20 -45.5t6.5 -48.5zM462 187q0 32 -11.5 51t-31 28.5t-44 12.5
t-49.5 3h-150v-192h148q44 0 71 7.5t42 20.5t20 30.5t5 38.5zM447 457q0 20 -5 37t-19 29t-38.5 19t-64.5 7h-144v-182h150q39 0 62.5 8t36.5 21t17.5 29t4.5 32zM387 749q0 -19 -3 -31t-12 -19t-25.5 -10t-43.5 -3q-28 0 -44.5 3t-25.5 10t-12 19t-3 31q0 21 3 34t12 20.5
t25.5 10t44.5 2.5q27 0 43.5 -2.5t25.5 -10t12 -20.5t3 -34z" />
    <glyph glyph-name="uni1E03" unicode="&#x1e03;" horiz-adv-x="581" 
d="M547 256q0 -53 -10.5 -100.5t-35.5 -83.5t-67 -57.5t-105 -21.5q-46 0 -79.5 7.5t-57 19.5t-38.5 26.5t-22 27.5l-22 -74h-58v707h105v-257q8 13 22 25t35 22t50 16t67 6q63 0 105 -21.5t66.5 -57.5t34.5 -84t10 -100zM440 256q0 39 -6 70.5t-21.5 54.5t-43.5 35.5
t-72 12.5q-45 0 -73 -13t-43 -35.5t-20 -54.5t-5 -69q0 -40 6 -72.5t21.5 -56t43.5 -36t73 -12.5q43 0 70.5 12.5t43 36t21 56t5.5 71.5zM407 622q0 -19 -3 -31t-12 -19t-25.5 -10t-43.5 -3q-28 0 -44.5 3t-25.5 10t-12 19t-3 31q0 21 3 34t12 20.5t25.5 10t44.5 2.5
q27 0 43.5 -2.5t25.5 -10t12 -20.5t3 -34z" />
    <glyph glyph-name="uni1E0A" unicode="&#x1e0a;" horiz-adv-x="646" 
d="M602 324q0 -76 -20 -136t-58.5 -102t-94.5 -64t-129 -22h-234v640h244q145 0 218.5 -80.5t73.5 -235.5zM495 325q0 65 -13 108.5t-39 69.5t-65.5 36.5t-91.5 10.5h-111v-460h105q53 0 93 12.5t67 40t41 72.5t14 110zM386 749q0 -19 -3 -31t-12 -19t-25.5 -10t-43.5 -3
q-28 0 -44.5 3t-25.5 10t-12 19t-3 31q0 21 3 34t12 20.5t25.5 10t44.5 2.5q27 0 43.5 -2.5t25.5 -10t12 -20.5t3 -34z" />
    <glyph glyph-name="uni1E0B" unicode="&#x1e0b;" horiz-adv-x="581" 
d="M471 0l-24 73q-7 -13 -21.5 -27t-38 -26t-57.5 -19.5t-79 -7.5q-63 0 -105.5 21.5t-67.5 57.5t-35.5 83.5t-10.5 100.5q0 52 10 100t35 84t67 57.5t106 21.5q38 0 67 -6t50 -16t35 -22.5t22 -25.5v258h105v-707h-58zM425 256q0 37 -5 68.5t-20.5 55t-43.5 36.5t-74 13
q-44 0 -71.5 -12.5t-43 -35.5t-21 -54.5t-5.5 -70.5t5.5 -71t21 -55t42.5 -36t71 -13q45 0 73 12.5t43.5 35.5t21.5 55.5t6 71.5zM347 622q0 -19 -3 -31t-12 -19t-25.5 -10t-43.5 -3q-28 0 -44.5 3t-25.5 10t-12 19t-3 31q0 21 3 34t12 20.5t25.5 10t44.5 2.5
q27 0 43.5 -2.5t25.5 -10t12 -20.5t3 -34z" />
    <glyph glyph-name="uni1E1E" unicode="&#x1e1e;" horiz-adv-x="521" 
d="M175 550v-179h302v-89h-302v-282h-109v640h435v-90h-326zM375 749q0 -19 -3 -31t-12 -19t-25.5 -10t-43.5 -3q-28 0 -44.5 3t-25.5 10t-12 19t-3 31q0 21 3 34t12 20.5t25.5 10t44.5 2.5q27 0 43.5 -2.5t25.5 -10t12 -20.5t3 -34z" />
    <glyph glyph-name="uni1E1F" unicode="&#x1e1f;" horiz-adv-x="325" 
d="M175 425v-425h-101v425h-73v64l73 22v49q0 82 45.5 117t147.5 35h22.5t24.5 -1v-87q-10 0 -18 0.5t-16 0.5q-63 0 -84 -17t-21 -49v-47h139v-87h-139zM297 809q0 -19 -3 -31t-12 -19t-25.5 -10t-43.5 -3q-28 0 -44.5 3t-25.5 10t-12 19t-3 31q0 21 3 34t12 20.5t25.5 10
t44.5 2.5q27 0 43.5 -2.5t25.5 -10t12 -20.5t3 -34z" />
    <glyph glyph-name="uni1E40" unicode="&#x1e40;" horiz-adv-x="890" 
d="M715 0v507l-215 -507h-110l-215 507v-507h-109v640h163l186 -436q2 -8 7.5 -21.5t10.5 -27.5q6 -16 12 -34l3 10.5t8 24t10.5 27.5t8.5 21l186 436h164v-640h-110zM529 749q0 -19 -3 -31t-12 -19t-25.5 -10t-43.5 -3q-28 0 -44.5 3t-25.5 10t-12 19t-3 31q0 21 3 34
t12 20.5t25.5 10t44.5 2.5q27 0 43.5 -2.5t25.5 -10t12 -20.5t3 -34z" />
    <glyph glyph-name="uni1E41" unicode="&#x1e41;" horiz-adv-x="804" 
d="M652 0v307q0 27 -3.5 49.5t-13.5 38.5t-28.5 25t-49.5 9q-30 0 -49 -9t-29.5 -25t-14.5 -38.5t-4 -49.5v-307h-108v307q0 27 -3.5 49.5t-13.5 38.5t-28.5 25t-49.5 9q-30 0 -49 -9t-30 -25t-15 -38.5t-4 -49.5v-307h-107v512h58l24 -66q6 12 18 25t31 23.5t45.5 17.5
t62.5 7q57 0 90.5 -20.5t50.5 -58.5q6 13 17.5 27.5t31 25.5t47 18.5t63.5 7.5q52 0 85 -17t52 -47t25.5 -69.5t6.5 -84.5v-301h-108zM497 622q0 -19 -3 -31t-12 -19t-25.5 -10t-43.5 -3q-28 0 -44.5 3t-25.5 10t-12 19t-3 31q0 21 3 34t12 20.5t25.5 10t44.5 2.5
q27 0 43.5 -2.5t25.5 -10t12 -20.5t3 -34z" />
    <glyph glyph-name="uni1E56" unicode="&#x1e56;" horiz-adv-x="605" 
d="M564 426q0 -33 -6 -69.5t-31.5 -68t-77.5 -52t-144 -20.5h-129v-216h-110v640h231q92 0 145 -21t80 -52.5t34.5 -69.5t7.5 -71zM451 426q0 20 -4.5 42t-20 40t-45 30t-80.5 12h-125v-246h128q50 0 79 11.5t44 29.5t19.5 39.5t4.5 41.5zM386 749q0 -19 -3 -31t-12 -19
t-25.5 -10t-43.5 -3q-28 0 -44.5 3t-25.5 10t-12 19t-3 31q0 21 3 34t12 20.5t25.5 10t44.5 2.5q27 0 43.5 -2.5t25.5 -10t12 -20.5t3 -34z" />
    <glyph glyph-name="uni1E57" unicode="&#x1e57;" horiz-adv-x="580" 
d="M547 255q0 -53 -10 -100.5t-34.5 -83.5t-66.5 -57t-105 -21q-38 0 -67 6t-50 16t-35 22.5t-22 25.5v-263h-105v712h58l22 -73q7 13 22 27t38.5 26t57 19.5t79.5 7.5q63 0 105 -21.5t67 -58t35.5 -84.5t10.5 -100zM440 255q0 39 -5.5 71.5t-21 55.5t-43 36t-70.5 13
q-45 0 -73 -12.5t-43.5 -35.5t-21.5 -55.5t-6 -72.5q0 -38 5 -69.5t20 -54.5t43 -36t73 -13q44 0 72 12.5t43.5 35.5t21.5 54.5t6 70.5zM395 622q0 -19 -3 -31t-12 -19t-25.5 -10t-43.5 -3q-28 0 -44.5 3t-25.5 10t-12 19t-3 31q0 21 3 34t12 20.5t25.5 10t44.5 2.5
q27 0 43.5 -2.5t25.5 -10t12 -20.5t3 -34z" />
    <glyph glyph-name="uni1E60" unicode="&#x1e60;" horiz-adv-x="642" 
d="M594 187q0 -34 -12 -68.5t-42 -62.5t-80 -45.5t-125 -17.5q-79 0 -133.5 16.5t-88.5 47.5t-49.5 74.5t-16.5 97.5h110q1 -30 10.5 -56t29.5 -44.5t53 -29.5t82 -11q46 0 75.5 7.5t47 20.5t24.5 30t7 36q0 28 -18 45.5t-47.5 28.5t-67 18t-76.5 14.5t-77 18.5t-67.5 29
t-48 45.5t-19.5 69.5q0 43 14 79t45 62t79.5 40.5t117.5 14.5t119 -16t82 -45t47.5 -71t15.5 -93h-109q-4 66 -40.5 99.5t-118.5 33.5q-75 0 -109 -24t-34 -69q0 -26 18 -42t47.5 -26t67.5 -17t77 -15.5t77 -20t67.5 -31t47.5 -49.5t18 -74zM407 749q0 -19 -3 -31t-12 -19
t-25.5 -10t-43.5 -3q-28 0 -44.5 3t-25.5 10t-12 19t-3 31q0 21 3 34t12 20.5t25.5 10t44.5 2.5q27 0 43.5 -2.5t25.5 -10t12 -20.5t3 -34z" />
    <glyph glyph-name="uni1E61" unicode="&#x1e61;" horiz-adv-x="524" 
d="M497 148q0 -28 -12.5 -56t-39.5 -50t-69.5 -35.5t-103.5 -13.5q-130 0 -188.5 50t-58.5 148h105q0 -53 32.5 -83t107.5 -30q34 0 57 6t37.5 15t20.5 20.5t7 22.5q1 28 -25.5 42.5t-66 23.5t-86 17t-86.5 23t-66.5 41.5t-26.5 72.5q0 34 12 62.5t39 49.5t69.5 33t103.5 12
q62 0 105 -14t69.5 -39t38.5 -60.5t12 -77.5h-100q-2 25 -8.5 45t-21.5 34t-39 21.5t-59 7.5q-32 0 -54 -5.5t-35.5 -14.5t-19.5 -21t-6 -24q0 -25 26.5 -37.5t66 -21.5t85.5 -17.5t85.5 -25t66 -45t26.5 -76.5zM344 622q0 -19 -3 -31t-12 -19t-25.5 -10t-43.5 -3
q-28 0 -44.5 3t-25.5 10t-12 19t-3 31q0 21 3 34t12 20.5t25.5 10t44.5 2.5q27 0 43.5 -2.5t25.5 -10t12 -20.5t3 -34z" />
    <glyph glyph-name="uni1E6A" unicode="&#x1e6a;" horiz-adv-x="496" 
d="M302 550v-550h-107v550h-184v90h475v-90h-184zM332 749q0 -19 -3 -31t-12 -19t-25.5 -10t-43.5 -3q-28 0 -44.5 3t-25.5 10t-12 19t-3 31q0 21 3 34t12 20.5t25.5 10t44.5 2.5q27 0 43.5 -2.5t25.5 -10t12 -20.5t3 -34z" />
    <glyph glyph-name="uni1E6B" unicode="&#x1e6b;" horiz-adv-x="337" 
d="M189 426v-279q0 -18 5 -31t19 -21.5t39.5 -11.5t67.5 -1v-86q-63 -4 -108.5 2t-75 24t-43 49t-13.5 76v279h-73v64l73 22v128h106v-128h134v-86h-131zM219 749q0 -19 -3 -31t-12 -19t-25.5 -10t-43.5 -3q-28 0 -44.5 3t-25.5 10t-12 19t-3 31q0 21 3 34t12 20.5t25.5 10
t44.5 2.5q27 0 43.5 -2.5t25.5 -10t12 -20.5t3 -34z" />
    <glyph glyph-name="Wgrave" unicode="&#x1e80;" horiz-adv-x="975" 
d="M776 0h-132l-157 519l-155 -519h-132l-195 640h116l146 -523l158 523h130l157 -523l147 523h111zM272 746v87l430 -67v-89z" />
    <glyph glyph-name="wgrave" unicode="&#x1e81;" horiz-adv-x="806" 
d="M642 0h-123l-122 401l-120 -401h-117l-150 512h116l98 -412l121 412h105l127 -415l104 415h115zM182 619v87l430 -67v-89z" />
    <glyph glyph-name="Wacute" unicode="&#x1e82;" horiz-adv-x="975" 
d="M776 0h-132l-157 519l-155 -519h-132l-195 640h116l146 -523l158 523h130l157 -523l147 523h111zM702 748l-431 -70v89l431 70v-89z" />
    <glyph glyph-name="wacute" unicode="&#x1e83;" horiz-adv-x="806" 
d="M642 0h-123l-122 401l-120 -401h-117l-150 512h116l98 -412l121 412h105l127 -415l104 415h115zM613 621l-431 -70v89l431 70v-89z" />
    <glyph glyph-name="Wdieresis" unicode="&#x1e84;" horiz-adv-x="975" 
d="M776 0h-132l-157 519l-155 -519h-132l-195 640h116l146 -523l158 523h130l157 -523l147 523h111zM659 749q0 -35 -18 -46.5t-50 -11.5q-34 0 -53 11.5t-19 46.5q0 36 19 47t53 11q32 0 50 -11t18 -47zM458 749q0 -35 -18.5 -46.5t-50.5 -11.5q-34 0 -52.5 11.5
t-18.5 46.5q0 36 18.5 47t52.5 11q32 0 50.5 -11t18.5 -47z" />
    <glyph glyph-name="wdieresis" unicode="&#x1e85;" horiz-adv-x="806" 
d="M642 0h-123l-122 401l-120 -401h-117l-150 512h116l98 -412l121 412h105l127 -415l104 415h115zM569 622q0 -35 -18 -46.5t-50 -11.5q-34 0 -53 11.5t-19 46.5q0 36 19 47t53 11q32 0 50 -11t18 -47zM368 622q0 -35 -18.5 -46.5t-50.5 -11.5q-34 0 -52.5 11.5t-18.5 46.5
q0 36 18.5 47t52.5 11q32 0 50.5 -11t18.5 -47z" />
    <glyph glyph-name="Ygrave" unicode="&#x1ef2;" horiz-adv-x="607" 
d="M356 194v-194h-115v194l-242 446h116l185 -361l194 361h115zM88 753v87l430 -67v-89z" />
    <glyph glyph-name="ygrave" unicode="&#x1ef3;" horiz-adv-x="572" 
d="M520 -4q0 -37 -9 -73.5t-34.5 -65t-72.5 -46.5t-123 -18q-71 0 -117 13.5t-72.5 36.5t-37 55t-10.5 70h106q1 -20 6 -37t19 -29.5t39.5 -19.5t67.5 -7t68 9.5t40.5 25t19 36.5t4.5 45v67q-17 -27 -54.5 -46t-108.5 -19q-63 0 -102 17t-61 48t-30 75t-8 99v280h105v-289
q0 -34 4.5 -60t18 -44t38 -27t65.5 -9t67 9.5t40.5 28.5t20 45.5t5.5 61.5v284h106v-516zM71 619v87l430 -67v-89z" />
    <glyph glyph-name="endash" unicode="&#x2013;" horiz-adv-x="635" 
d="M40 214v88h555v-88h-555z" />
    <glyph glyph-name="emdash" unicode="&#x2014;" horiz-adv-x="814" 
d="M40 214v88h734v-88h-734z" />
    <glyph glyph-name="quoteleft" unicode="&#x2018;" horiz-adv-x="204" 
d="M51 640h69l-9 -126q34 0 51 -15t17 -49q0 -39 -21.5 -51t-56.5 -12q-20 0 -35 4t-24.5 13.5t-13 25.5t-0.5 41z" />
    <glyph glyph-name="quoteright" unicode="&#x2019;" horiz-adv-x="205" 
d="M154 394h-69l9 126q-34 0 -51 15t-17 49q0 39 21.5 51t56.5 12q39 0 59.5 -17.5t13.5 -66.5z" />
    <glyph glyph-name="quotesinglbase" unicode="&#x201a;" horiz-adv-x="204" 
d="M154 -131h-69l9 126q-34 0 -51 15t-17 49q0 39 21.5 51t56.5 12q39 0 59.5 -17.5t13.5 -66.5z" />
    <glyph glyph-name="quotedblleft" unicode="&#x201c;" horiz-adv-x="411" 
d="M51 640h69l-9 -126q34 0 51 -15t17 -49q0 -39 -21.5 -51t-56.5 -12q-20 0 -35 4t-24.5 13.5t-13 25.5t-0.5 41zM252 640h69l-9 -126q34 0 51 -15t17 -49q0 -39 -21.5 -51t-56.5 -12q-20 0 -35 4t-24.5 13.5t-13 25.5t-0.5 41z" />
    <glyph glyph-name="quotedblright" unicode="&#x201d;" horiz-adv-x="407" 
d="M355 394h-69l9 126q-34 0 -51 15t-17 49q0 39 21.5 51t56.5 12q39 0 59.5 -17.5t13.5 -66.5zM154 394h-69l9 126q-34 0 -51 15t-17 49q0 39 21.5 51t56.5 12q39 0 59.5 -17.5t13.5 -66.5z" />
    <glyph glyph-name="quotedblbase" unicode="&#x201e;" horiz-adv-x="407" 
d="M355 -131h-69l9 126q-34 0 -51 15t-17 49q0 39 21.5 51t56.5 12q39 0 59.5 -17.5t13.5 -66.5zM154 -131h-69l9 126q-34 0 -51 15t-17 49q0 39 21.5 51t56.5 12q39 0 59.5 -17.5t13.5 -66.5z" />
    <glyph glyph-name="dagger" unicode="&#x2020;" horiz-adv-x="431" 
d="M271 426v-494h-112v494h-133v86h133v128h112v-127h133v-87h-133z" />
    <glyph glyph-name="daggerdbl" unicode="&#x2021;" horiz-adv-x="451" 
d="M281 246v-314h-112v314h-132v86h132v94h-132v86h132v128h112v-126h134v-88h-134v-94h134v-86h-134z" />
    <glyph glyph-name="bullet" unicode="&#x2022;" horiz-adv-x="820" 
d="M772 319q0 -65 -15 -124t-55.5 -104t-111 -71.5t-180.5 -26.5t-180.5 26.5t-110.5 71.5t-55 104.5t-15 124.5t15.5 124.5t56 104.5t110.5 71.5t179 26.5q110 0 180.5 -26.5t111 -71.5t55.5 -104.5t15 -125.5z" />
    <glyph glyph-name="ellipsis" unicode="&#x2026;" horiz-adv-x="635" 
d="M610 57q0 -38 -22 -51t-56 -13q-35 0 -56 13t-21 51q0 40 21 52.5t56 12.5q34 0 56 -12.5t22 -52.5zM395 57q0 -38 -21 -51t-55 -13q-35 0 -57 13t-22 51q0 40 22 52.5t57 12.5q34 0 55 -12.5t21 -52.5zM180 57q0 -38 -21 -51t-55 -13q-35 0 -56.5 13t-21.5 51
q0 40 21.5 52.5t56.5 12.5q34 0 55 -12.5t21 -52.5z" />
    <glyph glyph-name="perthousand" unicode="&#x2030;" horiz-adv-x="1749" 
d="M1710 223q0 -45 -10.5 -87t-36.5 -73.5t-70 -50.5t-112 -19t-111.5 19t-69 51t-35.5 73.5t-10 86.5t10 86.5t35.5 73.5t69.5 51t112 19q67 0 111.5 -19t70 -51t36 -73.5t10.5 -86.5zM1199 223q0 -45 -10.5 -87t-36.5 -73.5t-70 -50.5t-112 -19t-111.5 19t-69 51
t-35.5 73.5t-10 86.5t10 86.5t35.5 73.5t69.5 51t112 19q67 0 111.5 -19t70 -51t36 -73.5t10.5 -86.5zM569 0h-107l188 551h-215q33 -23 46 -61t13 -79q0 -46 -10 -88t-35.5 -74t-70 -51t-113.5 -19q-70 0 -114 19t-69 51.5t-34 74t-9 86.5t10 86.5t37 73.5t76 51t127 19
h497zM1615 223q0 29 -5.5 55t-20.5 45.5t-41 30.5t-66 11q-39 0 -64.5 -11t-40.5 -30.5t-21 -45.5t-6 -55t5.5 -55t20.5 -45t40.5 -30t64.5 -11q40 0 66 11t41 29.5t21 44.5t6 56zM1104 223q0 29 -5.5 55t-20.5 45.5t-41 30.5t-66 11t-65.5 -11t-40.5 -30.5t-20.5 -45.5
t-5.5 -55t5.5 -55t20.5 -45t40.5 -30t64.5 -11q40 0 66 11t41 29.5t21 44.5t6 56zM399 410q0 28 -5.5 54t-20.5 45t-41 30.5t-66 11.5t-65.5 -11t-40.5 -30t-20.5 -44.5t-5.5 -54.5q0 -30 5.5 -56t20.5 -44.5t40.5 -29.5t64.5 -11q40 0 66 10.5t41 29.5t21 45t6 56v-1z" />
    <glyph glyph-name="guilsinglleft" unicode="&#x2039;" horiz-adv-x="264" 
d="M131 42l-105 213l105 214h106l-103 -214l103 -213h-106z" />
    <glyph glyph-name="guilsinglright" unicode="&#x203a;" horiz-adv-x="264" 
d="M134 42h-108l104 213l-104 214h108l103 -214z" />
    <glyph glyph-name="Euro" unicode="&#x20ac;" horiz-adv-x="732" 
d="M694 246q0 -53 -17 -99t-53.5 -80.5t-93 -54t-135.5 -19.5q-83 0 -139 22.5t-91.5 61.5t-52.5 91t-21 111h-81v87h81q5 58 22.5 109t53 89.5t91.5 60.5t137 22q78 0 134.5 -20.5t93 -55t54 -80t17.5 -95.5h-113q-3 34 -15 63t-34.5 50.5t-56.5 34t-80 12.5
q-50 0 -85 -14.5t-57.5 -40t-34 -60t-14.5 -75.5h275v-87h-277q3 -42 14.5 -77.5t34 -61.5t58 -40.5t86.5 -14.5q47 0 81 12t56.5 33t34 50.5t14.5 65.5h113v0z" />
    <glyph glyph-name="trademark" unicode="&#x2122;" horiz-adv-x="990" 
d="M935 640v-446h-91v331l-134 -331h-74l-134 332v-332h-91v446h136l127 -326l124 326h137zM242 560v-365h-96v365h-122l-1 80h342v-80h-123z" />
    <glyph glyph-name="partialdiff" unicode="&#x2202;" horiz-adv-x="592" 
d="M147 208q0 -62 37.5 -94t101.5 -32q39 0 68 10t47.5 27.5t27.5 40.5t9 50q0 51 -34.5 85t-109.5 34q-42 0 -70 -9.5t-45.5 -26t-24.5 -38.5t-7 -47zM242 646q10 1 19 1h20q135 0 204 -79t69 -247q0 -80 -12.5 -141.5t-43 -103t-82 -62.5t-129.5 -21q-66 0 -113 17.5
t-77 47t-44 68.5t-14 82q0 56 19 95.5t50.5 64t72.5 36t85 11.5q43 0 75 -10t54.5 -25t35 -33t17.5 -35q1 54 -6 99t-25.5 77.5t-51.5 50.5t-84 18h-15t-14 -1z" />
    <glyph glyph-name="minus" unicode="&#x2212;" horiz-adv-x="575" 
d="M40 211v90h494v-90h-494z" />
    <glyph glyph-name="notequal" unicode="&#x2260;" horiz-adv-x="635" 
d="M295 110l-46 -110h-95l46 110h-160v89h199l52 122h-251v88h287l45 103h94l-45 -103h174v-88h-210l-53 -122h263v-89h-300z" />
    <glyph glyph-name="lozenge" unicode="&#x25ca;" horiz-adv-x="1030" 
d="M969 286q9 -6 10.5 -13.5t-2 -13.5t-10.5 -8t-16 3l-51 25l-32 -69q13 -7 21.5 -19.5t12 -27t1 -30t-11.5 -27.5q-14 -20 -35 -29t-47 3q-8 -16 -14 -26.5t-9 -17.5l-6 -12q-10 -21 -27 -9l-19 9q-8 5 -10.5 12.5t2.5 15.5l27 53q-1 0 -3 1t-16 10q-9 5 -12 12.5
t-1.5 14.5t7 12.5t13.5 6.5q-9 6 -10 15t3.5 16.5t12.5 11t18 -0.5q-3 7 -2 14.5t5.5 13.5t12 8t17.5 -1l15 -7l35 72l-38 18q-9 4 -12 11t-1.5 13t7.5 9.5t16 2.5l65 -6zM850 541q10 -1 14.5 -7.5t3.5 -14t-6.5 -13.5t-15.5 -6q-46 4 -71 6t-36 3l-15 1q24 -28 38 -63
t14 -74q0 -43 -16.5 -81t-45 -66.5t-66 -45t-80.5 -16.5t-81 16.5t-66 45t-44.5 66.5t-16.5 81q0 41 15 77.5t41 64.5t61 45t75 20l26 5q20 4 60.5 11.5t117.5 21.5q10 2 16 -3.5t7 -13t-3 -15t-14 -9.5l-102 -18l6 -2q1 -1 2 -1l23 -2q17 -2 53.5 -5t105.5 -8zM304 255
q6 -29 0 -58t-26 -53q-17 -21 -39.5 -33t-47 -14.5t-48.5 4t-45 23.5t-32.5 39.5t-14.5 47t4 48.5t24 45t39.5 33.5t47 15t49 -4.5t44.5 -23q8 -5 13.5 -11t10.5 -13h58zM693 457q8 4 9.5 11.5t-1.5 14t-10 9.5t-14 -1l-79 -43q-14 -7 -13.5 -16.5t14.5 -15.5l79 -34
q7 -4 13.5 -1t9.5 9t1 13t-10 11l-45 19zM534 474q-16 19 -40 21t-44 -12q-20 -17 -21 -41t14 -44q16 -19 40 -21t44 14q19 16 21 40t-14 43zM655 311q9 0 13.5 5.5t4.5 12t-4.5 12t-13.5 5.5h-180q-9 0 -15 -4t-6 -13q0 -27 10.5 -45.5t22.5 -29.5q10 -8 23 -15
q11 -6 26.5 -11t33.5 -6q9 -1 14 4.5t5.5 12.5t-3.5 13t-13 6q-14 0 -25 3.5t-19 8.5q-10 5 -17 11q-13 13 -17 30h160zM279 214q-4 4 -9 4q-9 0 -9 -8q0 -6 7 -8l3 -1q2 -1 2 -3t-3 -2q-4 0 -5 3l-5 -4q4 -5 10 -5q10 0 10 9q0 5 -7 7l-3 1q-2 1 -2 3t2 2h1q1 0 3 -2z
M255 207h-11v4h11v6h-18v-26h18v7h-11v4h11v5zM205 256h-7v-12v-1l-21 16v-30h7v14v1l21 -15v27zM231 218h-8v-10h-13v10h-7v-27h7v11h13v-11h8v27zM137 282q0 8 -5.5 12.5t-13.5 4.5q-19 0 -19 -17q0 -8 5.5 -12t13.5 -4q19 0 19 16zM157 258l-16 -26l7 -3l2 5h14l3 -5l6 3
zM197 207h-17v-5h9v-4q-1 0 -2 -0.5t-3 -0.5q-8 0 -8 7t8 7q4 0 7 -2l4 5q-7 4 -12 4q-6 0 -10.5 -4.5t-4.5 -9.5q0 -13 16 -13q8 0 13 4v12zM137 256h-8v-27h8v27zM119 241q1 2 2 3t1 4q0 8 -10 8h-10v-27h7v10h3l1 -1l7 -9l6 5zM164 218h-8v-14q0 -6 -6 -6q-7 0 -7 6v14
h-8v-14q0 -14 15 -14q14 0 14 14v14zM194 170q0 9 -10 9q-9 0 -9 -9v-10q0 -9 9 -9q10 0 10 9v10zM169 170q0 9 -10 9q-9 0 -9 -9v-10q0 -9 9 -9q10 0 10 9v10zM129 218h-7v-10h-13v10h-7v-27h7v11h13v-11h7v27zM144 170q0 4 -3 6.5t-6 2.5q-9 0 -9 -9v-10q0 -9 9 -9
q3 0 6 2.5t3 6.5v10zM120 158h-9l5 6q3 3 3 6q0 9 -10 9q-4 0 -8 -4l-1 -2l5 -4q3 3 4 3q2 0 2.5 -1.5t-0.5 -2.5l-12 -17h21v7zM506 445q0 -9 -6 -15t-16 -6q-9 0 -15.5 7t-6.5 16t7 15.5t17 6.5q9 -1 15 -8t5 -16zM131 282q0 -11 -13 -11t-13 11q0 12 13 12t13 -12z
M153 240l4 6l3 -6h-7zM114 248q0 -3 -3 -3h-2v5h2q3 0 3 -2zM186 160q0 -2 -2 -2q-1 0 -1 2v10q0 2 1 2q2 0 2 -2v-10zM162 160q0 -2 -3 -2q-2 0 -2 2v10q0 2 2 2q3 0 3 -2v-10zM137 160q0 -1 -1 -1t-1 -1q-3 0 -3 2v10q0 2 3 2h1l1 -2v-10zM122 281q-1 -2 -4 -2q-4 0 -4 3
q0 4 4 4q2 0 4 -2l4 2q-3 5 -8 5q-10 0 -10 -9q0 -8 10 -8q4 0 8 4z" />
    <glyph glyph-name="uniFB01" unicode="&#xfb01;" horiz-adv-x="414" 
d="M282 0v425h-107v-425h-101v425h-73v64l73 22v49q0 82 45.5 117t147.5 35h122v-87h-109q-63 0 -84 -18t-21 -51v-44h214v-512h-107z" />
    <glyph glyph-name="uniFB02" unicode="&#xfb02;" horiz-adv-x="441" 
d="M282 0v425h-107v-425h-101v425h-73v64l73 22v49q0 82 45.5 117t147.5 35q35 0 65.5 -1.5t56.5 -3.5v-707h-107zM175 512h107v113h-2q-63 0 -84 -17t-21 -49v-47z" />
    <glyph glyph-name="glyph146" horiz-adv-x="205" 
d="M154 394h-69l9 126q-34 0 -51 15t-17 49q0 39 21.5 51t56.5 12q39 0 59.5 -17.5t13.5 -66.5z" />
    <glyph glyph-name="glyph153" horiz-adv-x="225" 
d="M158 -253h-70l15 97q-26 0 -45.5 14.5t-19.5 44.5q0 37 21 50.5t53 13.5q38 0 59 -19t14 -57z" />
    <glyph glyph-name="glyph367" horiz-adv-x="657" 
d="M572 398q1 -1 3.5 -3t7.5 -2q4 0 8 4l10 -8q-8 -5 -11 -6t-7 -1q-25 0 -25 22q0 8 7 14.5t18 6.5q9 0 16.5 -6.5t7.5 -20.5h-35zM551 394q-7 -8 -12 -10t-10 -2q-10 0 -17 6t-7 16q0 8 7 14.5t17 6.5q5 0 9.5 -2t12.5 -9l-10 -9q-8 7 -12 7q-9 0 -9 -8q0 -10 9 -10
q2 0 12 8zM496 436q1 -2 -1.5 -4.5t-4.5 -3.5q-9 0 -9 7q-2 7 6 7q7 2 9 -6zM322 675q-1 -31 -23 -53t-53 -22q-32 0 -53.5 22t-20.5 53q0 31 22 53t53 22q32 0 53.5 -22t21.5 -53zM481 382v42h14v-42h-14zM449 379l-25 40l12 6l3.5 -7t3.5 -5q2 -3 3 -4l3 -5q1 1 1 1.5
t1 1.5q0 1 1 2t3 4q2 2 3.5 4.5t4.5 6.5l11 -6zM386 398q2 -1 3.5 -3t6.5 -2q4 0 9 4l10 -8q-8 -5 -11 -6t-8 -1q-11 0 -18 6t-7 16q0 8 7 14.5t18 6.5t17.5 -6.5t6.5 -20.5h-34zM349 382v3q-2 -2 -5.5 -2.5t-6.5 -0.5q-9 0 -15.5 6t-6.5 16q0 9 6.5 15t15.5 6q3 0 6.5 -1
t5.5 -3v15h14v-54h-14zM418 307q-34 -4 -50.5 -9t-24 -15.5t-10 -30t-7.5 -53.5q-7 -38 -12 -75q-5 -32 -10 -66t-9 -58q-43 -1 -76 19t-56 45q-27 28 -47 65q-20 39 -33.5 84t-21.5 85t-9.5 68.5t3.5 34.5q4 3 9 6q5 2 11.5 3t15.5 -2q-5 -50 -7 -85t1 -69l45 6
q-2 10 -4.5 30t-5 44.5t-4 51t-1 49.5t3 40.5t8.5 23.5q4 3 9 6q5 2 11.5 2.5t15.5 -3.5q-5 -29 -9 -61.5t-7 -65t-4 -62.5t-1 -53l45 8q-1 6 -1 28.5t1 53t2.5 65.5t4.5 65.5t7.5 53t11.5 28.5q5 4 10 6t11.5 2t15.5 -4q-9 -37 -18 -82.5t-15.5 -88.5t-11 -77t-4.5 -49
l40 6q9 91 17 143.5t14 80.5q7 32 13 43q5 5 11 8q5 2 12 2t17 -6q-24 -60 -38.5 -112.5t-22.5 -91.5q-10 -47 -14 -85q-6 -64 2.5 -89t21 -26t25 16.5t15.5 39.5q4 33 -2 59t-10.5 43.5t-1 26.5t27.5 8q10 -1 24 -3.5t27.5 -6t24.5 -9t14 -11.5zM592 409q0 1 -2.5 3t-6.5 2
q-5 0 -7.5 -2t-3.5 -3h20zM287 676q2 16 -9 27t-28 11h-29l-9 -77h28q18 0 31.5 11t15.5 28zM406 409l-3 3t-7 2t-6.5 -2t-3.5 -3h20zM349 404q0 3 -3 5.5t-6 2.5q-11 0 -11 -8q0 -10 11 -10q3 0 6 3t3 7zM266 676q-1 -9 -8 -14.5t-17 -5.5h-6l5 39h6q10 0 16 -5.5t4 -13.5z
" />
    <glyph glyph-name="f.aalt" horiz-adv-x="406" 
d="M335 555q0 42 -18.5 58t-56.5 16q-37 0 -53.5 -17t-16.5 -52v-48h197v-85h-197v-427h-100v427h-74v63l74 22v49q0 35 9 63.5t28.5 48.5t51.5 31t77 11q51 0 84 -11t51.5 -31.5t26 -50.5t7.5 -67h-90z" />
    <glyph glyph-name="t.aalt" horiz-adv-x="439" 
d="M419 152q0 -38 -8.5 -67.5t-28.5 -50t-53.5 -31t-84.5 -10.5q-46 0 -76.5 10.5t-49 30.5t-26 48t-7.5 64v286h-79v57l79 23v128h95v-128h221v-80h-217v-286q0 -35 15 -52t52 -17q38 0 56.5 16t18.5 59h93v0z" />
    <glyph glyph-name="R.aalt" horiz-adv-x="615" 
d="M459 0v85q0 40 -6 70t-22.5 50t-45.5 30t-75 10h-134v-245h-110v640h228q90 0 143 -19.5t80.5 -49.5t35 -65t7.5 -66q0 -22 -3.5 -45t-14.5 -43.5t-31.5 -37.5t-54.5 -28q60 -15 87 -63.5t27 -133.5v-89h-111zM449 440q0 19 -5 38.5t-21 35.5t-45.5 26t-78.5 10h-123
v-218h125q49 0 78 10t44.5 25.5t20.5 34.5t5 38z" />
    </font>
</defs>
</svg>
